<svg width="125" height="116" viewBox="0 0 125 116" fill="none" xmlns="http://www.w3.org/2000/svg">
<path d="M18.2718 107.169C42.6359 118.78 82.1361 118.784 106.5 107.169C130.864 95.5544 130.861 76.7306 106.5 65.1195C82.1397 53.5085 42.6359 53.5085 18.2718 65.1195C-6.09236 76.7306 -6.08882 95.5579 18.2718 107.169Z" fill="#F5F5F5"/>
<path d="M106.415 98.588C110.903 98.588 114.54 96.8547 114.54 94.7165C114.54 92.5783 110.903 90.845 106.415 90.845C101.928 90.845 98.2905 92.5783 98.2905 94.7165C98.2905 96.8547 101.928 98.588 106.415 98.588Z" fill="#EBEBEB"/>
<path d="M16.4226 95.2715L19.2971 93.6132C20.902 92.3036 22.1235 90.5849 22.8327 88.6386C23.7202 86.1919 23.5964 84.3322 22.96 83.3988C22.1786 82.2497 20.1527 82.4512 20.0714 84.8696C19.9017 89.6357 18.5122 92.9415 16.4226 95.2715Z" fill="#D92B67"/>
<path opacity="0.2" d="M16.4226 95.2715L19.2971 93.6132C20.902 92.3036 22.1235 90.5849 22.8327 88.6386C23.7202 86.1919 23.5964 84.3322 22.96 83.3988C22.1786 82.2497 20.1527 82.4512 20.0714 84.8696C19.9017 89.6357 18.5122 92.9415 16.4226 95.2715Z" fill="black"/>
<path d="M16.4227 95.4484C16.3852 95.4479 16.3489 95.4356 16.3189 95.4131C16.289 95.3907 16.2669 95.3594 16.2559 95.3236C16.2449 95.2878 16.2455 95.2494 16.2577 95.2141C16.2699 95.1787 16.293 95.148 16.3237 95.1266C22.9707 90.5303 21.6837 84.1201 21.6696 84.0565C21.6647 84.0333 21.6644 84.0093 21.6688 83.986C21.6732 83.9627 21.6821 83.9405 21.6951 83.9206C21.7081 83.9008 21.7248 83.8836 21.7444 83.8703C21.764 83.8569 21.786 83.8475 21.8092 83.8426C21.8324 83.8377 21.8564 83.8375 21.8797 83.8418C21.903 83.8462 21.9252 83.8552 21.9451 83.8681C21.965 83.8811 21.9821 83.8978 21.9955 83.9174C22.0089 83.937 22.0182 83.959 22.0231 83.9823C22.0231 84.0494 23.3808 90.6788 16.5358 95.4165C16.5026 95.4392 16.4628 95.4504 16.4227 95.4484Z" fill="white"/>
<path d="M10.663 98.5985C10.663 98.5985 9.66243 97.7853 9.90285 96.6822C10.1433 95.5791 10.7903 94.7871 9.68364 93.3658C8.57698 91.9445 8.26938 90.0494 9.59171 89.024C10.5994 88.2285 12.1727 89.3528 12.7384 87.2562C13.1556 85.7217 13.0142 82.324 14.9694 81.1926C16.9246 80.0611 18.1515 81.7653 17.8439 84.0706C17.5752 86.1319 17.1934 88.1154 17.4903 88.6669C18.0631 89.7276 19.0425 89.5826 18.9965 91.5202C18.9576 93.3234 17.2499 94.8154 17.2499 94.8154L10.663 98.5985Z" fill="#D92B67"/>
<path d="M13.9478 96.8697C13.9046 96.8693 13.863 96.8533 13.8305 96.8248C13.7981 96.7962 13.777 96.757 13.771 96.7141C13.2654 92.5244 14.4782 85.2905 15.4681 83.1408C15.4765 83.1169 15.4898 83.0952 15.5073 83.0769C15.5247 83.0587 15.5459 83.0444 15.5694 83.035C15.5928 83.0256 15.618 83.0214 15.6432 83.0225C15.6685 83.0237 15.6932 83.0303 15.7156 83.0418C15.7367 83.0513 15.7557 83.0649 15.7715 83.0819C15.7872 83.0989 15.7994 83.1188 15.8073 83.1406C15.8152 83.1623 15.8187 83.1854 15.8175 83.2085C15.8164 83.2317 15.8106 83.2543 15.8005 83.2751C14.8211 85.3965 13.6508 92.6517 14.1352 96.6576C14.1402 96.7039 14.1266 96.7504 14.0975 96.7868C14.0683 96.8233 14.026 96.8467 13.9796 96.852L13.9478 96.8697Z" fill="white"/>
<path d="M13.852 93.6062C13.8249 93.6075 13.798 93.6014 13.7742 93.5885C12.5473 92.991 11.7695 90.859 11.7376 90.76C11.729 90.738 11.7248 90.7145 11.7254 90.6909C11.726 90.6673 11.7313 90.644 11.741 90.6225C11.7507 90.6009 11.7647 90.5815 11.782 90.5655C11.7994 90.5494 11.8198 90.537 11.842 90.529C11.8642 90.5209 11.8878 90.5174 11.9114 90.5187C11.935 90.5199 11.9582 90.5259 11.9794 90.5362C12.0007 90.5466 12.0196 90.5611 12.0352 90.5788C12.0508 90.5966 12.0626 90.6174 12.07 90.6398C12.07 90.661 12.8302 92.7258 13.9297 93.2597C13.9658 93.2772 13.9949 93.3064 14.0122 93.3426C14.0295 93.3787 14.034 93.4197 14.0249 93.4587C14.0159 93.4978 13.9938 93.5326 13.9624 93.5574C13.931 93.5823 13.892 93.5958 13.852 93.5956V93.6062Z" fill="white"/>
<path d="M13.831 95.0204C13.7956 95.0205 13.761 95.0096 13.7319 94.9894C13.7028 94.9692 13.6806 94.9405 13.6684 94.9073C13.6508 94.8641 13.6509 94.8158 13.6688 94.7728C13.6867 94.7297 13.7208 94.6955 13.7638 94.6775C15.8286 93.8501 17.1156 91.3929 17.1298 91.3646C17.1513 91.3229 17.1886 91.2914 17.2333 91.2772C17.2781 91.2629 17.3267 91.267 17.3684 91.2886C17.4101 91.3101 17.4416 91.3474 17.4558 91.3922C17.4701 91.4369 17.466 91.4855 17.4444 91.5272C17.3879 91.6333 16.0832 94.1295 13.9088 95.0063C13.8846 95.0178 13.8577 95.0227 13.831 95.0204Z" fill="white"/>
<path d="M86.0043 75.9988C86.0043 75.9988 84.4592 73.4955 84.3072 70.7766C84.1551 68.0577 84.7526 66.9263 85.5729 66.601C86.3932 66.2757 86.4568 67.2763 86.8776 67.8668C87.2983 68.4572 88.1575 68.1213 88.4757 66.2793C88.7939 64.4372 89.9536 61.3294 92.3649 60.7248C95.0166 60.0671 93.5953 63.1785 92.9271 64.3912C92.2588 65.604 91.7426 67.2586 92.181 67.7077C92.6195 68.1567 93.3018 67.3258 93.9489 68.0966C94.7373 69.0265 92.2871 72.3747 90.8799 73.1844L86.0043 75.9988Z" fill="#D92B67"/>
<path d="M88.1218 74.9486C88.0985 74.9477 88.0757 74.9422 88.0546 74.9325C88.0335 74.9227 88.0145 74.9089 87.9988 74.8919C87.983 74.8748 87.9708 74.8548 87.9628 74.833C87.9547 74.8111 87.9511 74.788 87.9521 74.7647C88.1915 70.391 89.5554 66.1531 91.912 62.4607C91.9253 62.4415 91.9424 62.4251 91.9623 62.4127C91.9821 62.4003 92.0043 62.392 92.0274 62.3883C92.0505 62.3847 92.0742 62.3858 92.0969 62.3915C92.1196 62.3973 92.1409 62.4076 92.1595 62.4218C92.1965 62.4493 92.2213 62.4903 92.2286 62.5359C92.2359 62.5815 92.225 62.6281 92.1984 62.6658C89.8839 66.3041 88.5446 70.4768 88.3092 74.7824C88.3078 74.8057 88.3019 74.8284 88.2917 74.8493C88.2816 74.8703 88.2674 74.889 88.25 74.9044C88.2326 74.9199 88.2123 74.9317 88.1903 74.9393C88.1683 74.9469 88.145 74.95 88.1218 74.9486Z" fill="white"/>
<path d="M88.3234 72.8591C88.2938 72.8588 88.2647 72.8516 88.2385 72.8379C87.2486 72.2899 86.7005 70.6635 86.6793 70.5963C86.6715 70.5742 86.6682 70.5509 86.6695 70.5275C86.6708 70.5042 86.6767 70.4813 86.6869 70.4603C86.6971 70.4392 86.7113 70.4204 86.7288 70.4049C86.7464 70.3894 86.7668 70.3776 86.7889 70.37C86.8335 70.3555 86.8819 70.3593 86.9237 70.3805C86.9655 70.4017 86.9971 70.4386 87.0117 70.4832C87.0117 70.4832 87.542 72.0494 88.4259 72.5268C88.466 72.5504 88.4953 72.5887 88.5078 72.6335C88.5204 72.6783 88.5151 72.7262 88.4931 72.7672C88.4771 72.7976 88.4525 72.8226 88.4222 72.839C88.392 72.8553 88.3576 72.8623 88.3234 72.8591Z" fill="white"/>
<path d="M88.4966 71.7878C88.4574 71.7874 88.4195 71.7739 88.3888 71.7496C88.3581 71.7253 88.3363 71.6915 88.3269 71.6534C88.3211 71.6311 88.3198 71.6079 88.3231 71.5851C88.3263 71.5623 88.3341 71.5404 88.346 71.5206C88.3578 71.5009 88.3735 71.4837 88.3921 71.4701C88.4107 71.4564 88.4318 71.4467 88.4542 71.4413C91.0069 70.7943 91.8908 69.4578 91.8979 69.4436C91.9104 69.4239 91.9267 69.4068 91.9459 69.3934C91.965 69.38 91.9866 69.3704 92.0094 69.3654C92.0322 69.3603 92.0558 69.3597 92.0788 69.3637C92.1019 69.3678 92.1239 69.3763 92.1436 69.3888C92.1633 69.4014 92.1804 69.4177 92.1939 69.4368C92.2073 69.456 92.2168 69.4775 92.2219 69.5004C92.227 69.5232 92.2275 69.5468 92.2235 69.5698C92.2195 69.5928 92.211 69.6148 92.1984 69.6346C92.1595 69.6947 91.2403 71.0983 88.5426 71.7842L88.4966 71.7878Z" fill="white"/>
<path d="M47.536 70.5044C47.536 70.5044 44.1453 69.677 43.9685 63.327C43.7811 56.4749 44.7994 48.4773 40.7865 47.8303C36.7735 47.1832 34.546 52.073 34.5955 57.7831C34.6415 62.7825 36.6568 73.637 47.5219 75.7654L47.536 70.5044Z" fill="#D92B67"/>
<path opacity="0.2" d="M47.536 70.5044C47.536 70.5044 44.1453 69.677 43.9685 63.327C43.7811 56.4749 44.7994 48.4773 40.7865 47.8303C36.7735 47.1832 34.546 52.073 34.5955 57.7831C34.6415 62.7825 36.6568 73.637 47.5219 75.7654L47.536 70.5044Z" fill="black"/>
<path d="M47.5363 75.1148H47.5045C45.0614 74.6693 43.0708 73.3222 41.5894 71.116C37.1981 64.5644 38.5805 52.3311 39.0366 50.1956C39.0468 50.1501 39.0742 50.1103 39.1131 50.0846C39.152 50.0589 39.1994 50.0492 39.2452 50.0577C39.291 50.0687 39.3308 50.0968 39.3565 50.1362C39.3821 50.1757 39.3917 50.2235 39.3831 50.2698C38.9341 52.3912 37.5587 64.469 41.8828 70.918C42.5122 71.9181 43.3426 72.7765 44.3213 73.4387C45.3 74.1009 46.4057 74.5524 47.5681 74.7648C47.5912 74.769 47.6132 74.7778 47.6328 74.7906C47.6525 74.8034 47.6694 74.82 47.6825 74.8394C47.6957 74.8588 47.7049 74.8807 47.7095 74.9037C47.7142 74.9267 47.7142 74.9504 47.7096 74.9734C47.702 75.0136 47.6805 75.0499 47.6488 75.0758C47.6171 75.1017 47.5772 75.1155 47.5363 75.1148Z" fill="white"/>
<path d="M47.5362 91.4107C44.0324 91.8844 38.3435 91.8774 35.0589 89.2893C31.7743 86.7012 32.4602 84.4737 33.7224 83.5438C34.9847 82.614 36.0807 81.5533 33.9098 79.4885C31.7389 77.4236 28.2528 74.1072 27.1214 69.1325C25.99 64.1579 26.5486 61.0465 28.769 60.0106C30.9222 59.0065 31.4914 60.6046 32.8102 63.8998C34.129 67.195 37.0954 64.37 39.634 65.3989C42.1726 66.4278 42.0701 68.4643 42.2292 70.2145C42.3883 71.9646 43.2262 72.449 44.6653 72.449C46.1043 72.449 47.5362 73.2763 47.5362 74.9239V91.4107Z" fill="#D92B67"/>
<path d="M47.5362 85.6334C47.5211 85.6368 47.5054 85.6368 47.4903 85.6334C47.3382 85.591 43.7142 84.5374 38.4355 79.69C32.8138 74.528 30.1621 66.7849 30.1338 66.7071C30.1202 66.6626 30.1244 66.6145 30.1455 66.573C30.1666 66.5315 30.203 66.4997 30.2469 66.4844C30.291 66.4697 30.3391 66.473 30.3808 66.4935C30.4225 66.514 30.4544 66.5501 30.4697 66.594C30.4944 66.6718 33.1214 74.33 38.6759 79.4284C43.8804 84.2121 47.5468 85.2834 47.5857 85.294C47.608 85.3005 47.6288 85.3113 47.6469 85.3259C47.665 85.3404 47.6801 85.3584 47.6912 85.3787C47.7024 85.3991 47.7094 85.4214 47.712 85.4445C47.7145 85.4676 47.7124 85.4909 47.7059 85.5132C47.6945 85.5489 47.6717 85.58 47.6411 85.6016C47.6105 85.6233 47.5737 85.6345 47.5362 85.6334Z" fill="white"/>
<path d="M39.9099 80.9203C39.8744 80.9209 39.8396 80.9102 39.8104 80.8899C39.7812 80.8696 39.7592 80.8407 39.7473 80.8072C38.6124 77.8938 38.3543 71.6604 38.333 71.3953C38.3321 71.3486 38.3492 71.3034 38.3808 71.2691C38.4125 71.2348 38.4562 71.2142 38.5028 71.2114C38.5489 71.2121 38.5932 71.2298 38.6272 71.2611C38.6611 71.2924 38.6823 71.3352 38.6866 71.3811C38.6866 71.4448 38.9518 77.8195 40.0655 80.6799C40.074 80.7017 40.0781 80.725 40.0776 80.7484C40.077 80.7718 40.0718 80.7948 40.0623 80.8162C40.0527 80.8376 40.0391 80.8569 40.022 80.8729C40.005 80.889 39.9849 80.9015 39.963 80.9097C39.9459 80.9158 39.928 80.9194 39.9099 80.9203Z" fill="white"/>
<path d="M39.8815 85.1101C39.5555 85.1126 39.2297 85.0961 38.9056 85.0606C38.8824 85.0578 38.86 85.0505 38.8396 85.039C38.8192 85.0275 38.8013 85.0122 38.7868 84.9938C38.7724 84.9754 38.7617 84.9544 38.7554 84.9319C38.7491 84.9093 38.7473 84.8858 38.75 84.8626C38.7528 84.8394 38.7602 84.8169 38.7716 84.7965C38.7831 84.7762 38.7984 84.7582 38.8168 84.7438C38.8352 84.7293 38.8563 84.7187 38.8788 84.7124C38.9013 84.706 38.9248 84.7042 38.948 84.707C38.9799 84.707 42.2716 85.0818 43.7813 83.5438C43.797 83.5252 43.8164 83.51 43.8382 83.4993C43.8601 83.4885 43.8839 83.4824 43.9083 83.4813C43.9326 83.4802 43.9569 83.4841 43.9797 83.4928C44.0024 83.5015 44.0231 83.5149 44.0404 83.532C44.0578 83.5491 44.0714 83.5696 44.0805 83.5922C44.0895 83.6148 44.0938 83.6391 44.093 83.6634C44.0923 83.6878 44.0865 83.7117 44.076 83.7337C44.0656 83.7557 44.0507 83.7753 44.0323 83.7913C42.9398 84.9191 41.0341 85.1101 39.8815 85.1101Z" fill="white"/>
<path d="M37.3361 18.1591L36.9543 15.9564L34.9885 17.2505C34.8088 16.8969 34.5542 16.5868 34.2424 16.3418L35.1829 13.7961L33.4151 13.4037L32.1211 15.8786C31.6529 15.9576 31.1989 16.1054 30.774 16.3171L30.2118 14.4502L28.1116 16.1014L28.2495 18.2935C27.8218 18.7726 27.434 19.2858 27.0898 19.828L25.3574 19.7396L24.1411 22.4655L25.6296 23.102C25.4742 23.6658 25.3759 24.2438 25.3362 24.8274L23.4446 26.5669L23.8229 28.7731L25.7922 27.4791C25.9708 27.8323 26.2256 28.1415 26.5383 28.3842L25.6155 30.9334L27.3833 31.3223L29.236 29.5192C29.6638 29.452 29.5577 28.6459 30.0244 28.416L30.5866 30.2758L32.6832 28.6282L32.6302 27.7655C33.0545 27.2917 34.6596 26.2487 35.0061 25.7042L35.441 24.9971L36.6573 22.2711L36.0916 21.2457L35.4622 19.9093L37.3361 18.1591ZM30.9189 25.4107C29.3067 26.6765 28.7975 26.9558 28.5253 25.2622C28.2531 23.5687 29.1759 20.9947 30.7881 19.7254C32.4004 18.4561 33.0156 18.3677 33.3055 20.0578C33.5954 21.7478 32.5347 24.1591 30.9189 25.4107Z" fill="#E0E0E0"/>
<path d="M33.4293 13.4037L35.7239 14.726L34.4299 17.1939L32.1353 15.8716L33.4293 13.4037Z" fill="#F5F5F5"/>
<path d="M39.249 17.2788L37.2832 18.5728L34.9885 17.2505L36.9543 15.9564L39.249 17.2788Z" fill="#F5F5F5"/>
<path d="M38.934 23.5828L37.4455 22.9499L35.1509 21.6276L36.6394 22.2604L38.934 23.5828Z" fill="#E0E0E0"/>
<path d="M25.6118 30.9334L27.9064 32.2522L28.8469 29.7065L26.5523 28.3842L25.6118 30.9334Z" fill="#E0E0E0"/>
<path d="M32.8599 31.5981L30.5688 30.2758L30.0066 28.416L32.3012 29.7383L32.8599 31.5981Z" fill="#E0E0E0"/>
<path d="M39.6273 19.4814L39.249 17.2787L37.2832 18.5727C37.1022 18.219 36.8465 17.909 36.5336 17.6641L37.4741 15.1184L35.7239 14.726L34.4264 17.2009C33.9582 17.2799 33.5043 17.4276 33.0793 17.6393L32.5206 15.7796L30.4205 17.4307L30.5584 19.6228C30.1302 20.1053 29.7423 20.622 29.3987 21.1679L27.6627 21.0795L26.4464 23.8055L27.9349 24.4419C27.7809 25.0073 27.6826 25.5863 27.6415 26.1708L25.7534 27.8856L26.1317 30.0919L28.0976 28.7978C28.2785 29.1505 28.5343 29.4594 28.8471 29.7029L27.9066 32.2486L29.6744 32.6411L30.9685 30.1661C31.4385 30.088 31.8939 29.939 32.3191 29.7242L32.8777 31.5839L34.9779 29.9363L34.84 27.7442C35.2677 27.2651 35.6556 26.7519 35.9997 26.2097L37.7357 26.2946L38.952 23.5686L37.4423 22.9357C37.5988 22.3708 37.6983 21.7916 37.7393 21.2068L39.6273 19.4814ZM33.2172 26.7471C31.6084 28.0129 30.0669 27.67 29.7734 25.9799C29.48 24.2899 30.5513 21.8892 32.1635 20.6234C33.7758 19.3577 35.3138 19.7041 35.6073 21.3942C35.9007 23.0842 34.8294 25.4814 33.2172 26.7471Z" fill="#EBEBEB"/>
<path d="M32.5205 15.7725L30.2259 14.4502L28.1257 16.1013L30.4204 17.4237L32.5205 15.7725Z" fill="#F5F5F5"/>
<path d="M28.1257 16.1013L28.2636 18.2934L30.5583 19.6158L30.4204 17.4237L28.1257 16.1013Z" fill="#E0E0E0"/>
<path d="M29.3984 21.1502L27.1038 19.8279L25.3713 19.743L27.6624 21.0654L29.3984 21.1502Z" fill="#F5F5F5"/>
<path d="M25.3715 19.743L24.1553 22.4655L26.4464 23.7878L27.6626 21.0654L25.3715 19.743Z" fill="#E0E0E0"/>
<path d="M27.6414 26.1496L25.3503 24.8273L23.4587 26.5668L25.7498 27.8891L27.6414 26.1496Z" fill="#F5F5F5"/>
<path d="M26.1317 30.0955L23.8371 28.7731L23.4587 26.5669L25.7498 27.8892L26.1317 30.0955Z" fill="#E0E0E0"/>
<path d="M35.7238 14.726L33.4292 13.4037L35.1829 13.7961L37.474 15.1185L35.7238 14.726Z" fill="#F5F5F5"/>
<path d="M27.0617 8.16027V4.86859L24.4418 6.04949C24.303 5.49102 24.0634 4.9626 23.7346 4.49027L25.3858 1.16323L23.3705 0L21.3127 3.09369C20.7393 3.04359 20.1615 3.09993 19.6085 3.25987L19.3186 0.39953L16.4689 2.04714L16.1825 5.22922C15.5623 5.77877 14.992 6.38219 14.4783 7.0324L12.4206 6.32527L10.4053 9.81849L12.0529 11.2327C11.7484 12.0026 11.5118 12.7976 11.3457 13.6087L8.72583 15.4508V18.746L11.3457 17.5651C11.4845 18.1236 11.7242 18.652 12.0529 19.1243L10.4123 22.4549L12.4276 23.6181L14.4854 20.5244C15.0588 20.5744 15.6366 20.518 16.1896 20.3582L16.476 23.2186L19.3257 21.571L19.6156 18.3889C20.5051 18.0644 21.293 17.5106 21.8996 16.7837L23.3775 17.3035L25.3929 13.8138L24.1554 12.7531C24.424 11.8686 24.5236 10.9414 24.4488 10.02L27.0617 8.16027ZM17.8938 16.3842C15.7087 17.6464 14.3581 16.7377 14.3581 14.2239C14.3581 11.7101 16.1648 8.60223 18.3534 7.34C20.542 6.07778 21.8643 6.98644 21.8643 9.52149C21.8643 12.0566 20.0823 15.1184 17.8938 16.3842Z" fill="#E0E0E0"/>
<path d="M25.6613 1.3188L23.3702 0L21.3125 3.09369L23.6036 4.41602L25.6613 1.3188Z" fill="#F5F5F5"/>
<path d="M29.356 6.19098L27.0613 4.86865L24.4414 6.04956L26.736 7.37189L29.356 6.19098Z" fill="#F5F5F5"/>
<path d="M18.7599 24.5409L16.4688 23.2186L16.1824 20.3583L18.4735 21.6806L18.7599 24.5409Z" fill="#E0E0E0"/>
<path d="M10.4014 22.4549L12.696 23.7772L14.3471 20.4501L12.0525 19.1278L10.4014 22.4549Z" fill="#E0E0E0"/>
<path d="M29.3559 9.50022V6.20853L26.736 7.37883C26.5986 6.81985 26.3589 6.29118 26.0288 5.81961L27.68 2.49257L25.6647 1.32581L23.6069 4.42303C23.0335 4.37119 22.4554 4.42756 21.9027 4.58921L21.6128 1.7218L18.7631 3.36941L18.4732 6.55149C17.8539 7.10196 17.2836 7.7053 16.769 8.35467L14.7112 7.64754L12.6959 11.1408L14.3471 12.555C14.041 13.3243 13.8044 14.1195 13.6399 14.931L11.02 16.773V20.0683L13.6399 18.8874C13.7772 19.4464 14.0169 19.9751 14.3471 20.4466L12.6959 23.7736L14.7112 24.9368L16.769 21.8432C17.3424 21.8933 17.9202 21.8369 18.4732 21.677L18.7631 24.5373L21.6128 22.8897L21.8992 19.7076C22.5194 19.1581 23.0897 18.5547 23.6034 17.9044L25.6611 18.6116L27.6764 15.1219L26.0253 13.7076C26.3313 12.9383 26.5679 12.1431 26.7324 11.3317L29.3559 9.50022ZM20.1879 17.7241C17.9994 18.9864 16.2245 17.961 16.2245 15.4366C16.2245 12.9121 17.9923 9.83964 20.1879 8.57388C22.3836 7.30812 24.1479 8.33699 24.1479 10.8614C24.1479 13.3859 22.373 16.4407 20.1879 17.7065V17.7241Z" fill="#EBEBEB"/>
<path d="M14.4779 7.03939L16.769 8.36172L14.7113 7.64398L12.4202 6.31812L14.4779 7.03939Z" fill="#F0F0F0"/>
<path d="M12.4202 6.32176L10.4043 9.81616L12.6982 11.1395L14.714 7.64506L12.4202 6.32176Z" fill="#F5F5F5"/>
<path d="M10.4014 9.8114L12.696 11.1337L14.3471 12.5551L12.0525 11.2363L10.4014 9.8114Z" fill="#E0E0E0"/>
<path d="M11.3455 13.6123L13.6401 14.9346L11.0202 16.7767L8.72559 15.4544L11.3455 13.6123Z" fill="#F5F5F5"/>
<path d="M8.72559 15.4542L11.0202 16.7766V20.0718L8.72559 18.7494V15.4542Z" fill="#E0E0E0"/>
<path d="M21.6131 1.72187L19.3185 0.399536L16.4688 2.04715L18.7598 3.36948L21.6131 1.72187Z" fill="#F5F5F5"/>
<path d="M51.0297 96.1413L84.2647 76.9498C84.338 76.9241 84.4014 76.8762 84.4462 76.8129C84.4911 76.7496 84.5152 76.6739 84.5152 76.5962C84.5152 76.5186 84.4911 76.4429 84.4462 76.3796C84.4014 76.3163 84.338 76.2684 84.2647 76.2427L81.1923 74.4749C81.0019 74.3791 80.7919 74.3292 80.5788 74.3292C80.3658 74.3292 80.1557 74.3791 79.9654 74.4749L46.7197 93.6487C46.6465 93.6744 46.5831 93.7222 46.5382 93.7856C46.4933 93.8489 46.4692 93.9246 46.4692 94.0022C46.4692 94.0798 46.4933 94.1555 46.5382 94.2189C46.5831 94.2822 46.6465 94.3301 46.7197 94.3558L49.8028 96.1236C49.9917 96.2221 50.2011 96.275 50.4141 96.2781C50.6272 96.2812 50.838 96.2343 51.0297 96.1413Z" fill="#E0E0E0"/>
<path d="M83.3526 2.8533L53.3844 20.1568C52.939 20.4475 52.5682 20.8391 52.3022 21.2998C52.0363 21.7605 51.8825 22.2773 51.8535 22.8085V93.8997C51.8535 94.8756 52.5394 95.2715 53.3844 94.7836L83.3526 77.4802C83.7986 77.1901 84.1699 76.7986 84.4359 76.3378C84.702 75.877 84.8553 75.3598 84.8835 74.8284V3.73722C84.8835 2.76138 84.2011 2.36539 83.3526 2.8533Z" fill="#455A64"/>
<path d="M53.384 20.1566L83.3522 2.85319C84.1088 2.41477 84.7346 2.68701 84.8619 3.44718C84.7912 2.96924 84.6201 2.51169 84.3599 2.10462C84.0997 1.69755 83.7563 1.35018 83.3522 1.08537L82.1076 0.378236C81.6332 0.13753 81.1087 0.012085 80.5767 0.012085C80.0447 0.012085 79.5202 0.13753 79.0458 0.378236L49.0741 17.6675C48.6227 17.9506 48.2504 18.3435 47.9922 18.8096L52.3021 21.2845C52.5603 20.8222 52.9328 20.4338 53.384 20.1566Z" fill="#37474F"/>
<path d="M47.5361 91.4107C47.5652 91.9418 47.7189 92.4587 47.9849 92.9194C48.2508 93.3801 48.6216 93.7717 49.0671 94.0624L50.3152 94.7695C50.7471 94.9856 51.2199 95.108 51.7024 95.1287C52.185 95.1495 52.6665 95.068 53.1154 94.8897C52.4083 95.1655 51.8461 94.7589 51.8461 93.8856V22.8085C51.8638 22.2751 52.0184 21.7552 52.2951 21.2988L47.9852 18.8239C47.7123 19.2768 47.5579 19.7911 47.5361 20.3194V91.4107Z" fill="#263238"/>
<path d="M54.208 29.6287L82.5391 13.2763C83.0482 12.9864 83.4584 13.2233 83.4584 13.8067V66.4241C83.4414 66.743 83.3492 67.0534 83.1895 67.3299C83.0297 67.6064 82.8069 67.8412 82.5391 68.0152L54.2186 84.3675C53.7094 84.661 53.2993 84.4241 53.2993 83.8372V31.2197C53.3154 30.9018 53.406 30.5922 53.5639 30.3158C53.7217 30.0394 53.9424 29.804 54.208 29.6287Z" fill="white"/>
<path d="M68.3685 14.1991C68.2121 14.3018 68.082 14.4397 67.9887 14.6019C67.8953 14.764 67.8413 14.9457 67.8311 15.1325C67.8311 15.4861 68.0715 15.6169 68.3685 15.4437C68.5255 15.3416 68.656 15.2038 68.7494 15.0416C68.8428 14.8793 68.8965 14.6973 68.9059 14.5103C68.9059 14.1673 68.6655 14.0294 68.3685 14.1991Z" fill="#37474F"/>
<path d="M68.3682 78.707C67.7501 79.1113 67.236 79.6556 66.8674 80.2956C66.4989 80.9357 66.2863 81.6536 66.2468 82.3911C66.2468 83.7453 67.1979 84.2968 68.3682 83.618C68.9861 83.2134 69.5001 82.6691 69.8686 82.0291C70.2372 81.3891 70.4499 80.6713 70.4896 79.9338C70.4967 78.5797 69.542 78.0281 68.3682 78.707Z" fill="#37474F"/>
<path d="M63.2807 19.6723C62.9699 19.8785 62.712 20.155 62.5278 20.4792C62.3435 20.8035 62.2381 21.1666 62.22 21.5391C62.22 22.225 62.7008 22.5043 63.2807 22.1614C63.5947 21.9571 63.856 21.6815 64.0434 21.3571C64.2308 21.0327 64.3389 20.6686 64.359 20.2945C64.359 19.6086 63.8782 19.3293 63.2807 19.6723Z" fill="#37474F"/>
<path d="M65.9216 19.439C65.9216 19.8987 66.2752 20.0719 66.6889 19.828L73.7602 15.7372C73.9792 15.6004 74.1629 15.4138 74.2962 15.1927C74.4295 14.9715 74.5087 14.722 74.5274 14.4644C74.5274 14.0083 74.1738 13.835 73.7602 14.079L66.6889 18.1697C66.4703 18.3062 66.2869 18.4922 66.1536 18.7127C66.0203 18.9333 65.9408 19.1821 65.9216 19.439Z" fill="#37474F"/>
<path d="M49.9265 31.9057C50.1774 32.0691 50.3863 32.2894 50.5362 32.5486C50.6861 32.8078 50.7728 33.0987 50.7892 33.3977C50.7892 33.9493 50.4039 34.172 49.9265 33.8962C49.6765 33.7322 49.4685 33.5117 49.3192 33.2525C49.17 32.9934 49.0837 32.7028 49.0674 32.4042C49.0674 31.8562 49.4528 31.6334 49.9265 31.9057Z" fill="#37474F"/>
<path d="M49.9265 38.5455C50.1774 38.709 50.3863 38.9292 50.5362 39.1885C50.6861 39.4477 50.7728 39.7386 50.7892 40.0376C50.7892 40.5856 50.4039 40.8084 49.9265 40.5361C49.6765 40.3721 49.4685 40.1516 49.3192 39.8924C49.17 39.6333 49.0837 39.3427 49.0674 39.0441C49.0674 38.4925 49.4528 38.2698 49.9265 38.5455Z" fill="#37474F"/>
<path d="M49.6576 32.0402C49.9085 32.2036 50.1174 32.4238 50.2673 32.6831C50.4172 32.9423 50.5039 33.2332 50.5203 33.5322C50.5203 34.0802 50.1349 34.303 49.6576 34.0307C49.4067 33.8673 49.1978 33.647 49.048 33.3878C48.8981 33.1286 48.8114 32.8377 48.7949 32.5387C48.7985 31.9871 49.1838 31.775 49.6576 32.0402Z" fill="#455A64"/>
<path d="M49.6576 38.6764C49.909 38.8402 50.1181 39.061 50.2681 39.3209C50.418 39.5808 50.5044 39.8724 50.5203 40.172C50.5203 40.72 50.1349 40.9428 49.6576 40.667C49.4061 40.5042 49.1968 40.2841 49.0468 40.0247C48.8969 39.7653 48.8105 39.4741 48.7949 39.1749C48.7985 38.6269 49.1838 38.4042 49.6576 38.6764Z" fill="#455A64"/>
<path d="M89.1935 15.472C89.1935 14.8851 88.7833 14.6482 88.2742 14.9417L84.8835 16.8969L59.9537 31.2941C59.6859 31.468 59.4631 31.7029 59.3033 31.9794C59.1435 32.2559 59.0514 32.5662 59.0344 32.8851V85.4884C59.0344 86.0753 59.4446 86.3122 59.9537 86.0188L84.8941 71.6181L88.2742 69.6664C88.542 69.4924 88.7648 69.2576 88.9246 68.9811C89.0843 68.7046 89.1765 68.3943 89.1935 68.0754V15.472Z" fill="white"/>
<path d="M89.5468 15.472C89.5691 15.2947 89.5385 15.1148 89.4591 14.9547C89.3796 14.7947 89.2547 14.6616 89.1 14.5722C88.9453 14.4827 88.7676 14.4409 88.5893 14.4519C88.4109 14.4629 88.2397 14.5263 88.0972 14.6341L84.8621 16.5044L59.7767 31.0006C59.4537 31.2044 59.1852 31.4838 58.9942 31.8146C58.8033 32.1453 58.6957 32.5176 58.6806 32.8992V85.4884C58.6664 85.6649 58.7004 85.842 58.7788 86.0007C58.8573 86.1595 58.9773 86.294 59.1261 86.39C59.2527 86.4636 59.3969 86.5015 59.5433 86.4996C59.7506 86.4931 59.9527 86.4335 60.1303 86.3263L85.2333 71.8302L88.4614 69.9669C88.7825 69.7611 89.0496 69.4812 89.2403 69.1509C89.431 68.8205 89.5398 68.4493 89.5574 68.0683L89.5468 15.472ZM84.8692 71.2256L84.5792 71.3953L59.7908 85.7076C59.7492 85.7396 59.7009 85.7619 59.6495 85.7729C59.5981 85.784 59.545 85.7834 59.4938 85.7712C59.4479 85.743 59.4019 85.644 59.4019 85.4813V32.8851C59.4202 32.6283 59.4966 32.3791 59.6252 32.1562C59.7538 31.9333 59.9313 31.7424 60.1444 31.5981L84.9081 17.2787L88.4437 15.2316C88.4854 15.1996 88.5336 15.1773 88.585 15.1662C88.6364 15.1552 88.6896 15.1558 88.7407 15.1679C88.7867 15.1962 88.8326 15.2952 88.8326 15.4579V68.0753C88.8143 68.3321 88.738 68.5813 88.6094 68.8042C88.4808 69.0271 88.3032 69.218 88.0901 69.3623L84.8621 71.2256H84.8692Z" fill="#D92B67"/>
<path d="M74.1141 27.6948C77.2962 25.8633 79.8595 27.3412 79.8595 31.0147C79.8595 34.6883 77.2855 39.1467 74.1141 40.964C70.9426 42.7814 68.3687 41.3176 68.3687 37.6476C68.3687 33.9776 70.9426 29.5298 74.1141 27.6948Z" fill="#D92B67"/>
<path d="M74.1138 30.5799C75.1427 29.9859 75.9771 30.4667 75.9771 31.6406C75.9421 32.2872 75.7552 32.9165 75.4314 33.4774C75.1077 34.0383 74.6563 34.5149 74.1138 34.8686C73.0849 35.4626 72.2505 34.9817 72.2505 33.8079C72.2854 33.1612 72.4724 32.5319 72.7961 31.9711C73.1199 31.4102 73.5713 30.9336 74.1138 30.5799Z" fill="#D92B67"/>
<path d="M77.745 36.9156C77.745 34.9639 76.3767 34.1719 74.6831 35.1478L73.6224 35.7594C71.9324 36.7353 70.5605 39.1112 70.5605 41.0629V41.5897C71.5399 41.9115 72.7703 41.7382 74.0962 40.9639C75.5649 40.0579 76.807 38.828 77.7273 37.3682L77.745 36.9156Z" fill="#D92B67"/>
<path opacity="0.7" d="M74.1138 30.5799C75.1427 29.9859 75.9771 30.4667 75.9771 31.6406C75.9421 32.2872 75.7552 32.9165 75.4314 33.4774C75.1077 34.0383 74.6563 34.5149 74.1138 34.8686C73.0849 35.4626 72.2505 34.9817 72.2505 33.8079C72.2854 33.1612 72.4724 32.5319 72.7961 31.9711C73.1199 31.4102 73.5713 30.9336 74.1138 30.5799Z" fill="white"/>
<path opacity="0.7" d="M77.745 36.9156C77.745 34.9639 76.3767 34.1719 74.6831 35.1478L73.6224 35.7594C71.9324 36.7353 70.5605 39.1112 70.5605 41.0629V41.5897C71.5399 41.9115 72.7703 41.7382 74.0962 40.9639C75.5649 40.0579 76.807 38.828 77.7273 37.3682L77.745 36.9156Z" fill="white"/>
<path d="M62.9977 49.0429L70.3907 44.7754C70.7443 44.5809 71.0024 44.7365 71.0024 45.129V45.3729C70.9912 45.5854 70.9299 45.7922 70.8236 45.9766C70.7173 46.1609 70.569 46.3175 70.3907 46.4336L62.9977 50.7011C62.6618 50.8956 62.386 50.7365 62.386 50.3476V50.1036C62.3975 49.8912 62.4588 49.6845 62.5651 49.5002C62.6714 49.3159 62.8195 49.1593 62.9977 49.0429Z" fill="#D92B67"/>
<path opacity="0.1" d="M62.9977 49.0429L70.3907 44.7754C70.7443 44.5809 71.0024 44.7365 71.0024 45.129V45.3729C70.9912 45.5854 70.9299 45.7922 70.8236 45.9766C70.7173 46.1609 70.569 46.3175 70.3907 46.4336L62.9977 50.7011C62.6618 50.8956 62.386 50.7365 62.386 50.3476V50.1036C62.3975 49.8912 62.4588 49.6845 62.5651 49.5002C62.6714 49.3159 62.8195 49.1593 62.9977 49.0429Z" fill="black"/>
<path d="M62.6936 54.1945L85.0601 41.2823C85.2263 41.1833 85.3641 41.2611 85.3641 41.4591V44.0684C85.3579 44.1743 85.3272 44.2773 85.2745 44.3693C85.2217 44.4613 85.1483 44.5399 85.0601 44.5987L62.6936 57.5109C62.5239 57.6099 62.386 57.5286 62.386 57.3341V54.7248C62.3921 54.6185 62.4231 54.5151 62.4765 54.4229C62.5299 54.3308 62.6043 54.2525 62.6936 54.1945Z" fill="#D92B67"/>
<path opacity="0.2" d="M62.6936 54.1945L85.0601 41.2823C85.2263 41.1833 85.3641 41.2611 85.3641 41.4591V44.0684C85.3579 44.1743 85.3272 44.2773 85.2745 44.3693C85.2217 44.4613 85.1483 44.5399 85.0601 44.5987L62.6936 57.5109C62.5239 57.6099 62.386 57.5286 62.386 57.3341V54.7248C62.3921 54.6185 62.4231 54.5151 62.4765 54.4229C62.5299 54.3308 62.6043 54.2525 62.6936 54.1945Z" fill="white"/>
<path d="M62.9977 60.6504L70.3907 56.3829C70.7443 56.1885 71.0024 56.3476 71.0024 56.7365V56.9804C70.9914 57.193 70.9303 57.3999 70.824 57.5843C70.7177 57.7687 70.5692 57.9252 70.3907 58.0411L62.9977 62.3087C62.6618 62.5067 62.386 62.3475 62.386 61.9551V61.7111C62.398 61.4989 62.4596 61.2923 62.5658 61.1081C62.672 60.9239 62.8199 60.7672 62.9977 60.6504Z" fill="#D92B67"/>
<path opacity="0.1" d="M62.9977 60.6504L70.3907 56.3829C70.7443 56.1885 71.0024 56.3476 71.0024 56.7365V56.9804C70.9914 57.193 70.9303 57.3999 70.824 57.5843C70.7177 57.7687 70.5692 57.9252 70.3907 58.0411L62.9977 62.3087C62.6618 62.5067 62.386 62.3475 62.386 61.9551V61.7111C62.398 61.4989 62.4596 61.2923 62.5658 61.1081C62.672 60.9239 62.8199 60.7672 62.9977 60.6504Z" fill="black"/>
<path d="M62.6936 65.8019L85.0601 52.8897C85.2263 52.7907 85.3641 52.872 85.3641 53.0665V55.6758C85.3579 55.7817 85.3272 55.8847 85.2745 55.9767C85.2217 56.0687 85.1483 56.1473 85.0601 56.2061L62.6936 69.1183C62.5239 69.2173 62.386 69.1395 62.386 68.9415V66.3322C62.3921 66.2259 62.4231 66.1225 62.4765 66.0303C62.5299 65.9382 62.6043 65.8599 62.6936 65.8019Z" fill="#D92B67"/>
<path opacity="0.2" d="M62.6936 65.8019L85.0601 52.8897C85.2263 52.7907 85.3641 52.872 85.3641 53.0665V55.6758C85.3579 55.7817 85.3272 55.8847 85.2745 55.9767C85.2217 56.0687 85.1483 56.1473 85.0601 56.2061L62.6936 69.1183C62.5239 69.2173 62.386 69.1395 62.386 68.9415V66.3322C62.3921 66.2259 62.4231 66.1225 62.4765 66.0303C62.5299 65.9382 62.6043 65.8599 62.6936 65.8019Z" fill="white"/>
<path d="M71.6141 67.2833L80.4532 62.1885C80.8068 61.9905 81.0684 62.1496 81.0684 62.542V65.2715C81.0568 65.4843 80.9951 65.6914 80.8881 65.8757C80.7812 66.0601 80.6322 66.2165 80.4532 66.3322L71.6141 71.4306C71.2605 71.6251 71.0024 71.466 71.0024 71.0771V68.344C71.0147 68.1318 71.0764 67.9254 71.1826 67.7412C71.2888 67.5571 71.4366 67.4003 71.6141 67.2833Z" fill="#D92B67"/>
<path opacity="0.1" d="M71.6141 67.2833L80.4532 62.1885C80.8068 61.9905 81.0684 62.1496 81.0684 62.542V65.2715C81.0568 65.4843 80.9951 65.6914 80.8881 65.8757C80.7812 66.0601 80.6322 66.2165 80.4532 66.3322L71.6141 71.4306C71.2605 71.6251 71.0024 71.466 71.0024 71.0771V68.344C71.0147 68.1318 71.0764 67.9254 71.1826 67.7412C71.2888 67.5571 71.4366 67.4003 71.6141 67.2833Z" fill="black"/>
<path d="M92.545 55.7641C92.545 55.7641 88.2032 49.7747 87.9486 49.0464C87.7471 48.509 87.9486 47.7099 88.0123 47.3387C88.0759 46.9674 88.1325 46.1401 88.1961 45.9244C88.3022 45.5213 87.7825 45.6027 87.489 45.9704C87.1955 46.3381 87.0965 47.0735 86.9445 47.1937C86.7925 47.3139 85.6363 45.6274 85.0317 44.8496C84.4271 44.0717 84.0488 43.598 83.6776 43.8879C83.4124 44.0965 83.6104 44.549 84.0488 45.2137C84.3049 45.5717 84.5409 45.9435 84.7559 46.3275C84.8231 46.4724 84.4625 46.483 84.268 46.7836C84.116 47.0169 84.268 47.3952 84.0559 47.5756C83.9253 47.6749 83.8359 47.8188 83.8046 47.9799C83.7733 48.1409 83.8023 48.3078 83.8862 48.4489C84.2797 49.0669 84.7873 49.6045 85.3818 50.0328C86.0323 50.4819 86.294 50.641 86.6793 51.2526C87.0647 51.8643 90.5226 58.1118 90.7559 58.4866C90.9893 58.8613 91.4383 59.625 92.1207 59.6463C92.8031 59.6675 98.3894 54.859 98.6758 54.6186C99.5951 53.8513 99.8885 53.7417 100.044 54.4312C100.098 54.6763 100.138 54.9241 100.164 55.1737C100.274 56.0505 100.871 59.1831 100.871 59.1831C100.871 59.1831 103.7 60.5514 106.023 59.8902C108.346 59.229 109.131 58.2426 109.131 58.2426L107.967 56.3475C108.282 55.5661 109.735 52.3982 110.206 50.1813L102.922 49.004C102.774 48.9721 102.533 48.912 102.215 48.8307C101.815 48.7246 100.801 48.3746 100.033 49.0464C97.5302 51.2279 92.5521 55.7641 92.5521 55.7641" fill="#FFA8A7"/>
<path d="M106.985 92.5137L105.68 94.3275C106.273 94.6043 106.921 94.7434 107.575 94.7341C108.745 94.7765 109.067 94.3805 109.11 94.3028C109.307 93.8785 109 93.1148 108.915 92.4572L106.985 92.5137Z" fill="#37474F"/>
<path d="M105.754 93.4577C105.754 93.4577 104.17 93.3552 103.078 93.2208C101.985 93.0864 101.119 93.6168 101.374 94.0658C101.628 94.5148 102.233 94.8896 103.173 95.2043C103.976 95.4765 104.941 95.671 105.776 95.9114C106.61 96.1518 107.19 96.4665 107.674 96.2968C108.215 96.1094 108.448 95.8937 108.402 95.4978C108.284 94.9345 108.138 94.3775 107.964 93.8289L105.754 93.4577Z" fill="#37474F"/>
<path d="M109.109 90.6929C109.109 90.6929 108.911 92.3405 108.897 92.694C108.883 93.0476 107.289 93.1608 106.985 92.5137L106.935 90.4984L109.109 90.6929Z" fill="#F28F8F"/>
<path d="M107.504 91.704L108.073 94.2072C108.073 94.2072 108.126 94.5113 106.825 94.7057C105.524 94.9002 103.481 94.0234 103.13 93.8466C102.78 93.6698 102.742 93.3127 104.021 93.3834C105.301 93.4541 105.754 93.4577 105.754 93.4577L105.337 92.351L107.504 91.704Z" fill="#FFA8A7"/>
<path d="M110.184 50.1601L111.086 49.9091C111.086 49.9091 112.97 55.8737 113.179 56.45C113.388 57.0263 113.624 57.6344 113.218 58.3451C112.733 59.1901 110.184 62.5879 110.184 62.5879L108.565 61.0039L110.403 57.638L108.777 54.3498L110.184 50.1601Z" fill="#F28F8F"/>
<path d="M100.924 42.4136C100.713 42.0168 100.606 41.5729 100.613 41.1233C100.619 40.6738 100.74 40.2334 100.963 39.8431C101.861 38.1779 103.863 37.3682 106.246 37.6758C107.349 37.8207 108.65 38.7365 109.361 40.1048C110.145 41.6216 110.22 44.6764 110.421 45.8325L100.924 42.4136Z" fill="#37474F"/>
<path d="M100.861 43.0676C100.861 43.0676 100.295 44.146 100.394 44.245C100.541 44.3306 100.701 44.3904 100.868 44.4218L100.861 43.0676Z" fill="#FFA8A7"/>
<path d="M102.579 39.6594C101.964 40.0589 100.903 40.7943 100.857 43.2162C100.808 45.6912 101.161 46.5079 101.529 46.7943C101.776 46.9888 103.23 46.8898 103.852 46.7448C104.474 46.5998 106.267 45.7124 106.914 44.3653C107.674 42.7813 107.518 40.4761 106.39 39.769C105.816 39.4295 105.166 39.2414 104.499 39.2222C103.832 39.203 103.172 39.3535 102.579 39.6594Z" fill="#FFA8A7"/>
<path d="M109.11 58.2285C110.199 59.9256 111.231 61.4106 111.457 63.3269C111.924 67.354 110.397 71.9574 110.068 74.938C110.686 75.7858 111.043 76.7961 111.093 77.8443C111.093 79.0782 109.11 90.6928 109.11 90.6928C109.11 90.6928 107.667 91.1312 106.935 90.4983L105.574 69.1324L106.281 66.5302L109.11 58.2285Z" fill="#D92B67"/>
<path opacity="0.2" d="M109.11 58.2285C110.199 59.9256 111.231 61.4106 111.457 63.3269C111.924 67.354 110.397 71.9574 110.068 74.938C110.686 75.7858 111.043 76.7961 111.093 77.8443C111.093 79.0782 109.11 90.6928 109.11 90.6928C109.11 90.6928 107.667 91.1312 106.935 90.4983L105.574 69.1324L106.281 66.5302L109.11 58.2285Z" fill="black"/>
<path d="M105.574 69.1324L106.281 66.5302C107.635 66.1738 108.941 65.655 110.17 64.9851C110.17 64.9851 109.435 66.3251 107.321 67.0605L106.228 70.4017L106.136 78.0564L105.574 69.1324Z" fill="#D92B67"/>
<path opacity="0.3" d="M105.574 69.1324L106.281 66.5302C107.635 66.1738 108.941 65.655 110.17 64.9851C110.17 64.9851 109.435 66.3251 107.321 67.0605L106.228 70.4017L106.136 78.0564L105.574 69.1324Z" fill="black"/>
<path d="M109.109 58.2285C109.693 59.1831 111.086 60.8095 110.789 62.3758C110.435 64.2709 109.41 65.6039 106.291 66.5302L103.364 77.1371C103.364 77.1371 104.888 78.5514 105.355 79.9197C105.821 81.288 107.504 91.7111 107.504 91.7111C107.504 91.7111 106.981 92.5632 105.337 92.3581C105.337 92.3581 99.6056 79.2762 99.2025 78.4241C98.7133 77.5612 98.5419 76.5541 98.7181 75.5779C98.8984 74.2061 100.84 59.1902 100.84 59.1902L109.109 58.2285Z" fill="#D92B67"/>
<path opacity="0.2" d="M109.109 58.2285C109.693 59.1831 111.086 60.8095 110.789 62.3758C110.435 64.2709 109.41 65.6039 106.291 66.5302L103.364 77.1371C103.364 77.1371 104.888 78.5514 105.355 79.9197C105.821 81.288 107.504 91.7111 107.504 91.7111C107.504 91.7111 106.981 92.5632 105.337 92.3581C105.337 92.3581 99.6056 79.2762 99.2025 78.4241C98.7133 77.5612 98.5419 76.5541 98.7181 75.5779C98.8984 74.2061 100.84 59.1902 100.84 59.1902L109.109 58.2285Z" fill="black"/>
<path d="M110.184 50.1602L102.901 48.9828C102.752 48.951 102.512 48.8909 102.194 48.8096C102.194 48.8096 101.883 53.3776 100.012 54.4242C100.058 54.6434 100.097 54.8873 100.132 55.1667C100.242 56.0435 100.84 59.1761 100.84 59.1761C100.84 59.1761 103.668 60.5444 105.991 59.8832C108.314 59.222 109.099 58.2356 109.099 58.2356L107.936 56.3405C108.261 55.552 109.725 52.3841 110.184 50.1602Z" fill="#D92B67"/>
<path opacity="0.7" d="M110.184 50.1602L102.901 48.9828C102.752 48.951 102.512 48.8909 102.194 48.8096C102.194 48.8096 101.883 53.3776 100.012 54.4242C100.058 54.6434 100.097 54.8873 100.132 55.1667C100.242 56.0435 100.84 59.1761 100.84 59.1761C100.84 59.1761 103.668 60.5444 105.991 59.8832C108.314 59.222 109.099 58.2356 109.099 58.2356L107.936 56.3405C108.261 55.552 109.725 52.3841 110.184 50.1602Z" fill="white"/>
<path d="M108.264 55.5873C107.297 56.1681 106.284 56.6683 105.234 57.0829C106.187 57.0639 107.119 56.8061 107.946 56.3333L108.264 55.5873Z" fill="#D92B67"/>
<path d="M102.399 39.7795C102.399 39.7795 102.045 42.0777 102.88 43.4283C102.88 43.4283 103.191 42.5126 103.965 42.6858C104.739 42.859 104.782 43.8808 104.237 44.4536C104.099 44.6143 103.918 44.7327 103.715 44.7952C103.513 44.8578 103.297 44.8619 103.092 44.8072C103.092 44.8072 102.968 46.4689 102.901 47.862C102.834 49.255 102.466 52.2921 104.032 53.519C105.599 54.7459 109.53 55.1772 111.372 52.6033C112.398 51.1713 111.036 48.6398 110.404 45.8007C109.82 43.1914 109.491 39.3234 106.723 38.7011C103.955 38.0789 102.399 39.7795 102.399 39.7795Z" fill="#37474F"/>
<path d="M112.557 8.37948L111.973 8.73304C112.022 8.52547 112.05 8.31337 112.055 8.10016C112.055 6.91572 111.224 6.43841 110.199 7.03947C109.886 7.22769 109.608 7.46668 109.375 7.7466C109.375 6.15556 108.257 5.50853 106.879 6.30405C106.152 6.77793 105.547 7.41641 105.114 8.1677C104.68 8.91899 104.429 9.76193 104.382 10.6281C104.382 10.7095 104.382 10.7873 104.382 10.865C104.027 10.8203 103.668 10.903 103.368 11.0984C102.827 11.4504 102.378 11.9249 102.055 12.4834C101.733 13.0418 101.546 13.6684 101.511 14.3123C101.511 14.462 101.527 14.6113 101.557 14.7578L101.246 14.9381C100.401 15.426 99.7153 16.3771 99.7153 17.0595C99.7153 17.7419 100.401 17.9045 101.246 17.4131L112.56 10.8898C113.405 10.4019 114.091 9.45078 114.091 8.7684C114.091 8.08602 113.402 7.88802 112.557 8.37948Z" fill="#EBEBEB"/>
</svg>
