<svg width="126" height="115" viewBox="0 0 126 115" fill="none" xmlns="http://www.w3.org/2000/svg">
<path d="M18.37 106.246C42.8634 117.918 82.5762 117.918 107.07 106.246C131.563 94.573 131.563 75.6451 107.07 63.9697C82.5762 52.2943 42.8634 52.2972 18.37 63.9697C-6.12335 75.6423 -6.12335 94.5702 18.37 106.246Z" fill="#F0F0F0"/>
<path d="M66.9995 99.1178C71.0175 99.1178 74.2747 97.5654 74.2747 95.6503C74.2747 93.7353 71.0175 92.1829 66.9995 92.1829C62.9816 92.1829 59.7244 93.7353 59.7244 95.6503C59.7244 97.5654 62.9816 99.1178 66.9995 99.1178Z" fill="#E0E0E0"/>
<path d="M32.5206 65.2059L19.3908 57.6245L6.25806 65.2059L19.3908 72.7872L32.5206 65.2059Z" fill="#F0F0F0"/>
<path d="M19.3906 82.8976L32.5205 75.3163V65.2059L19.3906 72.7873V82.8976Z" fill="#EBEBEB"/>
<path d="M21.3527 80.5529C21.3267 80.5535 21.3011 80.5466 21.2789 80.5331C21.2524 80.5158 21.231 80.4916 21.217 80.4632C21.203 80.4347 21.197 80.403 21.1996 80.3714V80.1872C21.1996 80.1691 21.2067 80.1518 21.2195 80.139C21.2322 80.1263 21.2495 80.1191 21.2676 80.1191C21.2764 80.1191 21.2851 80.1209 21.2932 80.1243C21.3013 80.1278 21.3086 80.1328 21.3147 80.1392C21.3208 80.1456 21.3256 80.1531 21.3287 80.1613C21.3318 80.1696 21.3332 80.1784 21.3328 80.1872V80.3714C21.3328 80.3998 21.3328 80.414 21.3328 80.4168C21.3328 80.4196 21.3527 80.4168 21.3782 80.4168C21.4192 80.3773 21.4514 80.3296 21.4729 80.2769C21.4944 80.2242 21.5046 80.1675 21.5029 80.1106V78.9141C21.5029 78.8968 21.5098 78.8803 21.522 78.868C21.5342 78.8558 21.5508 78.8489 21.5681 78.8489C21.5769 78.8486 21.5857 78.85 21.594 78.8531C21.6022 78.8562 21.6097 78.8609 21.6161 78.867C21.6224 78.8731 21.6275 78.8804 21.631 78.8885C21.6344 78.8966 21.6362 78.9053 21.6362 78.9141V80.0879C21.6392 80.1682 21.6236 80.2481 21.5907 80.3214C21.5577 80.3947 21.5083 80.4593 21.4462 80.5104C21.4186 80.5313 21.3866 80.5459 21.3527 80.5529Z" fill="#E0E0E0"/>
<path d="M20.6382 79.5209V79.4047C20.6529 79.1064 20.7376 78.8158 20.8853 78.5562C21.0331 78.2967 21.2398 78.0755 21.4887 77.9105C21.5779 77.8322 21.6894 77.7838 21.8076 77.7722C21.9257 77.7606 22.0445 77.7864 22.1472 77.8459C22.2499 77.9054 22.3313 77.9956 22.38 78.1039C22.4288 78.2121 22.4423 78.3329 22.4187 78.4492V78.4861L20.6382 79.5209ZM21.9027 77.9247C21.7838 77.9291 21.6682 77.9653 21.5681 78.0296C21.3539 78.169 21.1725 78.3533 21.0364 78.5696C20.9003 78.786 20.8128 79.0293 20.7799 79.2828L22.2939 78.4095C22.2992 78.3245 22.2826 78.2395 22.2459 78.1627C22.2092 78.0858 22.1535 78.0195 22.0841 77.9701C22.0304 77.9336 21.9676 77.913 21.9027 77.9105V77.9247Z" fill="#E0E0E0"/>
<path d="M23.7656 79.1721C23.7483 79.1721 23.7317 79.1652 23.7195 79.153C23.7073 79.1408 23.7004 79.1242 23.7004 79.1069V77.1733C23.6983 77.1634 23.6985 77.1532 23.7009 77.1433C23.7033 77.1335 23.7079 77.1244 23.7142 77.1165C23.7206 77.1087 23.7287 77.1024 23.7378 77.098C23.7469 77.0937 23.7569 77.0914 23.767 77.0914C23.7771 77.0914 23.7871 77.0937 23.7962 77.098C23.8054 77.1024 23.8134 77.1087 23.8198 77.1165C23.8262 77.1244 23.8307 77.1335 23.8331 77.1433C23.8355 77.1532 23.8357 77.1634 23.8336 77.1733V79.1069C23.8337 79.1157 23.8319 79.1244 23.8284 79.1325C23.825 79.1406 23.8199 79.148 23.8136 79.154C23.8072 79.1601 23.7997 79.1649 23.7914 79.168C23.7832 79.1711 23.7744 79.1725 23.7656 79.1721Z" fill="#E0E0E0"/>
<path d="M23.5698 77.695C23.5605 77.6974 23.5507 77.6974 23.5414 77.695C23.5333 77.6916 23.5259 77.6866 23.5198 77.6803C23.5136 77.674 23.5088 77.6665 23.5056 77.6583C23.5024 77.6501 23.501 77.6413 23.5013 77.6325C23.5016 77.6237 23.5036 77.6151 23.5074 77.6071L23.7484 77.04L24.0149 77.3491C24.0269 77.3617 24.0335 77.3785 24.0335 77.3959C24.0335 77.4133 24.0269 77.43 24.0149 77.4426C24.0086 77.449 24.0011 77.454 23.9928 77.4574C23.9845 77.4609 23.9756 77.4627 23.9667 77.4627C23.9577 77.4627 23.9489 77.4609 23.9406 77.4574C23.9323 77.454 23.9248 77.449 23.9185 77.4426L23.7909 77.2952L23.6378 77.6524C23.6324 77.6658 23.6229 77.6772 23.6107 77.6848C23.5985 77.6924 23.5841 77.696 23.5698 77.695Z" fill="#E0E0E0"/>
<path d="M24.3893 78.8177C24.3713 78.8177 24.354 78.8106 24.3412 78.7978C24.3285 78.785 24.3213 78.7677 24.3213 78.7497V76.8189C24.3213 76.8009 24.3285 76.7835 24.3412 76.7708C24.354 76.758 24.3713 76.7509 24.3893 76.7509C24.4074 76.7509 24.4247 76.758 24.4374 76.7708C24.4502 76.7835 24.4574 76.8009 24.4574 76.8189V78.7497C24.4574 78.7677 24.4502 78.785 24.4374 78.7978C24.4247 78.8106 24.4074 78.8177 24.3893 78.8177Z" fill="#E0E0E0"/>
<path d="M24.1879 77.3406H24.1596C24.1514 77.3372 24.1441 77.3322 24.1379 77.3259C24.1318 77.3196 24.127 77.3121 24.1238 77.3039C24.1206 77.2957 24.1191 77.2869 24.1194 77.2781C24.1197 77.2693 24.1218 77.2607 24.1255 77.2527L24.3637 76.6857L24.6472 76.9919C24.6594 77.005 24.6661 77.0222 24.6661 77.0401C24.6661 77.0579 24.6594 77.0752 24.6472 77.0883C24.6343 77.0996 24.6177 77.1059 24.6004 77.1059C24.5832 77.1059 24.5666 77.0996 24.5537 77.0883L24.4261 76.9408L24.2701 77.2981C24.2679 77.3065 24.264 77.3144 24.2585 77.3212C24.253 77.328 24.2462 77.3336 24.2385 77.3376C24.2307 77.3416 24.2222 77.3439 24.2135 77.3445C24.2048 77.345 24.1961 77.3437 24.1879 77.3406Z" fill="#E0E0E0"/>
<path d="M19.3908 82.8976L6.25806 75.3163V65.2059L19.3908 72.7873V82.8976Z" fill="#E0E0E0"/>
<path d="M12.3281 78.8206L13.3176 79.3933V69.2829L12.3281 68.7102V78.8206Z" fill="#EBEBEB"/>
<path d="M26.8985 70.3491L25.013 71.435C24.8247 71.5428 24.6636 71.6924 24.5421 71.8723C24.4207 72.0522 24.3422 72.2576 24.3127 72.4726C24.3127 72.8214 24.6275 72.9234 25.013 72.6995L26.8985 71.6136C27.0863 71.5054 27.2469 71.3557 27.3678 71.1758C27.4887 70.9959 27.5667 70.7907 27.5959 70.5759C27.5902 70.2272 27.284 70.1251 26.8985 70.3491Z" fill="#E0E0E0"/>
<path d="M13.3176 69.2829L26.4503 61.7015L25.4608 61.1288L12.3281 68.7101L13.3176 69.2829Z" fill="#FAFAFA"/>
<path d="M25.4608 69.2829L12.3281 61.7015L13.3176 61.1288L26.4503 68.7101L25.4608 69.2829Z" fill="#FAFAFA"/>
<g style="mix-blend-mode:multiply" opacity="0.8">
<g style="mix-blend-mode:multiply" opacity="0.8">
<path d="M6.83057 64.8741L19.4217 72.1351L31.9704 64.8912L19.3905 57.6245L6.83057 64.8741Z" fill="#E0E0E0"/>
</g>
</g>
<path d="M25.4609 70.2979V69.2829L26.4504 68.7102V69.7252L25.4609 70.2979Z" fill="#F0F0F0"/>
<path d="M31.9309 53.8339L18.7982 46.2526L5.66553 53.8339L18.7982 61.4153L31.9309 53.8339Z" fill="#F0F0F0"/>
<g style="mix-blend-mode:multiply" opacity="0.8">
<g style="mix-blend-mode:multiply" opacity="0.8">
<path d="M6.78247 53.9501L19.2546 61.1516L31.9308 53.8339L19.4587 46.6324L6.78247 53.9501Z" fill="#E0E0E0"/>
</g>
</g>
<path d="M18.7981 71.5256L31.9308 63.9414V53.8339L18.7981 61.4152V71.5256Z" fill="#EBEBEB"/>
<path d="M20.7573 69.1808C20.7315 69.1799 20.7063 69.1731 20.6836 69.1609C20.657 69.1437 20.6356 69.1195 20.6216 69.0911C20.6077 69.0626 20.6016 69.0309 20.6042 68.9993V68.815C20.6021 68.8051 20.6023 68.7949 20.6047 68.7851C20.6071 68.7753 20.6117 68.7661 20.6181 68.7583C20.6244 68.7504 20.6325 68.7441 20.6416 68.7398C20.6507 68.7354 20.6607 68.7332 20.6708 68.7332C20.6809 68.7332 20.6909 68.7354 20.7 68.7398C20.7092 68.7441 20.7172 68.7504 20.7236 68.7583C20.73 68.7661 20.7345 68.7753 20.7369 68.7851C20.7393 68.7949 20.7395 68.8051 20.7375 68.815V68.9993C20.7375 69.0277 20.7375 69.0419 20.7375 69.0447C20.7375 69.0475 20.7573 69.0447 20.78 69.0305C20.8215 68.992 20.8541 68.9449 20.8757 68.8925C20.8972 68.8402 20.9071 68.7837 20.9047 68.7271V67.5307C20.9047 67.5126 20.9119 67.4953 20.9247 67.4826C20.9374 67.4698 20.9547 67.4626 20.9728 67.4626C20.9908 67.4626 21.0081 67.4698 21.0209 67.4826C21.0337 67.4953 21.0408 67.5126 21.0408 67.5307V68.7271C21.0444 68.8074 21.0288 68.8873 20.9952 68.9603C20.9617 69.0333 20.9112 69.0972 20.848 69.1468C20.8212 69.1656 20.7899 69.1774 20.7573 69.1808Z" fill="#E0E0E0"/>
<path d="M20.0486 68.1318V68.0156C20.0638 67.7178 20.1486 67.4277 20.2964 67.1687C20.4441 66.9097 20.6506 66.689 20.8991 66.5243C20.9883 66.4475 21.0991 66.4003 21.2163 66.3893C21.3335 66.3783 21.4511 66.4041 21.553 66.4629C21.6549 66.5218 21.7359 66.6109 21.7849 66.718C21.8339 66.825 21.8483 66.9445 21.8263 67.0601V67.0998L20.0486 68.1318ZM21.3131 66.5356C21.1936 66.5417 21.0776 66.5778 20.9757 66.6405C20.7622 66.7811 20.5815 66.9661 20.446 67.1828C20.3104 67.3996 20.2232 67.643 20.1903 67.8965L21.7043 67.0233C21.7098 66.9382 21.6934 66.8532 21.6567 66.7762C21.62 66.6993 21.5641 66.6331 21.4945 66.5838C21.4395 66.5517 21.3768 66.5351 21.3131 66.5356Z" fill="#E0E0E0"/>
<path d="M23.1757 67.8C23.1577 67.8 23.1404 67.7929 23.1276 67.7801C23.1148 67.7673 23.1077 67.75 23.1077 67.732V65.8012C23.1077 65.7831 23.1148 65.7659 23.1276 65.7531C23.1404 65.7403 23.1577 65.7332 23.1757 65.7332C23.1938 65.7332 23.2111 65.7403 23.2238 65.7531C23.2366 65.7659 23.2438 65.7831 23.2438 65.8012V67.732C23.2438 67.75 23.2366 67.7673 23.2238 67.7801C23.2111 67.7929 23.1938 67.8 23.1757 67.8Z" fill="#E0E0E0"/>
<path d="M22.9802 66.323H22.9518C22.9437 66.3196 22.9363 66.3146 22.9302 66.3083C22.924 66.302 22.9192 66.2945 22.916 66.2863C22.9128 66.2781 22.9114 66.2693 22.9117 66.2605C22.912 66.2517 22.914 66.2431 22.9178 66.2351L23.1559 65.6823L23.4395 65.9884C23.4516 66.0016 23.4584 66.0188 23.4584 66.0367C23.4584 66.0545 23.4516 66.0717 23.4395 66.0848C23.4265 66.0962 23.4099 66.1025 23.3927 66.1025C23.3755 66.1025 23.3588 66.0962 23.3459 66.0848L23.2183 65.9374L23.0624 66.2947C23.0546 66.3087 23.0419 66.3193 23.0267 66.3245C23.0115 66.3298 22.995 66.3292 22.9802 66.323Z" fill="#E0E0E0"/>
<path d="M23.7995 67.4457C23.7814 67.4457 23.7641 67.4385 23.7514 67.4258C23.7386 67.413 23.7314 67.3957 23.7314 67.3776V65.444C23.7314 65.426 23.7386 65.4087 23.7514 65.3959C23.7641 65.3832 23.7814 65.376 23.7995 65.376C23.8175 65.376 23.8348 65.3832 23.8476 65.3959C23.8604 65.4087 23.8675 65.426 23.8675 65.444V67.3776C23.8675 67.3957 23.8604 67.413 23.8476 67.4258C23.8348 67.4385 23.8175 67.4457 23.7995 67.4457Z" fill="#E0E0E0"/>
<path d="M23.601 65.9685H23.5755C23.5589 65.9611 23.5458 65.9475 23.5389 65.9306C23.532 65.9137 23.532 65.8948 23.5387 65.8778L23.7797 65.325L24.0462 65.634C24.0525 65.6403 24.0575 65.6478 24.061 65.6561C24.0644 65.6644 24.0662 65.6732 24.0662 65.6822C24.0662 65.6911 24.0644 65.7 24.061 65.7083C24.0575 65.7166 24.0525 65.7241 24.0462 65.7304C24.0331 65.7425 24.0158 65.7493 23.998 65.7493C23.9801 65.7493 23.9629 65.7425 23.9498 65.7304L23.825 65.583L23.6691 65.9402C23.6614 65.9507 23.651 65.9589 23.639 65.9639C23.627 65.9689 23.6139 65.9705 23.601 65.9685Z" fill="#E0E0E0"/>
<path d="M18.7982 71.5256L5.66553 63.9414V53.8339L18.7982 61.4152V71.5256Z" fill="#E0E0E0"/>
<path d="M11.7385 67.4485L12.728 68.0184V57.9108L11.7385 57.3381V67.4485Z" fill="#EBEBEB"/>
<path d="M26.3058 58.9769L24.4232 60.0628C24.2348 60.1706 24.0737 60.3202 23.9523 60.5001C23.8309 60.68 23.7524 60.8854 23.7229 61.1004C23.7229 61.4492 24.0376 61.5512 24.4232 61.3273L26.3058 60.2385C26.4951 60.1325 26.657 59.9838 26.7786 59.8041C26.9001 59.6244 26.9781 59.4188 27.0061 59.2037C27.0061 58.855 26.6942 58.7529 26.3058 58.9769Z" fill="#E0E0E0"/>
<path d="M12.728 57.9109L25.8607 50.3295L24.8712 49.7568L11.7385 57.3382L12.728 57.9109Z" fill="#FAFAFA"/>
<path d="M24.8712 57.9109L11.7385 50.3295L12.728 49.7568L25.8607 57.3382L24.8712 57.9109Z" fill="#FAFAFA"/>
<path d="M24.8711 58.9259V57.9108L25.8606 57.3381V58.3531L24.8711 58.9259Z" fill="#F0F0F0"/>
<g style="mix-blend-mode:multiply" opacity="0.8">
<g style="mix-blend-mode:multiply" opacity="0.8">
<path d="M19.2546 61.1515L20.4369 61.8348L31.9309 55.1976V53.8339L19.2546 61.1515Z" fill="#E0E0E0"/>
</g>
</g>
<path d="M33.2464 43.7234L20.1166 36.1421L6.98389 43.7234L20.1166 51.3048L33.2464 43.7234Z" fill="#F0F0F0"/>
<path d="M20.1165 61.4152L33.2463 53.8339V43.7235L20.1165 51.3049V61.4152Z" fill="#EBEBEB"/>
<path d="M22.0729 59.0706C22.0478 59.0714 22.023 59.0645 22.002 59.0507C21.9747 59.034 21.9525 59.0101 21.938 58.9815C21.9235 58.953 21.9172 58.921 21.9198 58.8891V58.7048C21.9198 58.6868 21.9269 58.6695 21.9397 58.6567C21.9525 58.6439 21.9698 58.6368 21.9878 58.6368C22.0058 58.6368 22.0232 58.6439 22.0359 58.6567C22.0487 58.6695 22.0558 58.6868 22.0558 58.7048V58.8891C22.0558 58.9175 22.0558 58.9316 22.0558 58.9345C22.0558 58.9373 22.0757 58.9345 22.1012 58.9345C22.1427 58.8959 22.1754 58.8489 22.1969 58.7965C22.2185 58.7441 22.2284 58.6877 22.226 58.6311V57.4346C22.2239 57.4248 22.2241 57.4145 22.2265 57.4047C22.2289 57.3949 22.2334 57.3857 22.2398 57.3779C22.2462 57.37 22.2542 57.3637 22.2634 57.3594C22.2725 57.355 22.2825 57.3528 22.2926 57.3528C22.3027 57.3528 22.3127 57.355 22.3218 57.3594C22.3309 57.3637 22.339 57.37 22.3454 57.3779C22.3517 57.3857 22.3563 57.3949 22.3587 57.4047C22.3611 57.4145 22.3613 57.4248 22.3592 57.4346V58.6311C22.3622 58.711 22.3466 58.7905 22.3137 58.8633C22.2807 58.9361 22.2313 59.0003 22.1693 59.0507C22.1389 59.0641 22.106 59.0709 22.0729 59.0706Z" fill="#E0E0E0"/>
<path d="M21.3528 58.0242V57.908C21.3682 57.6099 21.4531 57.3195 21.6008 57.06C21.7485 56.8006 21.9549 56.5793 22.2033 56.4138C22.2925 56.3355 22.404 56.2871 22.5222 56.2755C22.6403 56.2639 22.7591 56.2897 22.8618 56.3492C22.9645 56.4087 23.0459 56.4989 23.0946 56.6072C23.1434 56.7154 23.1569 56.8362 23.1333 56.9525V56.9894L21.3528 58.0242ZM22.6173 56.428C22.4984 56.4324 22.3828 56.4686 22.2827 56.5329C22.0689 56.6728 21.8878 56.8571 21.7517 57.0734C21.6157 57.2897 21.528 57.5328 21.4945 57.7861L23.0085 56.9128C23.0135 56.8281 22.9972 56.7435 22.9611 56.6667C22.9249 56.59 22.8701 56.5235 22.8016 56.4734C22.7486 56.4441 22.6892 56.4285 22.6286 56.428H22.6173Z" fill="#E0E0E0"/>
<path d="M24.4912 57.6898C24.4824 57.6898 24.4737 57.688 24.4656 57.6846C24.4575 57.6811 24.4501 57.6761 24.444 57.6697C24.438 57.6633 24.4332 57.6558 24.4301 57.6476C24.427 57.6393 24.4256 57.6306 24.426 57.6218V55.7052C24.4239 55.6953 24.4241 55.685 24.4265 55.6752C24.4289 55.6654 24.4335 55.6562 24.4398 55.6484C24.4462 55.6405 24.4543 55.6342 24.4634 55.6299C24.4725 55.6255 24.4825 55.6233 24.4926 55.6233C24.5027 55.6233 24.5127 55.6255 24.5218 55.6299C24.531 55.6342 24.539 55.6405 24.5454 55.6484C24.5518 55.6562 24.5563 55.6654 24.5587 55.6752C24.5611 55.685 24.5613 55.6953 24.5592 55.7052V57.6388C24.5554 57.6537 24.5465 57.6669 24.5342 57.6762C24.5218 57.6855 24.5066 57.6903 24.4912 57.6898Z" fill="#E0E0E0"/>
<path d="M24.2956 56.2126C24.2873 56.2152 24.2784 56.2152 24.2701 56.2126C24.2617 56.2094 24.2541 56.2047 24.2476 56.1985C24.2412 56.1923 24.2361 56.1849 24.2326 56.1766C24.2292 56.1684 24.2274 56.1595 24.2275 56.1506C24.2277 56.1416 24.2296 56.1328 24.2333 56.1247L24.4743 55.5576L24.7408 55.8667C24.747 55.8727 24.752 55.88 24.7554 55.888C24.7588 55.8961 24.7606 55.9047 24.7606 55.9134C24.7606 55.9222 24.7588 55.9308 24.7554 55.9388C24.752 55.9469 24.747 55.9541 24.7408 55.9602C24.7344 55.9666 24.7269 55.9716 24.7187 55.975C24.7104 55.9785 24.7015 55.9802 24.6926 55.9802C24.6836 55.9802 24.6748 55.9785 24.6665 55.975C24.6582 55.9716 24.6507 55.9666 24.6444 55.9602L24.5168 55.8128L24.3637 56.17C24.3583 56.1834 24.3488 56.1947 24.3366 56.2024C24.3244 56.21 24.31 56.2136 24.2956 56.2126Z" fill="#E0E0E0"/>
<path d="M25.1152 57.3353C25.1064 57.3357 25.0976 57.3343 25.0893 57.3312C25.0811 57.3281 25.0736 57.3233 25.0672 57.3172C25.0609 57.3111 25.0558 57.3038 25.0523 57.2957C25.0489 57.2876 25.0471 57.2789 25.0471 57.2701V55.3365C25.0471 55.3184 25.0543 55.3011 25.067 55.2884C25.0798 55.2756 25.0971 55.2684 25.1152 55.2684C25.1332 55.2684 25.1505 55.2756 25.1633 55.2884C25.176 55.3011 25.1832 55.3184 25.1832 55.3365V57.2701C25.1832 57.2789 25.1814 57.2876 25.178 57.2957C25.1745 57.3038 25.1695 57.3111 25.1631 57.3172C25.1568 57.3233 25.1492 57.3281 25.141 57.3312C25.1327 57.3343 25.124 57.3357 25.1152 57.3353Z" fill="#E0E0E0"/>
<path d="M24.9194 55.8582H24.891C24.8829 55.8548 24.8755 55.8498 24.8694 55.8435C24.8632 55.8372 24.8584 55.8297 24.8552 55.8215C24.852 55.8133 24.8506 55.8045 24.8509 55.7957C24.8512 55.7869 24.8533 55.7783 24.857 55.7703L25.0952 55.2032L25.3787 55.5095C25.3908 55.5226 25.3976 55.5398 25.3976 55.5576C25.3976 55.5755 25.3908 55.5927 25.3787 55.6058C25.3726 55.6121 25.3653 55.6171 25.3573 55.6205C25.3493 55.6239 25.3406 55.6256 25.3319 55.6256C25.3232 55.6256 25.3145 55.6239 25.3065 55.6205C25.2985 55.6171 25.2912 55.6121 25.2851 55.6058L25.1575 55.4584L25.0016 55.8157C24.9994 55.8241 24.9954 55.832 24.99 55.8388C24.9845 55.8456 24.9777 55.8512 24.9699 55.8552C24.9622 55.8592 24.9537 55.8615 24.945 55.862C24.9363 55.8626 24.9275 55.8612 24.9194 55.8582Z" fill="#E0E0E0"/>
<path d="M20.1166 61.4152L6.98389 53.8339V43.7235L20.1166 51.3049V61.4152Z" fill="#E0E0E0"/>
<path d="M13.054 57.3381L14.0434 57.9109V47.8005L13.054 47.2278V57.3381Z" fill="#EBEBEB"/>
<path d="M27.6241 48.8665L25.7387 49.9552C25.5501 50.0617 25.3889 50.2107 25.2678 50.3903C25.1468 50.5699 25.0692 50.7753 25.0413 50.9901C25.0413 51.3388 25.3531 51.4409 25.7387 51.2169L27.6241 50.131C27.8125 50.0232 27.9736 49.8736 28.095 49.6937C28.2165 49.5138 28.2949 49.3084 28.3244 49.0933C28.3244 48.7446 28.0097 48.6425 27.6241 48.8665Z" fill="#E0E0E0"/>
<path d="M14.0434 47.8005L27.1761 40.2192L26.1867 39.6465L13.054 47.2278L14.0434 47.8005Z" fill="#FAFAFA"/>
<path d="M26.1867 47.8005L13.054 40.2192L14.0434 39.6465L27.1761 47.2278L26.1867 47.8005Z" fill="#FAFAFA"/>
<path d="M26.1865 48.8155V47.8005L27.176 47.2278V48.2428L26.1865 48.8155Z" fill="#F0F0F0"/>
<path d="M38.5681 80.9668V76.5325C38.357 74.9024 37.6662 73.3718 36.5835 72.1351C34.8313 70.2383 33.2606 70.8819 32.7503 71.7835C32.2399 72.6851 33.4024 74.3919 34.1452 75.3559C35.0383 76.5127 38.5625 81.8769 38.5625 84.2953L38.5681 80.9668Z" fill="#37474F"/>
<path d="M38.5681 80.2666C38.5424 80.2663 38.5176 80.2571 38.4979 80.2406C38.4783 80.224 38.465 80.2011 38.4604 80.1758C37.6608 75.3418 33.9807 72.0246 33.9439 71.9906C33.9241 71.97 33.9131 71.9426 33.9131 71.914C33.9131 71.8855 33.9241 71.8581 33.9439 71.8375C33.9539 71.8274 33.9658 71.8193 33.979 71.8138C33.9921 71.8084 34.0062 71.8055 34.0204 71.8055C34.0347 71.8055 34.0488 71.8084 34.0619 71.8138C34.075 71.8193 34.087 71.8274 34.097 71.8375C34.1367 71.8687 37.8706 75.2397 38.6843 80.1475C38.6885 80.176 38.6813 80.205 38.6643 80.2283C38.6474 80.2516 38.622 80.2673 38.5936 80.2722L38.5681 80.2666Z" fill="#FAFAFA"/>
<path d="M38.568 80.9668C38.568 80.9668 38.7437 80.4338 37.9584 80.2977C37.173 80.1616 36.8725 79.5095 36.8016 78.4152C36.7307 77.3208 36.3962 76.5354 35.4124 76.3738C34.4285 76.2122 33.6375 76.7084 32.9996 76.215C32.3617 75.7217 30.7088 74.5337 29.3308 75.0809C27.9529 75.6281 28.4066 76.7991 29.1239 77.5589C29.8412 78.3187 30.0453 78.5796 29.4981 79.8271C28.9509 81.0746 29.3479 82.2257 30.6152 82.5149C31.8825 82.8041 32.5998 82.6566 32.5998 84.043C32.5998 85.4295 32.8096 86.0504 33.5043 86.5947C34.1989 87.1391 36.3792 86.8953 37.2864 87.1051C37.5588 87.1753 37.8132 87.3026 38.0327 87.4785C38.2522 87.6545 38.4317 87.8751 38.5595 88.1257L38.568 80.9668Z" fill="#455A64"/>
<path d="M38.568 86.6854C38.5454 86.6853 38.5234 86.6782 38.5051 86.665C38.4868 86.6518 38.4731 86.6331 38.4659 86.6117C36.1609 79.7731 30.947 77.0088 30.8931 76.972C30.8691 76.9573 30.8516 76.9342 30.8441 76.9072C30.8366 76.8801 30.8397 76.8513 30.8526 76.8264C30.8656 76.8015 30.8875 76.7825 30.914 76.7732C30.9405 76.7639 30.9695 76.765 30.9952 76.7763C31.0462 76.8047 36.3367 79.6115 38.6701 86.5323C38.6749 86.5457 38.677 86.5599 38.6762 86.5741C38.6754 86.5883 38.6716 86.6022 38.6653 86.6149C38.6589 86.6277 38.65 86.639 38.6392 86.6482C38.6283 86.6573 38.6157 86.6642 38.602 86.6684C38.5925 86.677 38.5807 86.6829 38.568 86.6854Z" fill="#FAFAFA"/>
<path d="M35.2622 80.7229H35.2452C33.7397 80.3799 31.3326 80.567 31.3071 80.567C31.2929 80.5682 31.2787 80.5665 31.2651 80.5622C31.2516 80.5578 31.2391 80.5508 31.2283 80.5416C31.2175 80.5324 31.2086 80.5211 31.2022 80.5084C31.1958 80.4958 31.1919 80.4819 31.1908 80.4678C31.1892 80.4535 31.1906 80.4391 31.1948 80.4255C31.199 80.4118 31.206 80.3991 31.2153 80.3882C31.2246 80.3773 31.236 80.3684 31.2489 80.3621C31.2617 80.3558 31.2757 80.3522 31.29 80.3515C31.3921 80.3515 33.7567 80.1616 35.2934 80.5131C35.3192 80.5192 35.3419 80.5345 35.3571 80.5563C35.3723 80.578 35.379 80.6046 35.3758 80.6309C35.3726 80.6572 35.3599 80.6815 35.34 80.699C35.32 80.7165 35.2944 80.726 35.2678 80.7258L35.2622 80.7229Z" fill="#FAFAFA"/>
<path d="M36.49 84.0119C35.801 84.0119 35.0724 83.9665 35.027 83.9637C34.9982 83.9615 34.9714 83.9481 34.9523 83.9264C34.9332 83.9046 34.9234 83.8763 34.925 83.8474C34.9257 83.833 34.9293 83.8189 34.9356 83.8059C34.9418 83.7929 34.9506 83.7813 34.9615 83.7718C34.9723 83.7623 34.985 83.755 34.9987 83.7505C35.0124 83.746 35.0268 83.7442 35.0412 83.7454C35.8247 83.8005 36.611 83.8005 37.3944 83.7454C37.4226 83.7413 37.4513 83.7486 37.4741 83.7656C37.497 83.7826 37.5121 83.8079 37.5163 83.8361C37.5188 83.8503 37.5183 83.8648 37.5151 83.8788C37.5118 83.8928 37.5057 83.906 37.4973 83.9176C37.4888 83.9292 37.4781 83.939 37.4658 83.9465C37.4535 83.9539 37.4399 83.9588 37.4256 83.9608C37.1153 83.9996 36.8027 84.0167 36.49 84.0119Z" fill="#FAFAFA"/>
<path d="M34.5563 79.9206C34.5275 79.9184 34.5007 79.905 34.4816 79.8833C34.4625 79.8615 34.4527 79.8332 34.4543 79.8043C34.5061 79.0215 34.6693 78.2501 34.9391 77.5135C34.9498 77.4873 34.9704 77.4664 34.9964 77.4552C35.0223 77.4441 35.0517 77.4436 35.078 77.4539C35.0915 77.4586 35.1038 77.466 35.1143 77.4757C35.1248 77.4853 35.1332 77.497 35.1391 77.51C35.1449 77.523 35.148 77.537 35.1483 77.5513C35.1485 77.5655 35.1458 77.5797 35.1404 77.5929C34.8822 78.3096 34.7238 79.0585 34.6697 79.8185C34.669 79.8326 34.6655 79.8465 34.6594 79.8593C34.6533 79.8721 34.6448 79.8836 34.6342 79.8931C34.6237 79.9025 34.6114 79.9099 34.598 79.9146C34.5846 79.9193 34.5705 79.9213 34.5563 79.9206Z" fill="#FAFAFA"/>
<path d="M38.5339 37.0948V88.5936C38.5339 89.0642 38.8628 89.2542 39.2711 89.0188L101.141 53.2952C101.355 53.1549 101.532 52.9662 101.659 52.7446C101.786 52.5229 101.859 52.2745 101.873 52.0193V0.526241C101.873 0.0555965 101.544 -0.134363 101.138 0.10096L39.2683 35.8246C39.055 35.9641 38.8774 36.1516 38.7498 36.3723C38.6223 36.5929 38.5483 36.8404 38.5339 37.0948Z" fill="#2C3B66"/>
<path d="M101.141 0.10096L39.2711 35.8246C39.0565 35.9643 38.8779 36.1526 38.7498 36.3743C38.6218 36.596 38.5478 36.8448 38.5339 37.1005V40.3213L101.873 3.66482V0.526241C101.873 0.0555965 101.546 -0.134363 101.141 0.10096Z" fill="#263238"/>
<path d="M93.2393 5.81953C93.0283 5.957 92.8528 6.14246 92.7271 6.36075C92.6014 6.57905 92.5292 6.82398 92.5164 7.07553C92.5164 7.53767 92.8396 7.72479 93.2422 7.49514C93.4532 7.35671 93.6288 7.1707 93.7548 6.95207C93.8809 6.73344 93.9539 6.48828 93.968 6.23631C93.9651 5.77417 93.6504 5.58704 93.2393 5.81953Z" fill="white"/>
<path d="M96.1172 4.1553C95.9062 4.29312 95.7306 4.4786 95.6045 4.69678C95.4785 4.91495 95.4054 5.15971 95.3914 5.4113C95.3914 5.87628 95.7174 6.0634 96.1172 5.83091C96.3288 5.69376 96.5048 5.50844 96.631 5.29013C96.7572 5.07181 96.8298 4.82672 96.843 4.57491C96.843 4.10427 96.5198 3.92565 96.1172 4.1553Z" fill="white"/>
<path d="M98.9978 2.4939C98.7868 2.63172 98.6112 2.8172 98.4852 3.03537C98.3591 3.25355 98.2861 3.49831 98.272 3.7499C98.272 4.21204 98.598 4.402 98.9978 4.16951C99.2087 4.03169 99.3843 3.84621 99.5104 3.62803C99.6365 3.40986 99.7095 3.1651 99.7236 2.91351C99.7236 2.44854 99.3976 2.26141 98.9978 2.4939Z" fill="white"/>
<path d="M58.4061 35.7396V51.0498L45.1514 58.7048V43.3947L58.4061 35.7396ZM58.6896 35.2491L44.8679 43.2303V59.1897L58.6896 51.2085V35.2491Z" fill="#FAFAFA"/>
<path d="M63.1548 48.7929V32.5075L77.2571 24.3647V40.6502L63.1548 48.7929ZM63.4383 32.6719V48.3024L76.9736 40.4858V24.8552L63.4383 32.6719Z" fill="#FAFAFA"/>
<path d="M71.9895 32.4025L72.7323 30.7977C71.9103 30.6817 71.0734 30.8519 70.3621 31.2797V32.7399C70.8535 32.4537 71.4248 32.3353 71.9895 32.4025Z" fill="#2C3B66"/>
<path d="M73.2371 33.4883L74.4392 32.3542C74.3235 32.0123 74.1314 31.7013 73.8774 31.4448C73.6234 31.1884 73.3142 30.9932 72.9734 30.8743L72.2334 32.479C72.4637 32.5648 72.6726 32.6994 72.8459 32.8736C73.0191 33.0479 73.1526 33.2576 73.2371 33.4883Z" fill="#2C3B66"/>
<path d="M68.417 40.7551L67.677 42.357C68.4975 42.4783 69.3347 42.3098 70.0444 41.8806V40.4233C69.5535 40.7107 68.9812 40.8273 68.417 40.7551Z" fill="#2C3B66"/>
<path d="M72.2446 38.3338L72.9846 39.0823C73.6426 38.1116 74.1377 37.0399 74.4504 35.9097L73.237 36.1422C73.0225 36.92 72.6877 37.6595 72.2446 38.3338Z" fill="#2C3B66"/>
<path d="M70.3621 40.2419V41.6992C71.2874 41.0995 72.0908 40.3299 72.7295 39.431L71.9895 38.6938C71.544 39.3031 70.9928 39.8274 70.3621 40.2419Z" fill="#2C3B66"/>
<path d="M74.5467 32.635L73.3474 33.7691C73.4268 34.0688 73.4659 34.3777 73.4636 34.6877C73.4607 35.0423 73.4217 35.3957 73.3474 35.7424L74.5467 35.5014C74.6598 34.9959 74.7188 34.4798 74.7225 33.9619C74.7263 33.5135 74.6671 33.0669 74.5467 32.635Z" fill="#2C3B66"/>
<g opacity="0.2">
<path opacity="0.2" d="M71.9895 32.4025L72.7323 30.7977C71.9103 30.6817 71.0734 30.8519 70.3621 31.2797V32.7399C70.8535 32.4537 71.4248 32.3353 71.9895 32.4025Z" fill="black"/>
<path opacity="0.2" d="M73.2368 33.4883L74.4389 32.3542C74.3233 32.0123 74.1311 31.7013 73.8771 31.4448C73.6231 31.1884 73.3139 30.9932 72.9731 30.8743L72.2332 32.479C72.4634 32.5648 72.6724 32.6994 72.8456 32.8736C73.0189 33.0479 73.1524 33.2576 73.2368 33.4883Z" fill="black"/>
<path opacity="0.2" d="M68.417 40.7551L67.677 42.357C68.4975 42.4783 69.3347 42.3098 70.0444 41.8806V40.4233C69.5535 40.7107 68.9812 40.8273 68.417 40.7551Z" fill="black"/>
<path opacity="0.2" d="M72.2446 38.3338L72.9846 39.0823C73.6426 38.1116 74.1377 37.0399 74.4504 35.9097L73.237 36.1422C73.0225 36.92 72.6877 37.6595 72.2446 38.3338Z" fill="black"/>
<path opacity="0.2" d="M70.3621 40.2419V41.6992C71.2874 41.0995 72.0908 40.3299 72.7295 39.431L71.9895 38.6938C71.544 39.3031 70.9928 39.8274 70.3621 40.2419Z" fill="black"/>
<path opacity="0.2" d="M74.5467 32.635L73.3474 33.7691C73.4268 34.0688 73.4659 34.3777 73.4636 34.6877C73.4607 35.0423 73.4217 35.3957 73.3474 35.7424L74.5467 35.5014C74.6598 34.9959 74.7188 34.4798 74.7225 33.9619C74.7263 33.5135 74.6671 33.0669 74.5467 32.635Z" fill="black"/>
</g>
<path d="M70.0473 32.9157V31.4584C69.1213 32.0572 68.3178 32.827 67.6799 33.7265L68.4199 34.475C68.8635 33.861 69.4149 33.3326 70.0473 32.9157Z" fill="#FAFAFA"/>
<path d="M68.1675 34.8238L67.4275 34.0753C66.7682 35.0443 66.273 36.1152 65.9617 37.2451L67.161 37.0041C67.3799 36.229 67.7196 35.4932 68.1675 34.8238Z" fill="#FAFAFA"/>
<path d="M66.9457 38.4585C66.9498 38.1038 66.9897 37.7505 67.0648 37.4038L65.8655 37.6476C65.7525 38.1522 65.6936 38.6673 65.6897 39.1843C65.6852 39.6364 65.7444 40.0869 65.8655 40.5225L67.0648 39.3885C66.9836 39.0852 66.9436 38.7724 66.9457 38.4585Z" fill="#FAFAFA"/>
<path d="M67.161 39.6692L65.9617 40.8033C66.077 41.1451 66.269 41.4559 66.5231 41.712C66.7772 41.968 67.0866 42.1625 67.4275 42.2804L68.1675 40.6785C67.9367 40.5931 67.7272 40.4586 67.5534 40.2844C67.3796 40.1101 67.2457 39.9002 67.161 39.6692Z" fill="#FAFAFA"/>
<path d="M67.5098 38.1268C67.5098 36.4059 68.7176 34.3163 70.2061 33.4572C71.6945 32.5982 72.9023 33.2928 72.9023 35.0138C72.9023 36.7348 71.6945 38.8243 70.2061 39.6834C68.7176 40.5424 67.5098 39.8535 67.5098 38.1268Z" fill="#2C3B66"/>
<path opacity="0.2" d="M67.5098 38.1268C67.5098 36.4059 68.7176 34.3163 70.2061 33.4572C71.6945 32.5982 72.9023 33.2928 72.9023 35.0138C72.9023 36.7348 71.6945 38.8243 70.2061 39.6834C68.7176 40.5424 67.5098 39.8535 67.5098 38.1268Z" fill="black"/>
<path d="M69.9396 35.6914C69.9452 35.8019 69.9452 35.9126 69.9396 36.0231C69.9344 36.1143 69.9192 36.2046 69.8942 36.2924C69.8701 36.3842 69.8328 36.4721 69.7836 36.5533C69.6783 36.7351 69.5267 36.8858 69.3442 36.9899C69.2655 37.0396 69.1778 37.0733 69.0862 37.0891C69.0242 37.1015 68.9599 37.0914 68.9047 37.0608C68.8549 37.029 68.8162 36.9824 68.7941 36.9275C68.767 36.8588 68.7516 36.7859 68.7488 36.712C68.7488 36.6553 68.7488 36.6015 68.7488 36.5504C68.7488 36.4994 68.7488 36.4427 68.7488 36.3775C68.7534 36.2816 68.7686 36.1865 68.7941 36.094C68.8202 36.0037 68.8573 35.9171 68.9047 35.836C68.9548 35.7483 69.0157 35.6673 69.0862 35.595C69.163 35.5185 69.2498 35.4527 69.3442 35.3993C69.4231 35.3497 69.5106 35.3151 69.6022 35.2973C69.6644 35.2872 69.7283 35.2982 69.7836 35.3285C69.8335 35.3603 69.8721 35.4069 69.8942 35.4617C69.9215 35.5354 69.9368 35.6129 69.9396 35.6914ZM70.8865 34.6282C70.9009 34.595 70.919 34.5637 70.9404 34.5346C70.9626 34.5063 70.9907 34.4831 71.0226 34.4666L71.3345 34.2879C71.3432 34.2802 71.3538 34.2748 71.3652 34.2723C71.3767 34.2698 71.3885 34.2703 71.3997 34.2738C71.4167 34.2738 71.4252 34.2964 71.4252 34.322C71.4262 34.3295 71.4262 34.3371 71.4252 34.3446C71.4264 34.356 71.4264 34.3674 71.4252 34.3787L69.5511 38.3054C69.5351 38.3374 69.5162 38.3678 69.4944 38.3962C69.4727 38.4246 69.4457 38.4486 69.415 38.467L69.1032 38.6457C69.093 38.6505 69.0818 38.6529 69.0706 38.6529C69.0593 38.6529 69.0482 38.6505 69.038 38.6457C69.021 38.6457 69.0125 38.623 69.0125 38.5975C69.0125 38.5719 69.0125 38.5833 69.0125 38.5719C69.0125 38.5606 69.0125 38.5521 69.0125 38.5408L70.8865 34.6282ZM69.1854 36.4342C69.1844 36.487 69.1981 36.539 69.2251 36.5845C69.2449 36.61 69.2846 36.6043 69.3413 36.5845C69.3914 36.5573 69.4313 36.5145 69.4547 36.4625C69.48 36.4002 69.4943 36.3341 69.4973 36.2669C69.5027 36.1725 69.5027 36.0778 69.4973 35.9834C69.4979 35.9311 69.4831 35.8799 69.4547 35.836C69.4349 35.8104 69.3952 35.8133 69.3413 35.836C69.2898 35.8621 69.2487 35.9051 69.2251 35.9579C69.2009 36.0204 69.1875 36.0865 69.1854 36.1535C69.1787 36.2441 69.1796 36.3352 69.1882 36.4257L69.1854 36.4342ZM71.6946 36.2074C71.7002 36.3188 71.7002 36.4305 71.6946 36.5419C71.6887 36.6319 71.6745 36.7211 71.652 36.8084C71.6019 36.9963 71.5042 37.1682 71.3685 37.3074C71.2925 37.3857 71.2056 37.4525 71.1105 37.5059C71.0319 37.5556 70.9442 37.5893 70.8525 37.6051C70.7906 37.6188 70.7258 37.6087 70.6711 37.5768C70.6212 37.545 70.5825 37.4984 70.5605 37.4435C70.5333 37.3748 70.518 37.3019 70.5151 37.2281C70.5151 37.1713 70.5151 37.1175 70.5151 37.0693C70.5151 37.0211 70.5151 36.9587 70.5151 36.8935C70.5205 36.8033 70.5357 36.7139 70.5605 36.627C70.5866 36.5359 70.6237 36.4483 70.6711 36.3661C70.7205 36.2789 70.7815 36.1988 70.8525 36.128C70.9285 36.0498 71.0154 35.9829 71.1105 35.9295C71.1892 35.8798 71.2768 35.8461 71.3685 35.8303C71.4304 35.8166 71.4952 35.8267 71.55 35.8586C71.5998 35.8904 71.6385 35.937 71.6605 35.9919C71.6848 36.0612 71.6973 36.134 71.6974 36.2074H71.6946ZM70.9432 36.953C70.9434 37.0048 70.9571 37.0556 70.9829 37.1005C71.0056 37.126 71.0425 37.1231 71.0992 37.1005C71.1501 37.0735 71.1909 37.0307 71.2154 36.9786C71.2382 36.9157 71.2516 36.8497 71.2551 36.7829C71.2606 36.6885 71.2606 36.5938 71.2551 36.4994C71.2549 36.4476 71.2412 36.3968 71.2154 36.352C71.1927 36.3265 71.1559 36.3293 71.0992 36.352C71.0483 36.379 71.0075 36.4217 70.9829 36.4739C70.9601 36.5368 70.9467 36.6027 70.9432 36.6695C70.936 36.7639 70.9369 36.8588 70.9461 36.953H70.9432Z" fill="#FAFAFA"/>
<path d="M81.5811 38.1551V21.8668L95.6834 13.7241V30.0124L81.5811 38.1551ZM81.8646 22.0313V37.6618L95.3999 29.848V14.2174L81.8646 22.0313Z" fill="#FAFAFA"/>
<path d="M88.4762 22.2752V20.832C87.5491 21.4306 86.7447 22.2004 86.106 23.1002L86.8488 23.8515C87.2905 23.2311 87.842 22.6969 88.4762 22.2752Z" fill="#FAFAFA"/>
<path d="M86.5935 24.186L85.8535 23.4375C85.1937 24.4062 84.6984 25.4772 84.3877 26.6073L85.587 26.3634C85.8078 25.5899 86.1473 24.8553 86.5935 24.186Z" fill="#FAFAFA"/>
<path d="M90.4155 21.7648L91.1583 20.1572C90.3363 20.0412 89.4995 20.2114 88.7881 20.6392V22.0937C89.2796 21.8079 89.8516 21.6923 90.4155 21.7648Z" fill="#2C3B66"/>
<path d="M91.6659 22.8478L92.8652 21.7137C92.7495 21.3721 92.5574 21.0615 92.3033 20.8055C92.0493 20.5494 91.7401 20.3549 91.3994 20.2366L90.6594 21.8385C90.8902 21.9239 91.0997 22.0584 91.2735 22.2326C91.4473 22.4069 91.5811 22.6168 91.6659 22.8478Z" fill="#2C3B66"/>
<path d="M86.8459 30.1144L86.106 31.7191C86.7864 31.8581 87.6001 31.7191 88.4762 31.24V29.7855C87.9839 30.0719 87.4108 30.1875 86.8459 30.1144Z" fill="#2C3B66"/>
<path d="M92.9727 21.9944L91.7734 23.1285C91.8538 23.429 91.8939 23.7388 91.8925 24.0499C91.8884 24.4046 91.8485 24.7579 91.7734 25.1046L92.9727 24.8636C93.0857 24.3581 93.1446 23.8421 93.1485 23.3241C93.1522 22.8748 93.093 22.4273 92.9727 21.9944Z" fill="#2C3B66"/>
<path d="M90.6707 27.6932L91.4106 28.4417C92.0699 27.4728 92.5651 26.4018 92.8764 25.272L91.6772 25.5158C91.4564 26.2893 91.1168 27.0239 90.6707 27.6932Z" fill="#2C3B66"/>
<path d="M85.3717 27.8208C85.3757 27.4661 85.4156 27.1128 85.4908 26.7661L84.2915 27.0071C84.1785 27.5126 84.1196 28.0287 84.1157 28.5466C84.1112 28.9978 84.1703 29.4474 84.2915 29.882L85.4908 28.7479C85.4101 28.4455 85.3701 28.1338 85.3717 27.8208Z" fill="#2C3B66"/>
<path d="M85.587 29.0286L84.3877 30.1626C84.5034 30.5043 84.6956 30.8149 84.9496 31.0709C85.2036 31.3269 85.5128 31.5215 85.8535 31.6398L86.5935 30.0379C86.3627 29.9525 86.1532 29.818 85.9794 29.6437C85.8057 29.4695 85.6718 29.2596 85.587 29.0286Z" fill="#2C3B66"/>
<path d="M88.7881 29.6041V31.0585C89.7138 30.4642 90.5182 29.6993 91.1583 28.8046L90.4183 28.0532C89.9727 28.6641 89.4204 29.1895 88.7881 29.6041Z" fill="#2C3B66"/>
<g opacity="0.2">
<path opacity="0.2" d="M90.4155 21.7648L91.1583 20.1572C90.3363 20.0412 89.4995 20.2114 88.7881 20.6392V22.0937C89.2796 21.8079 89.8516 21.6923 90.4155 21.7648Z" fill="black"/>
<path opacity="0.2" d="M91.6659 22.8479L92.8652 21.7138C92.7495 21.3722 92.5574 21.0616 92.3033 20.8056C92.0493 20.5496 91.7401 20.355 91.3994 20.2367L90.6594 21.8386C90.8902 21.924 91.0997 22.0585 91.2735 22.2328C91.4473 22.407 91.5811 22.6169 91.6659 22.8479Z" fill="black"/>
<path opacity="0.2" d="M86.8462 30.1145L86.1062 31.7193C86.7867 31.8582 87.6004 31.7193 88.4764 31.2401V29.7856C87.9841 30.072 87.411 30.1876 86.8462 30.1145Z" fill="black"/>
<path opacity="0.2" d="M92.973 21.9944L91.7737 23.1285C91.8541 23.429 91.8941 23.7388 91.8928 24.0499C91.8886 24.4046 91.8487 24.7579 91.7737 25.1046L92.973 24.8636C93.0859 24.3581 93.1449 23.8421 93.1488 23.3241C93.1524 22.8748 93.0933 22.4273 92.973 21.9944Z" fill="black"/>
<path opacity="0.2" d="M90.6707 27.6932L91.4106 28.4417C92.0699 27.4728 92.5651 26.4018 92.8764 25.272L91.6772 25.5158C91.4564 26.2893 91.1168 27.0239 90.6707 27.6932Z" fill="black"/>
<path opacity="0.2" d="M85.3717 27.8208C85.3757 27.4661 85.4156 27.1128 85.4908 26.7661L84.2915 27.0071C84.1785 27.5126 84.1196 28.0287 84.1157 28.5466C84.1112 28.9978 84.1703 29.4474 84.2915 29.882L85.4908 28.7479C85.4101 28.4455 85.3701 28.1338 85.3717 27.8208Z" fill="black"/>
<path opacity="0.2" d="M85.5872 29.0286L84.3879 30.1626C84.5036 30.5043 84.6958 30.8149 84.9498 31.0709C85.2039 31.3269 85.513 31.5215 85.8537 31.6398L86.5937 30.0379C86.3629 29.9525 86.1534 29.818 85.9797 29.6437C85.8059 29.4695 85.672 29.2596 85.5872 29.0286Z" fill="black"/>
<path opacity="0.2" d="M88.7881 29.6042V31.0587C89.7138 30.4643 90.5182 29.6994 91.1583 28.8047L90.4183 28.0533C89.9727 28.6642 89.4204 29.1896 88.7881 29.6042Z" fill="black"/>
</g>
<path d="M85.9358 27.4948C85.9358 25.7766 87.1436 23.6871 88.6321 22.8252C90.1206 21.9633 91.3284 22.6636 91.3284 24.3817C91.3284 26.0998 90.1206 28.2036 88.6321 29.0541C87.1436 29.9047 85.9358 29.2157 85.9358 27.4948Z" fill="#2C3B66"/>
<path opacity="0.2" d="M85.9358 27.4948C85.9358 25.7766 87.1436 23.6871 88.6321 22.8252C90.1206 21.9633 91.3284 22.6636 91.3284 24.3817C91.3284 26.0998 90.1206 28.2036 88.6321 29.0541C87.1436 29.9047 85.9358 29.2157 85.9358 27.4948Z" fill="black"/>
<path d="M88.3657 25.0536C88.3714 25.1641 88.3714 25.2748 88.3657 25.3853C88.3599 25.4762 88.3456 25.5664 88.3232 25.6547C88.2965 25.7447 88.2594 25.8313 88.2126 25.9127C88.1613 26.0003 88.0994 26.0812 88.0283 26.1537C87.9515 26.2302 87.8647 26.296 87.7703 26.3493C87.6911 26.3985 87.6037 26.4331 87.5123 26.4514C87.4503 26.4623 87.3865 26.4524 87.3308 26.423C87.281 26.3912 87.2423 26.3446 87.2203 26.2898C87.1932 26.22 87.1778 26.1462 87.1749 26.0715C87.1722 26.0186 87.1722 25.9656 87.1749 25.9127C87.1749 25.8617 87.1749 25.805 87.1749 25.7397C87.1803 25.6486 87.1955 25.5583 87.2203 25.4704C87.2469 25.3795 87.284 25.2919 87.3308 25.2096C87.3803 25.1223 87.4413 25.0422 87.5123 24.9714C87.5892 24.8949 87.6759 24.8291 87.7703 24.7758C87.8495 24.7266 87.9369 24.692 88.0283 24.6737C88.0903 24.6628 88.1541 24.6727 88.2098 24.7021C88.2596 24.7339 88.2983 24.7805 88.3203 24.8353C88.3475 24.9051 88.3628 24.9788 88.3657 25.0536ZM89.3127 23.9904C89.3281 23.9579 89.3461 23.9266 89.3665 23.8969C89.3894 23.8692 89.4173 23.8461 89.4487 23.8288L89.7606 23.6474C89.7796 23.6342 89.8031 23.6292 89.8258 23.6332C89.8428 23.6332 89.8514 23.6559 89.8514 23.6842C89.8514 23.7126 89.8514 23.6842 89.8514 23.7069C89.8525 23.7182 89.8525 23.7296 89.8514 23.7409L87.9801 27.6649C87.9646 27.6974 87.9466 27.7287 87.9262 27.7584C87.904 27.7867 87.876 27.8099 87.844 27.8265L87.5322 28.0079C87.5228 28.0146 87.5122 28.0192 87.501 28.0217C87.4898 28.0241 87.4782 28.0242 87.4669 28.0221C87.4499 28.0221 87.4414 27.9994 87.4414 27.9711C87.4404 27.9635 87.4404 27.9559 87.4414 27.9484C87.4402 27.9371 87.4402 27.9257 87.4414 27.9144L89.3127 23.9904ZM87.6115 25.7964C87.611 25.8483 87.6248 25.8993 87.6512 25.9439C87.6739 25.9694 87.7108 25.9666 87.7675 25.9439C87.8181 25.9152 87.8587 25.8717 87.8837 25.8191C87.9065 25.7572 87.9199 25.6922 87.9234 25.6263C87.9289 25.5319 87.9289 25.4372 87.9234 25.3428C87.9239 25.291 87.9102 25.24 87.8837 25.1954C87.861 25.1699 87.8242 25.1727 87.7675 25.1954C87.7168 25.2241 87.6763 25.2676 87.6512 25.3201C87.6284 25.382 87.615 25.447 87.6115 25.5129C87.607 25.6074 87.608 25.7021 87.6144 25.7964H87.6115ZM90.1207 25.5696C90.1292 25.68 90.1292 25.7909 90.1207 25.9014C90.116 25.997 90.1017 26.092 90.0782 26.1849C90.051 26.2756 90.014 26.3631 89.9676 26.4457C89.917 26.5329 89.855 26.613 89.7833 26.6839C89.7058 26.7604 89.6192 26.8271 89.5253 26.8823C89.4463 26.9313 89.3588 26.9649 89.2673 26.9816C89.2054 26.9939 89.1411 26.9839 89.0858 26.9532C89.036 26.9214 88.9973 26.8748 88.9753 26.82C88.9498 26.7507 88.9345 26.6781 88.9299 26.6045C88.9299 26.5478 88.9299 26.4939 88.9299 26.4429C88.9299 26.3918 88.9299 26.3351 88.9299 26.2699C88.9367 26.1789 88.9519 26.0888 88.9753 26.0006C89.0019 25.9096 89.039 25.8221 89.0858 25.7397C89.1367 25.6534 89.1976 25.5735 89.2673 25.5016C89.3447 25.4258 89.4314 25.36 89.5253 25.306C89.6045 25.2568 89.6919 25.2222 89.7833 25.2039C89.8453 25.1929 89.9091 25.2029 89.9648 25.2322C90.0146 25.264 90.0533 25.3106 90.0753 25.3655C90.1017 25.4307 90.1179 25.4995 90.1235 25.5696H90.1207ZM89.3694 26.3125C89.3689 26.3643 89.3826 26.4153 89.4091 26.4599C89.4317 26.4854 89.4714 26.4826 89.5253 26.4599C89.5771 26.4327 89.618 26.3887 89.6415 26.3351C89.6659 26.2737 89.6793 26.2084 89.6812 26.1423C89.6894 26.048 89.6894 25.9532 89.6812 25.8588C89.6828 25.8068 89.669 25.7555 89.6415 25.7114C89.6189 25.6859 89.582 25.6887 89.5253 25.7114C89.4747 25.7401 89.4341 25.7836 89.4091 25.8361C89.3865 25.8981 89.3731 25.9631 89.3694 26.0289C89.3649 26.1234 89.3658 26.2181 89.3722 26.3125H89.3694Z" fill="#FAFAFA"/>
<path d="M44.8679 63.1815V79.1409L58.6896 71.1598V55.2032L44.8679 63.1815Z" fill="#2C3B66"/>
<path opacity="0.7" d="M44.8679 63.1815V79.1409L58.6896 71.1598V55.2032L44.8679 63.1815Z" fill="#FAFAFA"/>
<path d="M44.8679 67.4003C45.3357 67.5817 45.9396 67.508 46.5974 67.1167C48.0859 66.2662 49.2937 64.1653 49.2937 62.4471C49.3297 61.8883 49.1431 61.338 48.7748 60.9161L44.8679 63.1701V67.4003Z" fill="#2C3B66"/>
<path d="M50.955 67.7945C51.0911 67.3465 51.3604 67.3267 51.5561 67.7548L53.5067 72.0076L56.4128 61.0041C56.5347 60.5505 56.736 60.5477 56.8607 61.0041L58.6895 67.4996V71.1627L48.0659 77.2981L50.955 67.7945Z" fill="#2C3B66"/>
<g opacity="0.2">
<path opacity="0.2" d="M44.8679 67.4003C45.3357 67.5817 45.9396 67.508 46.5974 67.1167C48.0859 66.2662 49.2937 64.1653 49.2937 62.4471C49.3297 61.8883 49.1431 61.338 48.7748 60.9161L44.8679 63.1701V67.4003Z" fill="black"/>
<path opacity="0.2" d="M50.955 67.7945C51.0911 67.3465 51.3604 67.3267 51.5561 67.7548L53.5067 72.0076L56.4128 61.0041C56.5347 60.5505 56.736 60.5477 56.8607 61.0041L58.6895 67.4996V71.1627L48.0659 77.2981L50.955 67.7945Z" fill="black"/>
</g>
<path d="M58.4061 55.7051V71.0152L45.1514 78.6703V63.3602L58.4061 55.7051ZM58.6896 55.2146L44.8679 63.1929V79.1523L58.6896 71.1712V55.2032V55.2146Z" fill="#2C3B66"/>
<path opacity="0.7" d="M58.4061 55.7051V71.0152L45.1514 78.6703V63.3602L58.4061 55.7051ZM58.6896 55.2146L44.8679 63.1929V79.1523L58.6896 71.1712V55.2032V55.2146Z" fill="#FAFAFA"/>
<path d="M63.2966 52.5438V68.5004L77.1154 60.5221V44.5656L63.2966 52.5438Z" fill="#2C3B66"/>
<path opacity="0.7" d="M63.2966 52.5438V68.5004L77.1154 60.5221V44.5656L63.2966 52.5438Z" fill="#FAFAFA"/>
<path d="M63.2966 56.7626C63.7644 56.944 64.3655 56.8675 65.0233 56.479C66.5118 55.6285 67.7196 53.5276 67.7196 51.8066C67.7551 51.2487 67.5686 50.6994 67.2007 50.2784L63.2966 52.5324V56.7626Z" fill="#2C3B66"/>
<path d="M69.381 57.1568C69.5199 56.706 69.7893 56.689 69.9849 57.1143L71.9327 61.3671L74.8416 50.3636C74.9607 49.91 75.162 49.9072 75.2896 50.3636L77.1155 56.8563V60.525L66.4919 66.6576L69.381 57.1568Z" fill="#2C3B66"/>
<g opacity="0.2">
<path opacity="0.2" d="M63.2966 56.7627C63.7644 56.9441 64.3655 56.8676 65.0233 56.4792C66.5118 55.6286 67.7196 53.5277 67.7196 51.8067C67.7551 51.2488 67.5686 50.6995 67.2007 50.2786L63.2966 52.5326V56.7627Z" fill="black"/>
<path opacity="0.2" d="M69.381 57.1568C69.5199 56.706 69.7893 56.689 69.9849 57.1143L71.9327 61.3671L74.8416 50.3636C74.9607 49.91 75.162 49.9072 75.2896 50.3636L77.1155 56.8563V60.525L66.4919 66.6576L69.381 57.1568Z" fill="black"/>
</g>
<path d="M76.8319 45.0561V60.3662L63.5802 68.0213V52.7111L76.8319 45.0561ZM77.1154 44.5627L63.2966 52.5439V68.5004L77.1154 60.525V44.5627Z" fill="#2C3B66"/>
<path opacity="0.7" d="M76.8319 45.0561V60.3662L63.5802 68.0213V52.7111L76.8319 45.0561ZM77.1154 44.5627L63.2966 52.5439V68.5004L77.1154 60.525V44.5627Z" fill="#FAFAFA"/>
<path d="M81.7227 41.9033V57.8627L95.5415 49.8845V33.925L81.7227 41.9033Z" fill="#2C3B66"/>
<path opacity="0.7" d="M81.7227 41.9033V57.8627L95.5415 49.8845V33.925L81.7227 41.9033Z" fill="#FAFAFA"/>
<path d="M81.7227 46.1249C82.1905 46.3063 82.7915 46.2298 83.4493 45.8414C84.9378 44.9908 86.1456 42.8927 86.1456 41.1718C86.1809 40.613 85.9945 40.0629 85.6267 39.6407L81.7227 41.8947V46.1249Z" fill="#2C3B66"/>
<path d="M87.807 46.5162C87.946 46.0682 88.2153 46.0512 88.4109 46.4765L90.3587 50.7293L93.2677 39.723C93.3867 39.2694 93.588 39.2694 93.7156 39.723L95.5415 46.2185V49.8844L84.918 56.017L87.807 46.5162Z" fill="#2C3B66"/>
<g opacity="0.2">
<path opacity="0.2" d="M81.7227 46.1249C82.1905 46.3063 82.7915 46.2298 83.4493 45.8414C84.9378 44.9908 86.1456 42.8927 86.1456 41.1718C86.1809 40.613 85.9945 40.0629 85.6267 39.6407L81.7227 41.8947V46.1249Z" fill="black"/>
<path opacity="0.2" d="M87.807 46.5162C87.946 46.0682 88.2153 46.0512 88.4109 46.4765L90.3587 50.7293L93.2677 39.723C93.3867 39.2694 93.588 39.2694 93.7156 39.723L95.5415 46.2185V49.8844L84.918 56.017L87.807 46.5162Z" fill="black"/>
</g>
<path d="M95.258 34.4155V49.7257L82.0062 57.3808V42.0706L95.258 34.4155ZM95.5415 33.925L81.7227 41.9033V57.8627L95.5415 49.8845V33.925Z" fill="#2C3B66"/>
<path opacity="0.7" d="M95.258 34.4155V49.7257L82.0062 57.3808V42.0706L95.258 34.4155ZM95.5415 33.925L81.7227 41.9033V57.8627L95.5415 49.8845V33.925Z" fill="#FAFAFA"/>
<path d="M93.8149 39.3856L97.8863 40.4715L96.5141 41.2455L99.0034 43.0686L98.6802 43.5676L96.1171 41.7332L95.7769 43.2302L93.8149 39.3856Z" fill="#263238"/>
<path d="M114.96 29.3574L106.069 34.4892C105.854 34.6288 105.676 34.8172 105.547 35.0389C105.419 35.2606 105.345 35.5093 105.332 35.765V42.9466L103.063 45.2885C102.737 45.6259 102.851 45.8555 103.316 45.7988L105.32 45.5635V48.6992C105.32 49.167 105.649 49.3598 106.057 49.1245L114.949 43.9899C115.163 43.8504 115.342 43.6621 115.47 43.4404C115.598 43.2187 115.672 42.9698 115.686 42.7141V29.7827C115.697 29.3121 115.368 29.1221 114.96 29.3574Z" fill="#37474F"/>
<path d="M108.295 37.1997L107.92 37.1714C107.427 37.1317 106.84 36.936 106.84 36.2301C106.854 35.9701 106.93 35.7172 107.06 35.4916C107.19 35.266 107.371 35.0742 107.589 34.9315C107.912 34.7473 108.187 34.8238 108.292 35.0903C108.399 34.6915 108.649 34.3462 108.995 34.1207C109.409 33.8825 109.743 34.0753 109.743 34.5545C109.743 35.2462 109.159 36.1223 108.669 36.7347L108.295 37.1997Z" fill="#FAFAFA"/>
<path d="M111.827 33.151L113.812 32.0169C114.217 31.7816 114.549 31.8894 114.549 32.2579C114.518 32.4839 114.436 32.6998 114.308 32.8886C114.18 33.0775 114.01 33.2343 113.812 33.3467L111.827 34.4807C111.419 34.7161 111.09 34.6083 111.09 34.2397C111.12 34.0135 111.202 33.7974 111.33 33.6085C111.458 33.4195 111.628 33.2629 111.827 33.151Z" fill="#FAFAFA"/>
<path d="M107.574 39.5075L109.559 38.3734C109.967 38.1381 110.296 38.2458 110.296 38.6116C110.267 38.8383 110.185 39.0549 110.057 39.2444C109.929 39.4339 109.758 39.5909 109.559 39.7031L107.574 40.8372C107.169 41.0725 106.84 40.9648 106.84 40.599C106.87 40.3727 106.952 40.1564 107.079 39.967C107.206 39.7776 107.376 39.6203 107.574 39.5075Z" fill="#FAFAFA"/>
<path d="M107.574 42.2804L113.812 38.6825C114.217 38.4472 114.549 38.5549 114.549 38.9206C114.519 39.1471 114.436 39.3636 114.309 39.5529C114.181 39.7423 114.011 39.8995 113.812 40.0122L107.574 43.6101C107.169 43.8454 106.84 43.7377 106.84 43.3719C106.87 43.1456 106.952 42.9293 107.079 42.7399C107.206 42.5505 107.376 42.3932 107.574 42.2804Z" fill="#FAFAFA"/>
<path d="M107.574 44.8688L113.812 41.271C114.217 41.0356 114.549 41.1434 114.549 41.512C114.518 41.738 114.436 41.9538 114.308 42.1427C114.18 42.3315 114.01 42.4883 113.812 42.6007L107.574 46.1986C107.169 46.4339 106.84 46.3262 106.84 45.9604C106.87 45.7341 106.952 45.5178 107.079 45.3284C107.206 45.139 107.376 44.9817 107.574 44.8688Z" fill="#FAFAFA"/>
<path d="M14.3499 96.7532L28.1687 104.731L41.9903 96.7532L28.1687 88.7721L14.3499 96.7532Z" fill="#2C3B66"/>
<path opacity="0.7" d="M14.3499 96.7532L28.1687 104.731L41.9903 96.7532L28.1687 88.7721L14.3499 96.7532Z" fill="#FAFAFA"/>
<path d="M18.0044 98.8626C18.8273 98.8352 19.6327 98.6178 20.3577 98.2275C21.8461 97.3769 21.8461 95.9593 20.3577 95.1088C19.7087 94.7552 18.9912 94.5453 18.2539 94.4935L14.3499 96.7532L18.0044 98.8626Z" fill="#2C3B66"/>
<path d="M27.474 97.3033C27.2897 97.0368 27.6782 96.9517 28.3416 97.1077L34.9618 98.6727L29.7932 92.3303C29.5806 92.0695 29.8783 92.01 30.4623 92.1999L38.829 94.9217L42.0016 96.7533L31.3781 102.886L27.474 97.3033Z" fill="#2C3B66"/>
<g opacity="0.2">
<path opacity="0.2" d="M18.0044 98.8626C18.8273 98.8352 19.6327 98.6178 20.3577 98.2275C21.8461 97.3769 21.8461 95.9593 20.3577 95.1088C19.7087 94.7552 18.9912 94.5453 18.2539 94.4935L14.3499 96.7532L18.0044 98.8626Z" fill="black"/>
<path opacity="0.2" d="M27.474 97.3033C27.2897 97.0368 27.6782 96.9517 28.3416 97.1077L34.9618 98.6727L29.7932 92.3303C29.5806 92.0695 29.8783 92.01 30.4623 92.1999L38.829 94.9217L42.0016 96.7533L31.3781 102.886L27.474 97.3033Z" fill="black"/>
</g>
<path d="M28.1573 89.1011L41.4119 96.7561L28.1573 104.411L14.9056 96.7561L28.1573 89.1011ZM28.1573 88.775L14.3499 96.7533L28.1573 104.732L41.979 96.7533L28.1573 88.775Z" fill="#2C3B66"/>
<path opacity="0.7" d="M28.1573 89.1011L41.4119 96.7561L28.1573 104.411L14.9056 96.7561L28.1573 89.1011ZM28.1573 88.775L14.3499 96.7533L28.1573 104.732L41.979 96.7533L28.1573 88.775Z" fill="#FAFAFA"/>
<path d="M14.3499 96.7533V98.083L28.1687 106.061V104.732L14.3499 96.7533Z" fill="#2C3B66"/>
<path opacity="0.6" d="M14.3499 96.7533V98.083L28.1687 106.061V104.732L14.3499 96.7533Z" fill="#FAFAFA"/>
<path d="M41.9904 96.7533L28.1687 104.732V106.061L41.9904 98.083V96.7533Z" fill="#2C3B66"/>
<path opacity="0.1" d="M41.9904 96.7533L28.1687 104.732V106.061L41.9904 98.083V96.7533Z" fill="#FAFAFA"/>
<path d="M121.455 66.8532L107.634 58.8749L93.8149 66.8532L107.634 74.8314L121.455 66.8532Z" fill="#263238"/>
<path d="M107.634 58.8749L93.8149 66.8532V77.4909L107.634 85.472V58.8749Z" fill="#263238"/>
<path d="M97.2709 79.4869L94.9688 63.5303L108.788 55.552L111.093 71.5086L97.2709 79.4869Z" fill="#2C3B66"/>
<path opacity="0.7" d="M97.2709 79.4869L94.9688 63.5303L108.788 55.552L111.093 71.5086L97.2709 79.4869Z" fill="#FAFAFA"/>
<path d="M94.9688 63.5303L93.6362 63.2411L95.8647 78.676L97.271 79.4869L94.9688 63.5303Z" fill="#2C3B66"/>
<path opacity="0.1" d="M94.9688 63.5303L93.6362 63.2411L95.8647 78.676L97.271 79.4869L94.9688 63.5303Z" fill="#FAFAFA"/>
<path d="M107.458 55.2628L108.788 55.552L94.9688 63.5303L93.6362 63.2411L107.458 55.2628Z" fill="#2C3B66"/>
<path opacity="0.6" d="M107.458 55.2628L108.788 55.552L94.9688 63.5303L93.6362 63.2411L107.458 55.2628Z" fill="#FAFAFA"/>
<path d="M99.0911 63.4113C99.0197 63.0779 98.8757 62.7643 98.6694 62.4929C98.4631 62.2214 98.1996 61.9987 97.8975 61.8406L94.9688 63.5417L95.4054 66.564C95.6829 66.7053 95.9858 66.7898 96.2964 66.8126C96.607 66.8355 96.919 66.7963 97.2142 66.6973C97.8769 66.4768 98.4348 66.0196 98.7812 65.4132C99.1275 64.8069 99.2379 64.094 99.0911 63.4113Z" fill="#2C3B66"/>
<path opacity="0.2" d="M99.0911 63.4113C99.0197 63.0779 98.8757 62.7643 98.6694 62.4929C98.4631 62.2214 98.1996 61.9987 97.8975 61.8406L94.9688 63.5417L95.4054 66.564C95.6829 66.7053 95.9858 66.7898 96.2964 66.8126C96.607 66.8355 96.919 66.7963 97.2142 66.6973C97.8769 66.4768 98.4348 66.0196 98.7812 65.4132C99.1275 64.8069 99.2379 64.094 99.0911 63.4113Z" fill="black"/>
<path d="M102.219 64.0775C102.306 63.6153 102.545 63.5842 102.752 64.0066L104.787 68.18L106.341 59.2463C106.42 58.7841 106.664 58.7445 106.885 59.1584L110.205 65.3647L111.093 71.5029L99.5761 78.1571C99.5534 78.0324 101.62 67.2019 102.219 64.0775Z" fill="#2C3B66"/>
<path opacity="0.2" d="M102.219 64.0775C102.306 63.6153 102.545 63.5842 102.752 64.0066L104.787 68.18L106.341 59.2463C106.42 58.7841 106.664 58.7445 106.885 59.1584L110.205 65.3647L111.093 71.5029L99.5761 78.1571C99.5534 78.0324 101.62 67.2019 102.219 64.0775Z" fill="black"/>
<path d="M108.566 56.0056L110.784 71.3583L97.4921 79.0332L95.275 63.6806L108.566 56.0056ZM108.788 55.552L94.9688 63.5303L97.2709 79.4869L111.093 71.5086L108.788 55.552Z" fill="#2C3B66"/>
<path opacity="0.7" d="M108.566 56.0056L110.784 71.3583L97.4921 79.0332L95.275 63.6806L108.566 56.0056ZM108.788 55.552L94.9688 63.5303L97.2709 79.4869L111.093 71.5086L108.788 55.552Z" fill="#FAFAFA"/>
<path d="M101.878 82.1463L99.5732 66.1897L113.395 58.2114L115.697 74.168L101.878 82.1463Z" fill="#2C3B66"/>
<path opacity="0.7" d="M101.878 82.1463L99.5732 66.1897L113.395 58.2114L115.697 74.168L101.878 82.1463Z" fill="#FAFAFA"/>
<path d="M99.5734 66.1897L98.2437 65.9005L100.472 81.3354L101.878 82.1463L99.5734 66.1897Z" fill="#2C3B66"/>
<path opacity="0.1" d="M99.5734 66.1897L98.2437 65.9005L100.472 81.3354L101.878 82.1463L99.5734 66.1897Z" fill="#FAFAFA"/>
<path d="M112.062 57.9222L113.395 58.2114L99.5734 66.1897L98.2437 65.9005L112.062 57.9222Z" fill="#2C3B66"/>
<path opacity="0.6" d="M112.062 57.9222L113.395 58.2114L99.5734 66.1897L98.2437 65.9005L112.062 57.9222Z" fill="#FAFAFA"/>
<path d="M103.696 66.0706C103.625 65.7366 103.481 65.4224 103.275 65.1504C103.068 64.8784 102.805 64.6553 102.502 64.4971L99.5732 66.1982L100.01 69.2205C100.287 69.3618 100.59 69.4463 100.901 69.4691C101.211 69.492 101.523 69.4528 101.819 69.3538C102.481 69.1334 103.038 68.6766 103.385 68.0708C103.731 67.4651 103.842 66.7529 103.696 66.0706Z" fill="#2C3B66"/>
<path opacity="0.2" d="M103.696 66.0706C103.625 65.7366 103.481 65.4224 103.275 65.1504C103.068 64.8784 102.805 64.6553 102.502 64.4971L99.5732 66.1982L100.01 69.2205C100.287 69.3618 100.59 69.4463 100.901 69.4691C101.211 69.492 101.523 69.4528 101.819 69.3538C102.481 69.1334 103.038 68.6766 103.385 68.0708C103.731 67.4651 103.842 66.7529 103.696 66.0706Z" fill="black"/>
<path d="M106.826 66.7369C106.913 66.2747 107.152 66.2435 107.359 66.666L109.394 70.8422L110.945 61.9113C111.025 61.4464 111.271 61.4095 111.492 61.8234L114.812 68.0297L115.697 74.1679L104.18 80.8165C104.158 80.6918 106.227 69.8613 106.826 66.7369Z" fill="#2C3B66"/>
<path opacity="0.2" d="M106.826 66.7369C106.913 66.2747 107.152 66.2435 107.359 66.666L109.394 70.8422L110.945 61.9113C111.025 61.4464 111.271 61.4095 111.492 61.8234L114.812 68.0297L115.697 74.1679L104.18 80.8165C104.158 80.6918 106.227 69.8613 106.826 66.7369Z" fill="black"/>
<path d="M113.174 58.6651L115.391 74.0177L102.099 81.6926L99.8879 66.34L113.179 58.6651H113.174ZM113.401 58.2114L99.5732 66.1954L101.873 82.1463L115.691 74.168L113.389 58.2114H113.401Z" fill="#2C3B66"/>
<path opacity="0.7" d="M113.174 58.6651L115.391 74.0177L102.099 81.6926L99.8879 66.34L113.179 58.6651H113.174ZM113.401 58.2114L99.5732 66.1954L101.873 82.1463L115.691 74.168L113.389 58.2114H113.401Z" fill="#FAFAFA"/>
<path d="M107.634 85.472L121.455 77.4937V66.8531L107.634 74.8314V85.472Z" fill="#37474F"/>
<path d="M107.637 74.8314L93.8149 66.8531V77.4909L107.637 85.4748V74.8314ZM101.717 74.0744L99.732 72.9403C99.5328 72.8282 99.3625 72.6711 99.2345 72.4817C99.1065 72.2922 99.0245 72.0755 98.9949 71.8488C98.9949 71.4802 99.3238 71.3753 99.732 71.6078L101.717 72.7419C101.915 72.8546 102.085 73.0118 102.213 73.2011C102.341 73.3905 102.424 73.6069 102.454 73.8334C102.454 74.202 102.122 74.3098 101.717 74.0744Z" fill="#455A64"/>
<path d="M121.457 66.852L107.636 74.8317L111.091 80.8154L124.912 72.8357L121.457 66.852Z" fill="#455A64"/>
<path d="M93.8149 69.5126L92.6638 70.1788L93.8149 66.8531V69.5126Z" fill="#263238"/>
<path d="M44.4058 17.4525L43.5156 17.7956V15.8308C43.5156 14.2742 42.2709 13.9 40.9214 14.6797C39.5718 15.4565 38.4803 17.3533 38.4803 18.9098V19.1933C38.2903 19.1346 38.0894 19.1199 37.8929 19.1504C37.6964 19.1809 37.5095 19.2556 37.3462 19.3691C36.8335 19.702 36.4068 20.1514 36.1008 20.6806C35.7948 21.2097 35.6183 21.8037 35.5855 22.4141V22.5445L34.3437 23.2619C34.006 23.4808 33.7249 23.7766 33.5234 24.125C33.3219 24.4733 33.2056 24.8645 33.1841 25.2663C33.1841 26.0063 33.7029 26.304 34.3437 25.9355L44.4058 20.1261C44.7439 19.9068 45.0252 19.6106 45.2268 19.2617C45.4283 18.9128 45.5444 18.5212 45.5654 18.1188C45.5654 17.3845 45.0466 17.0839 44.4058 17.4525Z" fill="#F0F0F0"/>
<path d="M64.2152 93.3936L64.1642 91.6783L65.5818 91.4344L65.664 92.8974C65.7321 93.2376 65.9731 93.3482 66.0354 93.541C66.0978 93.7338 65.0658 95.6958 64.4874 96.1296C63.909 96.5633 62.9677 96.0076 62.877 95.8007C62.7863 95.5937 63.651 95.7468 63.7928 95.4463C63.9856 95.0437 64.2152 93.3936 64.2152 93.3936Z" fill="#FFA8A7"/>
<path d="M65.7917 93.1809C65.6046 93.3368 65.4628 93.7309 65.2048 94.2696C64.9468 94.8083 64.581 95.6872 64.1813 95.8035C63.7163 95.9509 62.8034 95.6844 63.3846 95.639C63.5122 95.639 63.7362 95.5823 63.7957 95.4462C63.8186 95.399 63.8366 95.3496 63.8496 95.2988C63.6484 95.3534 63.4392 95.3725 63.2315 95.3555C63.0772 95.3316 62.9193 95.3516 62.7759 95.4133C62.6325 95.475 62.5093 95.5758 62.4206 95.7042C62.3242 95.8488 62.4802 96.0927 62.4802 96.0927C62.6588 96.311 62.9905 96.5293 63.756 96.586C64.5215 96.6427 64.9751 96.5321 65.2501 96.019C65.6045 95.4454 65.9926 94.8934 66.4126 94.366C66.6989 93.9266 66.2368 93.2972 65.7917 93.1809Z" fill="#263238"/>
<path d="M63.8412 95.3299C63.7958 95.4462 63.4584 95.483 63.2912 95.5057C63.1239 95.5284 63.0417 95.6843 63.3138 95.7722C63.7845 95.8204 64.017 95.3214 63.8412 95.3299Z" fill="#FFA8A7"/>
<path d="M77.6572 87.8479L76.4778 86.6089L77.3794 85.4749L78.4114 86.5154C78.6949 86.7252 78.9444 86.6486 79.1174 86.7507C79.2903 86.8528 79.8233 89.0189 79.6844 89.7163C79.5455 90.4138 78.4681 90.6321 78.2668 90.5357C78.0655 90.4393 78.8112 89.9828 78.7176 89.6653C78.5787 89.2343 77.6572 87.8479 77.6572 87.8479Z" fill="#FFA8A7"/>
<path d="M78.6948 86.6429C78.6579 86.8839 78.811 87.2723 78.9783 87.845C79.1456 88.4177 79.449 89.3165 79.2306 89.6737C78.9811 90.0905 78.1221 90.4988 78.5275 90.0792C78.6154 89.9856 78.7515 89.7956 78.7061 89.6624C78.6918 89.6116 78.6729 89.5622 78.6494 89.515C78.5336 89.6895 78.3888 89.8429 78.2213 89.9686C78.0899 90.0521 77.9851 90.1715 77.9192 90.3127C77.8534 90.4539 77.8294 90.6109 77.8499 90.7653C77.8726 90.9382 78.1504 91.0176 78.1504 91.0176C78.4339 91.063 78.8224 91.0034 79.4319 90.5413C80.0415 90.0792 80.308 89.6907 80.1691 89.1237C80.0542 88.4595 79.9776 87.7893 79.9394 87.1164C79.8686 86.6089 79.1031 86.4331 78.6948 86.6429Z" fill="#263238"/>
<path d="M78.6609 89.5434C78.7034 89.6625 78.4737 89.912 78.3632 90.0424C78.2526 90.1728 78.2951 90.3401 78.5588 90.2238C78.9444 89.9488 78.7856 89.4215 78.6609 89.5434Z" fill="#FFA8A7"/>
<path d="M68.1026 61.5796C68.4797 60.2697 68.2415 59.473 67.9523 58.3389C67.4193 56.2636 66.9146 54.1797 66.9146 54.1797C66.9146 54.1797 66.5376 46.2751 66.5206 45.555C66.5007 44.7044 66.3363 44.2281 66.2654 43.508C66.2257 43.0997 65.9337 43.0572 65.962 43.0713V44.6704C65.7006 44.4369 65.4535 44.1879 65.222 43.9247C64.9555 43.6044 64.6862 43.6412 64.6011 43.8028C64.5161 43.9644 64.9555 44.2791 65.1682 44.6959C65.4077 45.1124 65.6738 45.5129 65.9649 45.8952V50.2161L64.8308 50.8738L64.6096 55.0019L66.3731 61.4237L68.1026 61.5796Z" fill="#FFA8A7"/>
<path d="M62.9565 58.8663L63.2004 61.0154L65.3183 61.2592L65.0121 58.407L62.9565 58.8663Z" fill="#FFA8A7"/>
<path d="M52.1401 42.2378V58.1944L65.9618 50.2161V34.2567L52.1401 42.2378Z" fill="#2C3B66"/>
<path opacity="0.7" d="M52.1401 42.2378V58.1944L65.9618 50.2161V34.2567L52.1401 42.2378Z" fill="#FAFAFA"/>
<path d="M52.1401 46.4567C52.6079 46.6381 53.2118 46.5616 53.8696 46.1732C55.3581 45.3226 56.5659 43.2217 56.5659 41.5007C56.6006 40.9421 56.4143 40.3922 56.0471 39.9697L52.1401 42.2379V46.4567Z" fill="#2C3B66"/>
<path opacity="0.2" d="M52.1401 46.4567C52.6079 46.6381 53.2118 46.5616 53.8696 46.1732C55.3581 45.3226 56.5659 43.2217 56.5659 41.5007C56.6006 40.9421 56.4143 40.3922 56.0471 39.9697L52.1401 42.2379V46.4567Z" fill="black"/>
<path d="M58.2275 46.8508C58.3635 46.4 58.6329 46.383 58.8285 46.8082L60.7791 51.0611L63.6881 40.0576C63.8072 39.604 64.0085 39.6011 64.1332 40.0576L65.9619 46.5531V50.219L55.3384 56.3516L58.2275 46.8508Z" fill="#2C3B66"/>
<path opacity="0.2" d="M58.2275 46.8508C58.3635 46.4 58.6329 46.383 58.8285 46.8082L60.7791 51.0611L63.6881 40.0576C63.8072 39.604 64.0085 39.6011 64.1332 40.0576L65.9619 46.5531V50.219L55.3384 56.3516L58.2275 46.8508Z" fill="black"/>
<path d="M65.6783 34.75V50.0602L52.4237 57.7152V42.4051L65.6783 34.75ZM65.9618 34.2567L52.1401 42.2378V58.1944L65.9618 50.2161V34.2567Z" fill="#2C3B66"/>
<path opacity="0.7" d="M65.6783 34.75V50.0602L52.4237 57.7152V42.4051L65.6783 34.75ZM65.9618 34.2567L52.1401 42.2378V58.1944L65.9618 50.2161V34.2567Z" fill="#FAFAFA"/>
<path d="M52.1404 58.1944L50.9893 57.5309V41.5715L52.1404 42.2378V58.1944Z" fill="#2C3B66"/>
<path opacity="0.1" d="M52.1404 58.1944L50.9893 57.5309V41.5715L52.1404 42.2378V58.1944Z" fill="#FAFAFA"/>
<path d="M50.9893 41.5715L64.8081 33.5933L65.962 34.2567L52.1404 42.2378L50.9893 41.5715Z" fill="#2C3B66"/>
<path opacity="0.6" d="M50.9893 41.5715L64.8081 33.5933L65.962 34.2567L52.1404 42.2378L50.9893 41.5715Z" fill="#FAFAFA"/>
<path d="M68.1025 61.5797C68.0657 61.764 67.9806 62.1269 67.819 62.7393C67.5071 63.8734 67.0365 65.4809 66.8352 66.0168C66.8352 66.0395 66.8182 66.0593 66.8097 66.0763L67.6461 67.4372C67.6461 67.4372 67.079 68.1319 65.4176 68.6167C63.7561 69.1015 61.7318 68.1177 61.7318 68.1177C61.7318 68.1177 61.3037 65.8722 61.2243 65.2428C61.2243 65.2059 61.2243 65.1492 61.2016 65.084C61.1846 64.9507 61.1676 64.8317 61.1421 64.7211C61.1421 64.7211 61.1421 64.7012 61.1421 64.6899C61.1109 64.5538 61.0882 64.3724 61.0485 64.1711C61.0033 63.8241 60.8768 63.4928 60.6792 63.2041C60.4816 62.9153 60.2186 62.6774 59.9116 62.5096C59.6763 62.382 54.7912 60.4484 54.02 59.9778C53.8229 59.876 53.6505 59.732 53.5153 59.5561C53.3801 59.3802 53.2852 59.1766 53.2375 58.9599C53.1298 58.6622 51.6441 53.7573 51.4683 53.2697C51.3195 52.8632 51.0698 52.5012 50.7425 52.2178C50.3569 51.8039 50.2208 51.7103 50.1018 51.3389C49.9827 50.9675 50.133 50.8768 50.1925 50.6925C50.2747 50.4373 50.1925 50.2587 50.2379 50.0659C50.3087 49.8249 50.4562 49.7625 50.493 49.6548C50.5113 49.4635 50.5445 49.2739 50.5923 49.0877C50.6695 48.9085 50.8083 48.7627 50.9835 48.6766V49.2437C51.1962 50.1141 52.1516 50.5422 52.2735 50.4798C52.3955 50.4175 52.5741 49.9128 52.8406 49.703C53.1071 49.4932 53.4757 49.513 53.3396 49.7767C53.263 49.9298 53.0872 50.4997 52.9965 50.752C52.9058 51.0043 52.6364 51.5345 52.696 51.94C52.7725 52.4815 55.2902 58.064 55.2902 58.064C55.2902 58.064 58.0262 58.9599 60.198 59.6347C61.5447 60.0543 62.6532 60.3123 62.6532 60.3123L63.3252 60.1933L63.5775 60.1479L66.8494 59.5468L66.9684 59.5242C67.0757 59.51 67.1844 59.51 67.2916 59.5242C67.4419 59.5685 67.5811 59.6439 67.7002 59.7455C67.8194 59.8471 67.9159 59.9726 67.9834 60.1139C68.1945 60.5732 68.2367 61.0923 68.1025 61.5797Z" fill="#FFA8A7"/>
<path d="M63.3621 69.2603C63.3621 69.2603 67.4788 79.3139 67.853 80.2325C68.0894 80.9038 68.554 81.4708 69.1657 81.8344C69.7158 82.2172 76.886 87.1533 76.886 87.1533C77.9832 86.6968 78.0059 85.9823 78.0059 85.9823C78.0059 85.9823 74.3031 81.2617 73.5206 80.5812C72.7381 79.9008 71.2893 79.5549 71.2893 79.5549L69.4663 71.8998C69.2224 70.7261 69.3727 69.4275 67.6262 67.4287L63.3621 69.2603Z" fill="#37474F"/>
<path d="M64.649 68.6988C65.4996 69.8782 66.2793 70.9159 66.5004 72.274C66.9654 75.1461 65.8398 78.6504 65.7037 80.7938C66.1124 81.4405 66.3611 82.1753 66.4296 82.9372C66.4692 83.819 65.6924 91.9362 65.6924 91.9362C65.2123 92.2012 64.6584 92.3008 64.116 92.2197C64.116 92.2197 62.3865 80.4904 62.0548 76.6771C61.7231 72.8637 61.7146 68.1289 61.7146 68.1289L64.649 68.6988Z" fill="#37474F"/>
<path d="M61.59 55.6711C61.4798 55.3684 61.448 55.0428 61.4976 54.7245C61.5472 54.4062 61.6765 54.1057 61.8736 53.8509C62.6816 52.7593 64.2183 52.2944 65.8429 52.8586C66.6509 53.1421 67.6375 54.0607 67.612 56.0539C67.595 57.2758 64.1417 57.9336 64.1587 58.7728L61.59 55.6711Z" fill="#263238"/>
<path d="M61.4851 56.1276C61.4851 56.1276 60.9719 56.8335 61.0314 56.9158C61.1403 56.9943 61.2622 57.0528 61.3915 57.0887L61.4851 56.1276Z" fill="#F28F8F"/>
<path d="M63.0586 53.8849C62.5794 54.106 61.7515 54.5171 61.4652 56.2324C61.1817 57.9959 61.4652 58.5743 61.6892 58.8181C61.8451 58.9826 62.724 59.0223 63.1663 58.906C63.7333 58.7586 64.9808 58.339 65.5791 57.4402C66.2822 56.394 66.4807 54.9679 65.7492 54.3725C65.3782 54.071 64.937 53.8681 64.4666 53.7829C63.9961 53.6976 63.5118 53.7327 63.0586 53.8849Z" fill="#FFA8A7"/>
<path d="M61.7146 68.1205L67.6374 67.4373C68.0541 68.1205 69.055 69.2886 68.8423 70.4114C68.5843 71.7695 67.8528 72.7249 65.6158 73.3912" fill="#37474F"/>
<path d="M67.5665 63.6096C67.266 64.7238 67.0193 65.5092 66.8294 66.0167C66.8294 66.0394 66.8124 66.0592 66.8039 66.0762L67.6403 67.4371C67.6403 67.4371 67.0732 68.1318 65.4118 68.6166C63.7503 69.1014 61.726 68.1176 61.726 68.1176C61.726 68.1176 61.2979 65.8721 61.2185 65.2427C61.2185 65.2058 61.2185 65.1491 61.1958 65.0839C61.1731 65.0187 61.159 64.8514 61.1363 64.721C61.1363 64.721 61.1363 64.7012 61.1363 64.6898C61.0994 64.4658 61.0597 64.2475 61.0427 64.171C63.1776 63.2183 62.6758 60.3037 62.6758 60.3037L63.3477 60.1847L63.6001 60.1393C64.5782 59.9664 65.2757 59.8359 66.1518 59.663C66.1858 59.6545 68.0542 61.7951 67.5665 63.6096Z" fill="#FAFAFA"/>
<path d="M66.9997 65.5007C66.3207 65.935 65.6043 66.3079 64.8591 66.615C65.5414 66.6008 66.2092 66.4155 66.8012 66.0763L66.9997 65.5007Z" fill="#F0F0F0"/>
<path d="M62.9169 53.953C62.9169 53.953 62.4378 55.5492 62.8801 56.5926C62.8801 56.5926 63.1948 55.9745 63.7306 56.1814C64.2665 56.3884 64.1871 57.1114 63.7306 57.463C63.6167 57.5645 63.4764 57.6317 63.3259 57.6568C63.1753 57.6819 63.0208 57.6638 62.8801 57.6047C62.9034 58.1227 63.0922 58.6196 63.4188 59.0223C63.98 59.2135 64.5838 59.2423 65.1606 59.1054C65.7374 58.9685 66.2639 58.6714 66.6793 58.2483C68.0487 56.9073 67.992 54.3924 66.0895 53.6638C64.1871 52.9351 62.9169 53.953 62.9169 53.953Z" fill="#263238"/>
<path d="M66.3616 76.5893L66.8464 72.6908C66.8464 72.6908 68.264 72.1522 68.8736 71.3186C68.5995 72.0416 68.1031 72.659 67.456 73.0821C67.3596 73.204 66.6054 77.2017 66.6054 77.2017L66.3616 76.5893Z" fill="#263238"/>
<path d="M68.5108 55.5548C67.853 55.8383 67.3569 55.3167 66.9968 54.4831C66.6367 53.6495 66.5573 52.816 67.2123 52.5325C67.8672 52.249 68.6582 52.782 69.0155 53.6155C69.3727 54.4491 69.1657 55.2713 68.5108 55.5548Z" fill="#263238"/>
<path d="M65.9619 44.6704C65.7673 44.5578 65.6006 44.4028 65.4742 44.2168C65.2757 43.9333 64.9922 43.7972 64.8221 43.8936C64.6974 43.9616 64.8448 44.1771 64.9384 44.3557C65.0762 44.7019 65.2676 45.0243 65.5054 45.3112C65.7691 45.555 65.959 45.6145 65.959 45.8952C66.1038 45.7315 66.1799 45.5183 66.1717 45.2998C66.1691 45.0733 66.0958 44.8532 65.9619 44.6704Z" fill="#FFA8A7"/>
</svg>
