<svg width="32" height="32" viewBox="0 0 32 32" fill="none" xmlns="http://www.w3.org/2000/svg">
<path d="M18.9671 6.64368L19.3233 6.99996H12.8C12.1104 6.99996 11.4491 7.27389 10.9615 7.76148C10.4739 8.24908 10.2 8.9104 10.2 9.59996C10.2 10.2895 10.4739 10.9508 10.9615 11.4384C11.4491 11.926 12.1104 12.2 12.8 12.2H19.3233L18.9616 12.5617L18.9555 12.5678L18.9495 12.574C18.4759 13.0644 18.2138 13.7212 18.2197 14.4029C18.2256 15.0846 18.4991 15.7367 18.9811 16.2188C19.4632 16.7008 20.1153 16.9743 20.797 16.9802C21.4787 16.9861 22.1355 16.7241 22.6259 16.2504L22.6321 16.2444L22.6383 16.2383L27.4383 11.4383L27.4384 11.4382C27.9258 10.9506 28.1996 10.2894 28.1996 9.59996C28.1996 8.91053 27.9258 8.24933 27.4384 7.76176L27.4383 7.76165L22.6437 2.96705C22.4052 2.722 22.1207 2.52637 21.8065 2.39138C21.4893 2.25512 21.1481 2.1834 20.8029 2.1804C20.4577 2.1774 20.1153 2.24318 19.7958 2.37391C19.4762 2.50464 19.1859 2.6977 18.9418 2.94182C18.6977 3.18594 18.5046 3.47624 18.3739 3.79577L19.2994 4.17443L18.3739 3.79577C18.2432 4.11529 18.1774 4.45766 18.1804 4.80289C18.1834 5.14812 18.2551 5.48929 18.3914 5.8065L18.3914 5.8065C18.5264 6.12074 18.722 6.40522 18.9671 6.64368Z" stroke="#2C3B66" stroke-width="2"/>
<path d="M4.56164 20.5617L4.56154 20.5618C4.07411 21.0494 3.80029 21.7106 3.80029 22.4C3.80029 23.0894 4.07411 23.7506 4.56154 24.2382L4.56164 24.2383L9.36164 29.0383L9.36779 29.0445L9.37404 29.0505C9.86441 29.5241 10.5212 29.7862 11.2029 29.7802C11.8846 29.7743 12.5367 29.5009 13.0188 29.0188C13.5008 28.5368 13.7743 27.8847 13.7802 27.2029C13.7861 26.5212 13.524 25.8645 13.0504 25.3741L13.0444 25.3678L13.0383 25.3617L12.6766 25H19.2C19.8895 25 20.5508 24.7261 21.0384 24.2385C21.526 23.7509 21.7999 23.0896 21.7999 22.4C21.7999 21.7104 21.526 21.0491 21.0384 20.5615C20.5508 20.0739 19.8895 19.8 19.2 19.8H12.6766L13.0328 19.4437C13.2779 19.2053 13.4735 18.9208 13.6085 18.6065L12.7498 18.2377L13.6085 18.6065C13.7448 18.2893 13.8165 17.9482 13.8195 17.6029C13.8225 17.2577 13.7567 16.9153 13.626 16.5958C13.4953 16.2763 13.3022 15.986 13.0581 15.7419C12.814 15.4977 12.5237 15.3047 12.2041 15.174C11.8846 15.0432 11.5422 14.9774 11.197 14.9804C10.8518 14.9834 10.5106 15.0552 10.1934 15.1914C9.87918 15.3264 9.59469 15.5221 9.35623 15.7671L4.56164 20.5617Z" stroke="#2C3B66" stroke-width="2"/>
</svg>
