<svg width="176" height="176" viewBox="0 0 176 176" fill="none" xmlns="http://www.w3.org/2000/svg">
<circle cx="88" cy="88" r="88" fill="#4D67B2" fill-opacity="0.1"/>
<path d="M88 83.8333L100.5 96.3333M88 83.8333V125.5V83.8333ZM88 83.8333L75.5 96.3333L88 83.8333Z" stroke="#4D67B2" stroke-width="3" stroke-linecap="round" stroke-linejoin="round"/>
<path d="M58.9748 75.9875C55.034 76.9791 51.591 79.3756 49.2925 82.7268C46.9941 86.078 45.9985 90.1531 46.4927 94.1866C46.987 98.22 48.9371 101.934 51.9767 104.631C55.0163 107.328 58.9362 108.823 62.9998 108.833H67.1665" stroke="#4D67B2" stroke-width="3" stroke-linecap="round" stroke-linejoin="round"/>
<path d="M103.958 67.7416C102.534 62.1024 99.0186 57.2156 94.125 54.0719C89.2315 50.9282 83.3257 49.7629 77.6048 50.8121C71.8838 51.8613 66.7759 55.0466 63.3164 59.7222C59.857 64.3979 58.3048 70.214 58.9745 75.9916C58.9745 75.9916 59.612 79.6666 60.9162 81.75" stroke="#4D67B2" stroke-width="3" stroke-linecap="round" stroke-linejoin="round"/>
<path d="M108.833 108.833C111.775 108.831 114.683 108.206 117.366 106.999C120.049 105.793 122.446 104.031 124.399 101.831C126.352 99.6312 127.817 97.0425 128.697 94.2355C129.578 91.4286 129.854 88.4669 129.507 85.5456C129.161 82.6243 128.199 79.8094 126.686 77.2864C125.174 74.7634 123.144 72.5894 120.73 70.9074C118.316 69.2255 115.574 68.0738 112.683 67.5282C109.792 66.9825 106.819 67.0553 103.958 67.7417L98.4165 69.25" stroke="#4D67B2" stroke-width="3" stroke-linecap="round" stroke-linejoin="round"/>
</svg>
