<svg width="155" height="115" viewBox="0 0 155 115" fill="none" xmlns="http://www.w3.org/2000/svg">
<path d="M154.338 101.06H0V101.137H154.338V101.06Z" fill="#E6E6E6"/>
<path d="M35.1458 103.536H24.5273V103.613H35.1458V103.536Z" fill="#E6E6E6"/>
<path d="M40.3531 103.536H37.1799V103.613H40.3531V103.536Z" fill="#E6E6E6"/>
<path d="M56.0089 102.02H50.033V102.097H56.0089V102.02Z" fill="#E6E6E6"/>
<path d="M132.919 105.249H119.587V105.326H132.919V105.249Z" fill="#E6E6E6"/>
<path d="M137.623 105.249H135.669V105.326H137.623V105.249Z" fill="#E6E6E6"/>
<path d="M122.961 102.539H94.0439V102.616H122.961V102.539Z" fill="#E6E6E6"/>
<path d="M73.156 87.2933H13.5539C13.087 87.2925 12.6394 87.1065 12.3096 86.776C11.9797 86.4455 11.7944 85.9977 11.7944 85.5308V1.7471C11.7985 1.28286 11.9856 0.838972 12.315 0.511851C12.6444 0.184729 13.0896 0.000795267 13.5539 0H73.156C73.6234 0 74.0717 0.185695 74.4023 0.516235C74.7328 0.846774 74.9185 1.29508 74.9185 1.76253V85.5308C74.9185 85.9982 74.7328 86.4465 74.4023 86.7771C74.0717 87.1076 73.6234 87.2933 73.156 87.2933ZM13.5539 0.0617353C13.1074 0.0625529 12.6795 0.240478 12.3641 0.556457C12.0487 0.872436 11.8716 1.30065 11.8716 1.7471V85.5308C11.8716 85.9772 12.0487 86.4054 12.3641 86.7214C12.6795 87.0374 13.1074 87.2153 13.5539 87.2161H73.156C73.6027 87.2153 74.0309 87.0375 74.3468 86.7216C74.6627 86.4057 74.8405 85.9775 74.8413 85.5308V1.7471C74.8405 1.30036 74.6627 0.872159 74.3468 0.556268C74.0309 0.240378 73.6027 0.0625512 73.156 0.0617353H13.5539Z" fill="#E6E6E6"/>
<path d="M139.926 87.2933H80.3204C79.8532 87.2925 79.4054 87.1066 79.075 86.7762C78.7446 86.4458 78.5587 85.998 78.5579 85.5308V1.7471C78.5627 1.28258 78.7505 0.838694 79.0804 0.511658C79.4103 0.184621 79.8558 0.000786594 80.3204 0H139.926C140.389 0.0016065 140.834 0.185899 141.162 0.512934C141.491 0.839969 141.678 1.28339 141.682 1.7471V85.5308C141.682 85.9972 141.497 86.4445 141.168 86.7749C140.839 87.1053 140.392 87.2917 139.926 87.2933ZM80.3204 0.0617353C79.8737 0.0625512 79.4455 0.240378 79.1296 0.556268C78.8137 0.872159 78.6358 1.30036 78.635 1.7471V85.5308C78.6358 85.9775 78.8137 86.4057 79.1296 86.7216C79.4455 87.0375 79.8737 87.2153 80.3204 87.2161H139.926C140.372 87.2153 140.8 87.0375 141.116 86.7216C141.432 86.4057 141.61 85.9775 141.611 85.5308V1.7471C141.61 1.30036 141.432 0.872159 141.116 0.556268C140.8 0.240378 140.372 0.0625512 139.926 0.0617353H80.3204Z" fill="#E6E6E6"/>
<path d="M129.341 58.9908H107.712V101.06H129.341V58.9908Z" fill="#F5F5F5"/>
<path d="M129.341 58.9908H127.557V101.06H129.341V58.9908Z" fill="#F0F0F0"/>
<path d="M59.5806 69.2791H109.379V60.1917L59.5806 60.1917V69.2791Z" fill="#E0E0E0"/>
<path d="M80.345 101.091H58.994C58.9121 101.091 58.8336 101.059 58.7757 101.001C58.7178 100.943 58.6853 100.864 58.6853 100.782C58.6853 100.701 58.7178 100.622 58.7757 100.564C58.8336 100.506 58.9121 100.474 58.994 100.474H80.345C83.4318 100.474 83.8423 99.5724 83.8423 95.9979V50.9314C83.8423 50.8495 83.8748 50.771 83.9327 50.7131C83.9906 50.6552 84.0691 50.6227 84.151 50.6227C84.2329 50.6227 84.3114 50.6552 84.3693 50.7131C84.4272 50.771 84.4597 50.8495 84.4597 50.9314V95.9979C84.4597 99.8193 83.867 101.091 80.345 101.091Z" fill="#E0E0E0"/>
<path d="M61.4942 62.3092L128.853 62.3092V59.1545L61.4942 59.1545V62.3092Z" fill="#F0F0F0"/>
<path d="M61.9821 58.9908H40.3533V101.06H61.9821V58.9908Z" fill="#F5F5F5"/>
<path d="M61.979 58.9908H60.1948V101.06H61.979V58.9908Z" fill="#F0F0F0"/>
<path d="M46.6655 101.06L46.6655 26.1448H28.1049L28.1049 101.06H46.6655Z" fill="#FAFAFA"/>
<path d="M45.647 44.8566V28.3333H29.1236V44.8566H45.647Z" fill="#F5F5F5"/>
<path d="M33.7258 28.111H41.0538C41.0538 28.5653 40.8733 29.0011 40.552 29.3223C40.2307 29.6436 39.795 29.8241 39.3406 29.8241H35.4513C35.2253 29.8257 35.0012 29.7826 34.7919 29.6973C34.5827 29.6119 34.3923 29.486 34.232 29.3267C34.0716 29.1675 33.9443 28.9781 33.8574 28.7694C33.7705 28.5608 33.7258 28.337 33.7258 28.111Z" fill="#E0E0E0"/>
<path d="M45.644 62.8616V46.3383H29.1207V62.8616H45.644Z" fill="#F5F5F5"/>
<path d="M45.647 80.8666V64.3433H29.1236V80.8666H45.647Z" fill="#F5F5F5"/>
<path d="M45.647 98.8748V82.3514H29.1236V98.8748H45.647Z" fill="#F5F5F5"/>
<path d="M33.7258 46.1191H41.0538C41.053 46.5732 40.8722 47.0085 40.5511 47.3296C40.23 47.6507 39.7947 47.8315 39.3406 47.8323H35.4513C35.2254 47.8335 35.0015 47.7901 34.7924 47.7046C34.5833 47.6191 34.3932 47.4931 34.2329 47.334C34.0726 47.1748 33.9452 46.9856 33.8582 46.7771C33.7712 46.5686 33.7262 46.345 33.7258 46.1191Z" fill="#E0E0E0"/>
<path d="M33.7258 64.1241H41.0538C41.0538 64.5785 40.8733 65.0142 40.552 65.3355C40.2307 65.6568 39.795 65.8373 39.3406 65.8373H35.4513C35.2253 65.8389 35.0012 65.7958 34.7919 65.7104C34.5827 65.6251 34.3923 65.4992 34.232 65.3399C34.0716 65.1807 33.9443 64.9913 33.8574 64.7826C33.7705 64.5739 33.7258 64.3502 33.7258 64.1241Z" fill="#E0E0E0"/>
<path d="M33.7258 82.1292H41.0538C41.0538 82.5835 40.8733 83.0192 40.552 83.3405C40.2307 83.6618 39.795 83.8423 39.3406 83.8423H35.4513C35.2253 83.8439 35.0012 83.8008 34.7919 83.7155C34.5827 83.6301 34.3923 83.5042 34.232 83.3449C34.0716 83.1857 33.9443 82.9963 33.8574 82.7876C33.7705 82.579 33.7258 82.3552 33.7258 82.1292Z" fill="#E0E0E0"/>
<path d="M28.1047 101.06L28.1047 26.1448H18.8352L18.8352 101.06H28.1047Z" fill="#F0F0F0"/>
<path d="M81.6106 58.9909H76.9465L78.0794 49.9097H82.7465L81.6106 58.9909Z" fill="#F0F0F0"/>
<path d="M82.6445 58.9909H77.9773L79.1132 49.9097H83.7773L82.6445 58.9909Z" fill="#F5F5F5"/>
<path d="M92.6518 58.9909H89.2779L88.6328 57.963H92.0035L92.6518 58.9909Z" fill="#F0F0F0"/>
<path d="M110.728 58.9909H90.3092L89.6641 57.963H107.975L110.728 58.9909Z" fill="#FAFAFA"/>
<path d="M66.8157 56.3856H68.2912C68.9822 56.3856 69.6448 56.6601 70.1334 57.1487C70.6219 57.6373 70.8964 58.2999 70.8964 58.9908H64.2043C64.2043 58.6482 64.2719 58.3089 64.4032 57.9924C64.5346 57.676 64.727 57.3885 64.9696 57.1465C65.2121 56.9045 65.5001 56.7127 65.8169 56.5822C66.1337 56.4516 66.4731 56.3848 66.8157 56.3856Z" fill="#F0F0F0"/>
<path d="M83.2097 54.4503H78.5457L79.1136 49.9097H83.7777L83.2097 54.4503Z" fill="#F0F0F0"/>
<path d="M66.0566 53.3638H99.0848C99.1498 53.3638 99.2141 53.3501 99.2733 53.3233C99.3326 53.2966 99.3854 53.2576 99.4284 53.2088C99.4713 53.16 99.5034 53.1026 99.5224 53.0404C99.5414 52.9782 99.5469 52.9127 99.5385 52.8483L96.9951 32.5004C96.9815 32.3896 96.9278 32.2877 96.8442 32.2137C96.7607 32.1398 96.6529 32.099 96.5413 32.0991H63.5223C63.4576 32.0991 63.3936 32.1128 63.3346 32.1393C63.2756 32.1659 63.2229 32.2046 63.18 32.2531C63.1371 32.3015 63.105 32.3585 63.0858 32.4203C63.0666 32.4821 63.0607 32.5473 63.0686 32.6115L65.6121 52.9625C65.6254 53.0717 65.6777 53.1724 65.7594 53.2461C65.841 53.3198 65.9466 53.3616 66.0566 53.3638Z" fill="#F0F0F0"/>
<path d="M66.5565 53.3638H99.5632C99.6282 53.3638 99.6924 53.3501 99.7517 53.3233C99.811 53.2966 99.8638 53.2576 99.9068 53.2088C99.9497 53.16 99.9818 53.1026 100.001 53.0404C100.02 52.9782 100.025 52.9127 100.017 52.8483L97.4734 32.5004C97.4592 32.3899 97.4054 32.2883 97.3219 32.2145C97.2385 32.1407 97.1311 32.0997 97.0197 32.0991H64.0131C63.9483 32.0991 63.8844 32.1128 63.8253 32.1393C63.7663 32.1659 63.7136 32.2046 63.6707 32.2531C63.6278 32.3015 63.5957 32.3585 63.5765 32.4203C63.5573 32.4821 63.5514 32.5473 63.5593 32.6115L66.1028 52.9625C66.1164 53.0732 66.17 53.1752 66.2536 53.2491C66.3372 53.323 66.4449 53.3638 66.5565 53.3638Z" fill="#F5F5F5"/>
<path d="M98.952 52.2371L96.5721 33.1919C96.5676 33.1608 96.552 33.1324 96.5281 33.112C96.5043 33.0915 96.4738 33.0804 96.4424 33.0808H64.7508C64.7326 33.0801 64.7145 33.0835 64.6978 33.0906C64.6811 33.0977 64.6662 33.1084 64.6541 33.122C64.642 33.1356 64.6331 33.1516 64.6279 33.169C64.6227 33.1865 64.6215 33.2048 64.6242 33.2228L67.0041 52.2711C67.0079 52.3019 67.0229 52.3303 67.0462 52.3508C67.0695 52.3713 67.0996 52.3825 67.1307 52.3822H98.8254C98.8436 52.3819 98.8614 52.3778 98.8779 52.3702C98.8944 52.3625 98.909 52.3515 98.9209 52.3378C98.9329 52.3241 98.9418 52.3081 98.9472 52.2908C98.9525 52.2734 98.9541 52.2552 98.952 52.2371Z" fill="#E0E0E0"/>
<path d="M86.8889 58.9908H79.2893V58.8952C79.2893 58.6946 79.369 58.5022 79.5108 58.3604C79.6527 58.2186 79.845 58.1389 80.0456 58.1389H86.1327C86.3332 58.1389 86.5256 58.2186 86.6674 58.3604C86.8092 58.5022 86.8889 58.6946 86.8889 58.8952V58.9908Z" fill="#FAFAFA"/>
<path d="M80.1753 58.9908H75.0204V58.8952C75.0204 58.6946 75.1001 58.5022 75.2419 58.3604C75.3837 58.2186 75.5761 58.1389 75.7767 58.1389H79.419C79.6196 58.1389 79.812 58.2186 79.9538 58.3604C80.0956 58.5022 80.1753 58.6946 80.1753 58.8952V58.9908Z" fill="#F0F0F0"/>
<path d="M35.9482 17.684V17.6686C36.0192 17.4309 36.0871 17.1901 36.1457 16.9494C36.2502 17.1158 36.3924 17.2553 36.5608 17.3566C36.7291 17.458 36.919 17.5183 37.115 17.5328H37.1983C37.7138 17.4834 38.2077 16.9833 38.5194 16.1962C38.5255 16.182 38.5286 16.1668 38.5286 16.1514C38.5286 16.1361 38.5255 16.1208 38.5194 16.1067C38.5045 16.0785 38.4789 16.0574 38.4484 16.048C38.0784 15.9543 37.6928 15.9396 37.3168 16.005C36.9407 16.0704 36.5827 16.2145 36.2661 16.4277C36.3124 16.1993 36.3525 15.9678 36.3865 15.7394C36.4679 15.7551 36.5505 15.7633 36.6334 15.7641C37.473 15.7641 38.0904 15.014 38.1213 14.9769C38.1321 14.9633 38.1396 14.9474 38.1432 14.9303C38.1468 14.9133 38.1463 14.8956 38.1418 14.8788C38.1373 14.862 38.1289 14.8465 38.1173 14.8335C38.1057 14.8205 38.0912 14.8104 38.075 14.8041C37.8799 14.7072 37.6666 14.6528 37.449 14.6443C37.2314 14.6358 37.0145 14.6734 36.8125 14.7547C36.5968 14.8644 36.4225 15.0409 36.3155 15.2578C36.1582 14.7748 35.8707 14.3446 35.4845 14.0145C35.0984 13.6845 34.6286 13.4674 34.127 13.3873C34.1114 13.3836 34.0952 13.3836 34.0797 13.3874C34.0641 13.3911 34.0497 13.3985 34.0375 13.4089C34.0245 13.418 34.0139 13.43 34.0064 13.4439C33.9989 13.4578 33.9947 13.4733 33.9943 13.4891C33.9511 14.2515 33.9757 15.1868 34.5468 15.6313C34.7857 15.8075 35.0775 15.8968 35.374 15.8844C35.6397 15.878 35.9033 15.8365 36.1581 15.761C36.0765 16.3126 35.9579 16.8581 35.8031 17.3939C35.2445 16.6327 34.4519 16.0754 33.5467 15.8073C33.5181 15.8006 33.488 15.8052 33.4627 15.8202C33.4374 15.8351 33.4188 15.8592 33.4109 15.8875C33.238 16.545 33.3275 17.079 33.6671 17.4309C33.8397 17.586 34.0419 17.7048 34.2614 17.7801C34.481 17.8554 34.7135 17.8857 34.945 17.8692C35.1938 17.8676 35.442 17.8418 35.6858 17.792C35.5438 18.2427 35.3771 18.6841 35.2197 19.1039C34.8771 18.7952 33.8677 18.0297 32.7688 18.3507C32.7393 18.3605 32.7149 18.3816 32.7009 18.4094C32.6949 18.4235 32.6918 18.4388 32.6918 18.4542C32.6918 18.4695 32.6949 18.4848 32.7009 18.4989C33.0096 19.2274 33.3399 19.6318 33.7658 19.7707C33.8794 19.8081 33.9982 19.8269 34.1177 19.8262C34.4439 19.8124 34.7618 19.7191 35.0438 19.5546C34.8092 20.1133 34.5591 20.6349 34.3215 21.098C34.0394 20.8103 33.6849 20.6039 33.2954 20.5007C32.9059 20.3975 32.4958 20.4012 32.1083 20.5115C32.0818 20.5167 32.0583 20.5317 32.0423 20.5534C32.0263 20.5751 32.019 20.602 32.0218 20.6288C32.0491 20.8622 32.1374 21.0844 32.2777 21.2729C32.4181 21.4615 32.6055 21.6098 32.8213 21.703C32.9841 21.773 33.1596 21.8087 33.3368 21.8079C33.5826 21.8048 33.8241 21.7423 34.0406 21.6258C33.7998 22.0734 33.5776 22.4469 33.4047 22.7308H31.3057C30.9723 22.1598 30.5865 21.4498 30.2099 20.6535C30.3853 20.7058 30.5671 20.7339 30.7501 20.7368C30.9752 20.7396 31.1979 20.6905 31.401 20.5934C31.6041 20.4963 31.782 20.3537 31.9211 20.1767C32.0602 19.9997 32.1567 19.793 32.2031 19.5727C32.2494 19.3524 32.2445 19.1244 32.1885 18.9064C32.1813 18.881 32.1651 18.8592 32.1429 18.845C32.1208 18.8308 32.0942 18.8252 32.0681 18.8292C31.6395 18.871 31.2272 19.0154 30.8662 19.2502C30.5051 19.485 30.2059 19.8033 29.9938 20.1781C29.7469 19.6225 29.5061 19.0329 29.2962 18.4248C29.5634 18.5768 29.8627 18.6636 30.1698 18.6779C30.2916 18.6793 30.4128 18.6595 30.5278 18.6193C31.1452 18.4156 31.5002 17.6717 31.8027 16.9C31.8095 16.886 31.813 16.8707 31.813 16.8552C31.813 16.8397 31.8095 16.8244 31.8027 16.8105C31.7956 16.7963 31.7856 16.7838 31.7733 16.7737C31.7611 16.7636 31.7469 16.7561 31.7317 16.7518C30.497 16.4061 29.4814 17.5945 29.1666 18.0205C29.002 17.5065 28.8649 16.9841 28.7561 16.4555C29.0154 16.5062 29.2789 16.5331 29.5432 16.5357C29.8058 16.5549 30.0696 16.5199 30.3181 16.4328C30.5666 16.3457 30.7946 16.2085 30.9878 16.0295C31.3613 15.6344 31.4508 15.0418 31.2501 14.3195C31.2466 14.3053 31.2402 14.292 31.2314 14.2804C31.2225 14.2688 31.2114 14.259 31.1987 14.2518C31.186 14.2446 31.172 14.2401 31.1575 14.2384C31.143 14.2368 31.1283 14.2381 31.1143 14.2423C30.1293 14.5497 29.2718 15.1708 28.6727 16.011L28.6264 15.7301C28.6231 15.7058 28.6123 15.6831 28.5955 15.6653C28.5446 15.4826 28.456 15.3127 28.3353 15.1665C28.2146 15.0203 28.0645 14.901 27.8948 14.8164C27.6722 14.7305 27.4338 14.6927 27.1955 14.7055C26.9571 14.7182 26.7242 14.7813 26.512 14.8905C26.4957 14.8976 26.4811 14.9081 26.4694 14.9215C26.4576 14.9348 26.449 14.9506 26.4441 14.9677C26.4403 14.9844 26.4405 15.0019 26.4448 15.0185C26.4491 15.0351 26.4573 15.0505 26.4688 15.0634C26.4996 15.1035 27.1787 15.906 28.0924 15.906C28.1909 15.9048 28.289 15.8944 28.3856 15.8752C28.4258 16.1375 28.4752 16.3999 28.5307 16.6592C28.1787 16.4275 27.7816 16.273 27.3655 16.206C26.9494 16.1389 26.5239 16.1608 26.1169 16.2703C26.0864 16.2796 26.0608 16.3007 26.0459 16.3289C26.0398 16.3436 26.0366 16.3593 26.0366 16.3752C26.0366 16.3911 26.0398 16.4069 26.0459 16.4215C26.4009 17.2796 26.9503 17.8229 27.5183 17.8692H27.5954C27.8825 17.8692 28.2714 17.7365 28.6665 17.2087C28.8221 17.8088 29.0097 18.4003 29.2283 18.9804C28.6943 18.7273 27.4936 18.2921 26.6355 18.9558C26.6237 18.9643 26.6137 18.9751 26.6062 18.9876C26.5987 19 26.5938 19.0139 26.5918 19.0283C26.5897 19.0427 26.5907 19.0574 26.5945 19.0715C26.5983 19.0855 26.6048 19.0987 26.6138 19.1101C27.1695 19.8663 27.6819 20.2337 28.185 20.2337C28.6017 20.2337 28.9999 19.9713 29.3981 19.4527C29.6265 20.0207 29.8735 20.5639 30.1173 21.064C29.5833 20.7337 28.9968 20.7862 28.3054 21.2214C28.2894 21.231 28.2761 21.2446 28.267 21.2608C28.2578 21.277 28.2529 21.2954 28.2529 21.314C28.2516 21.3322 28.2553 21.3504 28.2634 21.3667C28.2716 21.3829 28.2839 21.3967 28.2992 21.4066C28.711 21.7035 29.1973 21.8798 29.7037 21.9159C29.9649 21.9211 30.221 21.8433 30.4352 21.6937C30.6328 22.0734 30.8273 22.4222 31.0063 22.7339H30.0525V23.2772H30.3982L30.6853 26.1541H34.911L35.195 23.2772H35.5438V22.7339H33.6455C33.8554 22.3851 34.1239 21.919 34.411 21.3727C34.4196 21.3617 34.4258 21.3491 34.4295 21.3356C34.5036 21.1967 34.5746 21.0547 34.6487 20.9066C34.7742 21.0965 34.9434 21.2536 35.1421 21.3648C35.3408 21.476 35.5632 21.5379 35.7908 21.5455C35.838 21.5486 35.8855 21.5486 35.9327 21.5455C36.1842 21.517 36.4229 21.4195 36.6223 21.2636C36.8217 21.1078 36.9741 20.8998 37.0625 20.6627C37.0716 20.6384 37.0717 20.6115 37.0626 20.5871C37.0535 20.5628 37.0359 20.5425 37.0131 20.53C36.6895 20.3472 36.3269 20.244 35.9555 20.2289C35.5841 20.2139 35.2144 20.2875 34.8771 20.4436C35.0376 20.1071 35.1858 19.746 35.3463 19.3725C35.3584 19.3586 35.3659 19.3414 35.3679 19.3231C35.4111 19.2181 35.4512 19.1132 35.4944 19.0144C35.8617 19.4774 36.226 19.7058 36.6057 19.7058C37.0656 19.7058 37.5317 19.3663 38.0317 18.6656C38.0491 18.6422 38.0566 18.6129 38.0525 18.584C38.0485 18.5551 38.0333 18.529 38.0101 18.5113C37.223 17.9217 36.1581 18.3261 35.658 18.5606C35.7599 18.2828 35.8525 18.0019 35.9389 17.7149L35.9482 17.684Z" fill="#E0E0E0"/>
<path d="M124.232 16.3813H108.447V33.7135H124.232V16.3813Z" fill="#E0E0E0"/>
<path d="M122.285 17.0914C122.272 17.0945 122.258 17.0945 122.245 17.0914C122.208 17.0667 118.479 14.8504 117.306 14.8504C116.133 14.8504 112.568 17.0667 112.531 17.0883C112.522 17.0938 112.513 17.0976 112.503 17.0994C112.493 17.1012 112.483 17.1009 112.473 17.0986C112.463 17.0963 112.454 17.092 112.446 17.086C112.437 17.0799 112.431 17.0723 112.426 17.0636C112.415 17.0463 112.412 17.0257 112.417 17.0061C112.421 16.9865 112.433 16.9694 112.45 16.9586C112.598 16.866 116.077 14.696 117.306 14.696C118.534 14.696 122.183 16.8568 122.337 16.9586C122.346 16.9637 122.354 16.9705 122.36 16.9786C122.366 16.9867 122.37 16.996 122.372 17.0058C122.374 17.0156 122.375 17.0258 122.373 17.0357C122.371 17.0457 122.367 17.0552 122.362 17.0636C122.353 17.0753 122.341 17.0842 122.327 17.0891C122.314 17.0941 122.299 17.0948 122.285 17.0914Z" fill="#EBEBEB"/>
<path d="M125.939 16.3813H109.635V33.7135H125.939V16.3813Z" fill="#F5F5F5"/>
<path d="M124.575 32.3462V17.7458H111.003V32.3462H124.575Z" fill="white"/>
<path d="M120.418 27.6763C121.87 26.2237 121.87 23.8686 120.418 22.416C118.965 20.9635 116.61 20.9635 115.157 22.416C113.705 23.8686 113.705 26.2237 115.157 27.6763C116.61 29.1288 118.965 29.1288 120.418 27.6763Z" fill="#E0E0E0"/>
<path d="M117.472 80.024H131.307C132.577 80.025 133.796 79.528 134.703 78.6396C135.609 77.7513 136.131 76.5426 136.157 75.2735L136.675 49.9436C136.685 49.4735 136.6 49.0063 136.427 48.5692C136.253 48.1322 135.994 47.7342 135.665 47.3984C135.336 47.0627 134.943 46.796 134.51 46.6139C134.076 46.4319 133.611 46.3382 133.141 46.3383H124.467C123.599 46.338 122.762 46.6573 122.114 47.2352C121.467 47.8131 121.055 48.6091 120.957 49.4713L117.472 80.024Z" fill="#E6E6E6"/>
<path d="M125.023 80.024H110.28C110.097 80.024 109.921 79.9512 109.791 79.8215C109.662 79.6919 109.589 79.516 109.589 79.3326V79.2678C109.589 78.7651 109.789 78.2831 110.144 77.9276C110.499 77.5722 110.982 77.3725 111.484 77.3725H125.023V80.024Z" fill="#E6E6E6"/>
<path d="M123.859 101.406C123.787 101.407 123.717 101.384 123.661 101.339C123.604 101.295 123.565 101.232 123.55 101.162L119.229 80.3326H111.697L107.376 101.162C107.359 101.244 107.31 101.316 107.241 101.362C107.171 101.408 107.086 101.424 107.004 101.407C106.922 101.391 106.85 101.342 106.804 101.272C106.758 101.203 106.742 101.117 106.758 101.035L111.135 79.9622C111.15 79.8914 111.189 79.828 111.245 79.7829C111.301 79.7377 111.372 79.7138 111.444 79.7153H119.47C119.542 79.7138 119.612 79.7377 119.669 79.7829C119.725 79.828 119.764 79.8914 119.778 79.9622L124.152 101.035C124.169 101.115 124.153 101.198 124.108 101.267C124.064 101.335 123.994 101.383 123.915 101.4C123.896 101.404 123.878 101.406 123.859 101.406Z" fill="#E6E6E6"/>
<path d="M119.164 101.406C119.143 101.409 119.122 101.409 119.102 101.406C119.062 101.398 119.025 101.382 118.991 101.359C118.957 101.337 118.929 101.308 118.906 101.274C118.884 101.24 118.868 101.202 118.861 101.162C118.853 101.122 118.853 101.081 118.861 101.042L123.238 79.9684C123.253 79.8977 123.291 79.8342 123.348 79.7891C123.404 79.744 123.475 79.72 123.547 79.7215H131.572C131.645 79.72 131.715 79.744 131.772 79.7891C131.828 79.8342 131.867 79.8977 131.881 79.9684L136.255 101.042C136.263 101.082 136.264 101.124 136.256 101.165C136.248 101.205 136.232 101.244 136.209 101.278C136.187 101.313 136.157 101.343 136.123 101.366C136.089 101.389 136.05 101.405 136.01 101.414C135.969 101.422 135.927 101.422 135.887 101.414C135.846 101.407 135.807 101.391 135.773 101.368C135.738 101.345 135.709 101.316 135.685 101.282C135.662 101.247 135.646 101.209 135.638 101.168L131.316 80.3388H123.778L119.457 101.168C119.441 101.235 119.404 101.294 119.351 101.337C119.298 101.38 119.232 101.404 119.164 101.406Z" fill="#E6E6E6"/>
<path d="M77.1688 115C110.223 115 137.018 113.436 137.018 111.506C137.018 109.576 110.223 108.012 77.1688 108.012C44.1151 108.012 17.3198 109.576 17.3198 111.506C17.3198 113.436 44.1151 115 77.1688 115Z" fill="#F5F5F5"/>
<path d="M82.4502 108.654C82.3534 108.653 82.2598 108.62 82.185 108.558C82.1102 108.497 82.0588 108.412 82.0396 108.317L76.1748 79.4375H65.9607L60.0959 108.317C60.068 108.42 60.0019 108.508 59.9112 108.564C59.8204 108.62 59.7118 108.64 59.6073 108.618C59.5028 108.597 59.4103 108.537 59.3486 108.45C59.2868 108.363 59.2605 108.256 59.2748 108.15L65.2076 78.9344C65.2273 78.8398 65.2788 78.7549 65.3535 78.6937C65.4282 78.6325 65.5215 78.5987 65.6181 78.5979H76.5143C76.6111 78.5981 76.7047 78.6317 76.7795 78.693C76.8543 78.7543 76.9057 78.8396 76.9249 78.9344L82.8607 108.15C82.8826 108.259 82.8604 108.372 82.7991 108.465C82.7378 108.558 82.6423 108.622 82.5335 108.644L82.4502 108.654Z" fill="#C28619"/>
<path d="M66.0565 108.654C65.9599 108.653 65.8665 108.619 65.7918 108.558C65.7171 108.497 65.6657 108.412 65.6459 108.317L59.7811 79.4375H49.567L43.7022 108.317C43.6945 108.374 43.6751 108.429 43.6454 108.478C43.6157 108.527 43.5762 108.57 43.5294 108.603C43.4825 108.636 43.4294 108.659 43.3732 108.671C43.317 108.683 43.259 108.683 43.2027 108.672C43.1465 108.66 43.0931 108.638 43.046 108.605C42.9989 108.572 42.9591 108.53 42.9289 108.481C42.8988 108.432 42.879 108.377 42.8708 108.321C42.8626 108.264 42.8661 108.206 42.8811 108.15L48.817 78.9344C48.8362 78.8396 48.8875 78.7543 48.9623 78.693C49.0371 78.6317 49.1308 78.5981 49.2275 78.5979H60.1237C60.2201 78.5982 60.3133 78.6319 60.3876 78.6933C60.4619 78.7546 60.5126 78.8398 60.5312 78.9344L66.467 108.15C66.4889 108.259 66.4667 108.372 66.4054 108.465C66.3441 108.558 66.2486 108.622 66.1398 108.644L66.0565 108.654Z" fill="#C28619"/>
<path d="M68.3498 79.0209H49.5823C47.8597 79.0212 46.2056 78.3461 44.9752 77.1405C43.7448 75.9349 43.0361 74.2949 43.0014 72.5726L42.3038 44.0511C42.2906 43.4135 42.4048 42.7798 42.6396 42.187C42.8744 41.5941 43.2252 41.0541 43.6713 40.5985C44.1174 40.1428 44.65 39.7808 45.2378 39.5336C45.8255 39.2863 46.4567 39.1588 47.0944 39.1586H58.8611C60.0387 39.1593 61.1748 39.5932 62.0532 40.3776C62.9315 41.162 63.4906 42.2421 63.6239 43.4121L68.3498 79.0209Z" fill="#C28619"/>
<path d="M58.114 75.4094H76.4802C77.1621 75.4094 77.8161 75.6803 78.2983 76.1625C78.7805 76.6447 79.0514 77.2988 79.0514 77.9807V78.0702C79.0514 78.3158 78.9539 78.5513 78.7802 78.725C78.6066 78.8987 78.371 78.9962 78.1254 78.9962H58.114V75.4094Z" fill="#C28619"/>
<g opacity="0.3">
<path opacity="0.3" d="M82.4499 108.654C82.3532 108.654 82.2595 108.62 82.1847 108.559C82.1099 108.497 82.0586 108.412 82.0394 108.317L76.1746 79.4376H65.9605L60.0957 108.317C60.0677 108.42 60.0017 108.509 59.9109 108.565C59.8202 108.62 59.7115 108.64 59.607 108.619C59.5025 108.597 59.41 108.537 59.3483 108.45C59.2866 108.363 59.2602 108.256 59.2746 108.151L65.2073 78.9345C65.2271 78.84 65.2785 78.755 65.3532 78.6938C65.4279 78.6326 65.5213 78.5988 65.6179 78.598H76.5141C76.6108 78.5982 76.7045 78.6318 76.7793 78.6931C76.8541 78.7544 76.9054 78.8397 76.9246 78.9345L82.8605 108.151C82.8823 108.259 82.8602 108.373 82.7988 108.465C82.7375 108.558 82.642 108.622 82.5333 108.644L82.4499 108.654Z" fill="black"/>
<path opacity="0.3" d="M66.0562 108.654C65.9597 108.653 65.8663 108.619 65.7916 108.558C65.7169 108.497 65.6654 108.412 65.6457 108.317L59.7809 79.4376H49.5668L43.702 108.317C43.6942 108.374 43.6749 108.429 43.6452 108.478C43.6154 108.527 43.5759 108.57 43.5291 108.603C43.4823 108.636 43.4291 108.659 43.373 108.671C43.3168 108.683 43.2588 108.683 43.2025 108.672C43.1462 108.661 43.0929 108.638 43.0458 108.605C42.9987 108.572 42.9588 108.53 42.9287 108.481C42.8986 108.432 42.8788 108.378 42.8705 108.321C42.8623 108.264 42.8658 108.206 42.8809 108.151L48.8167 78.9345C48.8359 78.8397 48.8873 78.7544 48.9621 78.6931C49.0369 78.6318 49.1305 78.5982 49.2273 78.598H60.1235C60.2198 78.5984 60.3131 78.6321 60.3874 78.6934C60.4616 78.7548 60.5124 78.8399 60.5309 78.9345L66.4668 108.151C66.4886 108.259 66.4665 108.373 66.4051 108.465C66.3438 108.558 66.2483 108.622 66.1396 108.644L66.0562 108.654Z" fill="black"/>
<path opacity="0.3" d="M68.3498 79.0209H49.5823C47.8597 79.0212 46.2056 78.3461 44.9752 77.1405C43.7448 75.9349 43.0361 74.2949 43.0014 72.5726L42.3038 44.0511C42.2906 43.4135 42.4048 42.7798 42.6396 42.187C42.8744 41.5941 43.2252 41.0541 43.6713 40.5985C44.1174 40.1428 44.65 39.7808 45.2378 39.5336C45.8255 39.2863 46.4567 39.1588 47.0944 39.1586H58.8611C60.0387 39.1593 61.1748 39.5932 62.0532 40.3776C62.9315 41.162 63.4906 42.2421 63.6239 43.4121L68.3498 79.0209Z" fill="black"/>
<path opacity="0.3" d="M58.114 75.4093H76.4802C77.1621 75.4093 77.8161 75.6802 78.2983 76.1624C78.7805 76.6446 79.0514 77.2986 79.0514 77.9806V78.0701C79.0514 78.3157 78.9539 78.5512 78.7802 78.7249C78.6066 78.8985 78.371 78.9961 78.1254 78.9961H58.114V75.4093Z" fill="black"/>
</g>
<path d="M63.1267 37.5844C63.1267 37.5844 65.7504 41.0107 64.0527 47.8324C62.355 54.6541 53.5948 50.95 53.0639 44.8012C52.4465 37.5535 60.5832 42.551 62.0155 36.1058L63.1267 37.5844Z" fill="#263238"/>
<path d="M61.2224 35.55C60.0834 36.3526 59.6327 37.5194 60.8921 38.6615C62.1515 39.8036 63.948 39.7666 64.4912 39.2974C65.0345 38.8282 64.9265 36.4452 64.9265 36.4452L61.2224 35.55Z" fill="#C28619"/>
<path opacity="0.8" d="M61.2224 35.55C60.0834 36.3526 59.6327 37.5194 60.8921 38.6615C62.1515 39.8036 63.948 39.7666 64.4912 39.2974C65.0345 38.8282 64.9265 36.4452 64.9265 36.4452L61.2224 35.55Z" fill="white"/>
<path d="M75.6066 50.7338C75.6375 50.8727 75.69 51.0887 75.7394 51.2709L75.8875 51.8512C75.9925 52.2401 76.1067 52.629 76.2271 53.018C76.4555 53.802 76.7086 54.5829 76.9741 55.3639C77.2395 56.1448 77.5112 56.9073 77.8075 57.6975C77.9526 58.0833 78.0976 58.4722 78.252 58.8581L78.431 59.3211C78.4668 59.4003 78.5136 59.4741 78.5699 59.5403C79.0093 59.9847 79.5447 60.3226 80.1349 60.528C80.8558 60.8182 81.5991 61.0494 82.3574 61.2195C83.1414 61.4016 83.947 61.5528 84.7619 61.6794C85.5768 61.8059 86.4134 61.9078 87.2159 61.9881L87.2437 63.6487C85.4828 63.8309 83.7078 63.8309 81.9468 63.6487C81.0265 63.5539 80.1164 63.3772 79.2274 63.1209C78.7459 62.9755 78.2772 62.7907 77.826 62.5684C77.3066 62.316 76.8313 61.9814 76.4185 61.5775C76.1788 61.339 75.9713 61.0702 75.8011 60.7781C75.7548 60.704 75.7147 60.6206 75.6715 60.5435L75.5912 60.3768L75.4492 60.0681C75.2578 59.6761 75.0665 59.2841 74.8905 58.8859C74.5324 58.0895 74.1836 57.2869 73.8719 56.4689C73.5601 55.651 73.2545 54.8268 72.9952 53.9995C72.8687 53.5736 72.7452 53.1507 72.631 52.7155L72.4612 52.0642C72.4119 51.8296 72.3656 51.6351 72.3162 51.3573L75.6066 50.7338Z" fill="#E58A7B"/>
<path d="M74.5571 47.2274C75.8813 47.5638 76.8042 53.0089 76.8042 53.0089L73.1588 55.4783C73.1588 55.4783 69.6615 49.9838 70.6894 48.53C71.7419 47.036 72.6247 46.7458 74.5571 47.2274Z" fill="#C28619"/>
<path opacity="0.5" d="M74.5571 47.2274C75.8813 47.5638 76.8042 53.0089 76.8042 53.0089L73.1588 55.4783C73.1588 55.4783 69.6615 49.9838 70.6894 48.53C71.7419 47.036 72.6247 46.7458 74.5571 47.2274Z" fill="white"/>
<path opacity="0.2" d="M74.0817 48.5979L70.9116 51.1105C71.529 52.6368 72.2799 54.1057 73.1557 55.4999L75.6837 53.7806L74.0817 48.5979Z" fill="#C28619"/>
<path d="M74.5571 47.2273C74.5571 47.2273 76.1005 47.7644 73.0138 66.6029H59.9815C60.2007 61.2968 60.2068 58.0248 57.6726 47.1317C59.4975 46.7558 61.3472 46.5123 63.2072 46.4032C65.1791 46.2626 67.1586 46.2626 69.1306 46.4032C71.6741 46.647 74.5571 47.2273 74.5571 47.2273Z" fill="#C28619"/>
<path opacity="0.5" d="M74.5571 47.2273C74.5571 47.2273 76.1005 47.7644 73.0138 66.6029H59.9815C60.2007 61.2968 60.2068 58.0248 57.6726 47.1317C59.4975 46.7558 61.3472 46.5123 63.2072 46.4032C65.1791 46.2626 67.1586 46.2626 69.1306 46.4032C71.6741 46.647 74.5571 47.2273 74.5571 47.2273Z" fill="white"/>
<path d="M86.7378 61.9727L89.0127 59.6638L89.3214 62.9173C89.3214 62.9173 87.6144 64.0717 86.4353 63.4513L86.7378 61.9727Z" fill="#E58A7B"/>
<path d="M91.6981 59.3212L91.8 62.056L89.3182 62.9172L89.0188 59.6638L91.6981 59.3212Z" fill="#E58A7B"/>
<path d="M87.8054 105.66H91.0156L91.5095 98.2236H88.2993L87.8054 105.66Z" fill="#E58A7B"/>
<path d="M75.3813 105.66H78.5916L79.6225 98.2236H76.4123L75.3813 105.66Z" fill="#E58A7B"/>
<path d="M78.7922 105.286H75.1838C75.1216 105.285 75.0612 105.306 75.0139 105.347C74.9666 105.387 74.9359 105.444 74.9276 105.505L74.5171 108.36C74.5097 108.433 74.5176 108.505 74.5402 108.574C74.5627 108.643 74.5995 108.707 74.648 108.76C74.6966 108.814 74.7559 108.857 74.8222 108.887C74.8884 108.916 74.9601 108.931 75.0326 108.932C76.2889 108.91 76.8846 108.836 78.4805 108.836C79.4559 108.836 81.9592 108.938 83.3081 108.938C84.657 108.938 84.728 107.604 84.1663 107.484C81.6506 106.941 80.1751 106.197 79.3262 105.484C79.1773 105.356 78.988 105.286 78.7922 105.286Z" fill="#263238"/>
<path d="M91.2658 105.286H87.6635C87.6015 105.285 87.5414 105.307 87.4943 105.348C87.4472 105.388 87.4163 105.444 87.4073 105.505L86.9968 108.36C86.9895 108.433 86.9973 108.505 87.0199 108.574C87.0425 108.643 87.0792 108.707 87.1278 108.76C87.1764 108.814 87.2357 108.857 87.3019 108.887C87.3681 108.916 87.4398 108.931 87.5123 108.931C88.7686 108.91 89.3643 108.836 90.9602 108.836C91.9387 108.836 93.9543 108.938 95.3033 108.938C96.6522 108.938 96.7232 107.604 96.1614 107.484C93.6457 106.941 92.6548 106.197 91.809 105.484C91.6572 105.355 91.4646 105.285 91.2658 105.286Z" fill="#263238"/>
<path d="M71.9982 33.2505C73.1526 33.3246 73.7391 39.1153 70.3529 38.7789C66.9667 38.4424 71.9982 33.2505 71.9982 33.2505Z" fill="#263238"/>
<path d="M91.5096 98.2236L91.2534 102.057H88.0432L88.2963 98.2236H91.5096Z" fill="#CF6F64"/>
<path d="M76.4124 98.2236H79.6257L79.0917 102.057H75.8784L76.4124 98.2236Z" fill="#CF6F64"/>
<path opacity="0.2" d="M58.9753 53.1878C59.284 54.7682 59.5032 56.1325 59.6699 57.3611L60.4323 51.4623L58.9753 53.1878Z" fill="#C28619"/>
<path d="M63.7938 39.7483C64.1673 41.6528 64.5408 45.1439 63.2073 46.4157C63.2073 46.4157 63.7289 48.348 67.2694 48.348C71.1618 48.348 69.1215 46.4157 69.1215 46.4157C66.9947 45.9094 67.0503 44.3321 67.4207 42.8536L63.7938 39.7483Z" fill="#E58A7B"/>
<path d="M66.5657 48.7614L67.751 48.3355L67.5936 48.0114L66.5657 48.7614Z" fill="#263238"/>
<path d="M68.865 48.5145L67.7507 48.3355L67.9915 47.9744L68.865 48.5145Z" fill="#263238"/>
<path d="M63.6394 45.5172L62.8338 46.3013C62.8096 46.326 62.7961 46.3593 62.7961 46.3939C62.7961 46.4285 62.8096 46.4617 62.8338 46.4865L66.2292 50.3542C66.3907 49.4356 66.8825 48.6078 67.6121 48.0268C64.8031 46.9649 64.0716 45.866 63.8215 45.5574C63.8157 45.5394 63.8053 45.5233 63.7914 45.5106C63.7774 45.4979 63.7604 45.4891 63.742 45.4851C63.7236 45.481 63.7044 45.4819 63.6864 45.4875C63.6684 45.4931 63.6522 45.5034 63.6394 45.5172Z" fill="#C28619"/>
<path d="M68.4918 46.11L69.4919 46.3816C69.5218 46.3899 69.549 46.406 69.5706 46.4282C69.5923 46.4505 69.6077 46.478 69.6153 46.5082C69.8979 47.7767 69.8447 49.0971 69.461 50.3388C69.319 49.8141 68.8436 48.5578 67.9917 47.9744C68.9177 47.3354 68.5442 46.5112 68.4115 46.1995C68.4072 46.1879 68.4061 46.1753 68.4084 46.1632C68.4107 46.151 68.4163 46.1397 68.4246 46.1305C68.4328 46.1213 68.4435 46.1145 68.4553 46.1109C68.4671 46.1073 68.4797 46.1069 68.4918 46.11Z" fill="#C28619"/>
<path d="M65.2785 41.0137L67.4392 42.8503C67.3494 43.1944 67.2885 43.5455 67.2571 43.8998C66.4453 43.7825 65.331 42.8935 65.2445 42.0477C65.1916 41.7039 65.2032 41.3533 65.2785 41.0137Z" fill="#CF6F64"/>
<path d="M63.587 34.7292C63.2197 37.8931 62.9943 39.2266 64.2908 41.1156C66.2354 43.9585 70.205 43.7178 71.5107 40.7267C72.6867 38.0351 73.088 33.3185 70.2482 31.5158C69.6235 31.1171 68.9073 30.8847 68.1675 30.8408C67.4277 30.7968 66.6889 30.9428 66.0215 31.2648C65.354 31.5868 64.7799 32.0741 64.3538 32.6805C63.9277 33.2868 63.6638 33.992 63.587 34.7292Z" fill="#E58A7B"/>
<path d="M70.822 29.5032C65.59 27.4382 61.6605 29.7687 60.8487 33.0808C59.5739 38.2233 63.6453 38.5844 63.6453 38.5844L64.1546 37.2695C64.8862 37.7109 66.9327 37.5164 66.3154 33.6981C65.9511 31.5374 68.686 34.547 72.1555 34.2105C73.0784 34.121 74.3409 30.8923 70.822 29.5032Z" fill="#263238"/>
<path d="M72.6032 30.775C71.9149 29.7162 70.5073 28.8087 67.5903 28.3796C67.5903 28.3796 69.1059 28.7223 69.5967 29.8304C70.0875 30.9386 73.4336 32.0498 72.6032 30.775Z" fill="#263238"/>
<path d="M62.5806 37.4671C62.5593 37.7714 62.5982 38.0769 62.6951 38.3661C62.7921 38.6553 62.9451 38.9225 63.1455 39.1525C63.6857 39.7698 64.3956 39.3902 64.6179 38.6494C64.8154 37.9795 64.7753 36.8559 64.053 36.5164C63.3307 36.1769 62.6393 36.714 62.5806 37.4671Z" fill="#E58A7B"/>
<path d="M73.0234 66.6152C73.0234 66.6152 94.5504 68.6185 94.3405 78.4066C94.1213 88.5929 91.9421 101.316 91.9421 101.316H87.4941C87.4941 101.316 87.1144 90.5499 86.9848 80.521C86.9199 75.2983 66.1183 74.2519 66.1183 74.2519L63.4329 66.6152H73.0234Z" fill="#263238"/>
<path d="M69.5783 66.6152C69.5783 66.6152 83.4903 71.2299 83.8422 76.9404C84.4873 87.4539 79.8665 101.326 79.8665 101.326H75.4864C75.4864 101.326 75.7364 92.1272 76.2581 82.6015C76.9186 70.6311 55.7991 82.4348 59.9816 66.6245L69.5783 66.6152Z" fill="#263238"/>
<path d="M68.1645 36.4546C68.1182 36.7077 68.217 36.9392 68.3837 36.9701C68.5503 37.001 68.7201 36.8158 68.7664 36.5626C68.8127 36.3095 68.7139 36.0749 68.5473 36.0472C68.3806 36.0194 68.217 36.1984 68.1645 36.4546Z" fill="#263238"/>
<path d="M71.0446 36.9701C70.9983 37.2232 71.0971 37.4547 71.2638 37.4856C71.4305 37.5165 71.6033 37.3313 71.6496 37.0781C71.6959 36.825 71.5971 36.5904 71.4305 36.5627C71.2638 36.5349 71.0909 36.7139 71.0446 36.9701Z" fill="#263238"/>
<path d="M71.3533 36.5625L71.9984 36.4946C71.9984 36.4946 71.6126 36.9175 71.3533 36.5625Z" fill="#263238"/>
<path d="M70.2047 37.2695C70.3282 37.8916 70.5359 38.4939 70.822 39.0598C70.6766 39.126 70.5188 39.1603 70.359 39.1603C70.1993 39.1603 70.0414 39.126 69.896 39.0598L70.2047 37.2695Z" fill="#DF5753"/>
<path d="M68.8343 39.8839C68.4956 39.8302 68.1743 39.6974 67.8965 39.4963C67.6187 39.2951 67.3922 39.0314 67.2354 38.7264C67.2302 38.7145 67.2298 38.701 67.2344 38.6889C67.2391 38.6768 67.2483 38.6669 67.2601 38.6616C67.2724 38.6573 67.2859 38.6578 67.2979 38.6629C67.3098 38.6681 67.3195 38.6775 67.3249 38.6893C67.4733 38.9776 67.6871 39.2271 67.9492 39.4179C68.2113 39.6087 68.5144 39.7355 68.8343 39.7882C68.8471 39.7912 68.8584 39.7989 68.8658 39.8097C68.8733 39.8206 68.8763 39.8338 68.8745 39.8469C68.8721 39.8563 68.8671 39.8649 68.86 39.8714C68.8528 39.878 68.8439 39.8824 68.8343 39.8839Z" fill="#263238"/>
<path d="M67.4886 35.3156C67.4752 35.316 67.4619 35.3135 67.4496 35.3082C67.4373 35.3028 67.4264 35.2948 67.4176 35.2847C67.4082 35.276 67.4008 35.2655 67.3957 35.2538C67.3906 35.2421 67.3879 35.2295 67.3879 35.2168C67.3879 35.204 67.3906 35.1914 67.3957 35.1797C67.4008 35.168 67.4082 35.1575 67.4176 35.1489C67.5838 34.9864 67.7867 34.8663 68.0091 34.7986C68.2315 34.7309 68.4669 34.7176 68.6955 34.7599C68.7196 34.7671 68.7401 34.7833 68.7527 34.8051C68.7654 34.8269 68.7692 34.8527 68.7634 34.8772C68.7605 34.8897 68.7552 34.9014 68.7477 34.9118C68.7402 34.9221 68.7307 34.9309 68.7197 34.9375C68.7088 34.9441 68.6967 34.9485 68.684 34.9503C68.6714 34.9521 68.6585 34.9514 68.6461 34.9482C68.4489 34.9134 68.2462 34.9263 68.055 34.9859C67.8638 35.0455 67.6897 35.1501 67.5472 35.2909C67.5307 35.305 67.5102 35.3136 67.4886 35.3156Z" fill="#263238"/>
<path d="M72.6186 35.8218C72.5995 35.8225 72.5806 35.8172 72.5645 35.8067C72.5485 35.7962 72.5361 35.781 72.5291 35.7631C72.4537 35.5779 72.3355 35.4131 72.1842 35.2822C72.0329 35.1513 71.8528 35.058 71.6586 35.01C71.6335 35.0054 71.6111 34.9913 71.5961 34.9706C71.5811 34.9499 71.5748 34.9242 71.5784 34.8989C71.5829 34.8731 71.5975 34.8501 71.6189 34.8351C71.6403 34.8201 71.6668 34.8141 71.6926 34.8186C71.9187 34.871 72.1288 34.9772 72.3051 35.1282C72.4814 35.2792 72.6186 35.4706 72.705 35.686C72.7155 35.7097 72.7162 35.7367 72.7069 35.7609C72.6977 35.7852 72.6793 35.8048 72.6557 35.8156L72.6186 35.8218Z" fill="#263238"/>
<path d="M59.6204 51.7897C59.3395 52.7157 59.037 53.6417 58.7684 54.5924C58.4999 55.5432 58.2159 56.4692 57.972 57.4106C57.7282 58.3521 57.4967 59.2843 57.3238 60.1887C57.2405 60.6456 57.1633 61.0993 57.1201 61.5253C57.0954 61.7383 57.083 61.9389 57.08 62.1241C57.08 62.1673 57.08 62.1241 57.0491 62.0531C57.0114 61.9695 56.9591 61.8932 56.8948 61.8278C56.7373 61.692 56.6787 61.7167 56.7497 61.7383C56.8789 61.7697 57.0119 61.7832 57.1448 61.7784C57.5603 61.7641 57.9737 61.7114 58.3795 61.621C59.2989 61.4184 60.205 61.1597 61.0927 60.8462C62.917 60.2288 64.7691 59.4757 66.5717 58.7071L67.3681 60.1609C65.6579 61.2821 63.8703 62.2806 62.0188 63.1489C61.06 63.6011 60.0709 63.9859 59.0586 64.3003C58.4949 64.4719 57.9161 64.5887 57.33 64.6491C56.964 64.6866 56.5947 64.6773 56.2311 64.6213C55.9898 64.5852 55.7543 64.5177 55.5304 64.4207C55.2411 64.2956 54.979 64.1152 54.7587 63.8897C54.3307 63.4386 54.0854 62.8446 54.0704 62.2229C54.0549 61.9142 54.0519 61.6055 54.0704 61.3277C54.092 60.7567 54.1445 60.2165 54.2155 59.6887C54.3636 58.633 54.555 57.6144 54.7896 56.6019C55.0242 55.5895 55.2742 54.611 55.5489 53.6294C55.8237 52.6478 56.12 51.6847 56.475 50.7031L59.6204 51.7897Z" fill="#E58A7B"/>
<path d="M79.8912 105.826C79.6067 105.819 79.324 105.78 79.0485 105.709C79.0382 105.707 79.0287 105.702 79.0213 105.695C79.0138 105.687 79.0088 105.678 79.0068 105.667C79.0048 105.657 79.006 105.646 79.0101 105.637C79.0142 105.627 79.0211 105.619 79.03 105.613C79.138 105.542 80.1011 104.919 80.4684 105.082C80.5069 105.1 80.5399 105.127 80.5639 105.162C80.5878 105.197 80.6018 105.238 80.6042 105.28C80.6196 105.348 80.6168 105.42 80.5963 105.487C80.5757 105.554 80.538 105.614 80.4869 105.663C80.3138 105.786 80.1028 105.844 79.8912 105.826ZM79.1967 105.635C79.7924 105.758 80.24 105.743 80.4128 105.582C80.4504 105.546 80.4781 105.5 80.4932 105.45C80.5084 105.4 80.5104 105.347 80.4993 105.295C80.4981 105.271 80.4903 105.248 80.4767 105.227C80.4631 105.207 80.4442 105.191 80.4221 105.181C80.1875 105.076 79.5362 105.425 79.1967 105.635Z" fill="#C28619"/>
<path d="M79.0607 105.712H79.0329C79.0243 105.707 79.0172 105.7 79.0123 105.691C79.0074 105.682 79.0049 105.673 79.0051 105.663C79.0051 105.626 79.0051 104.712 79.3509 104.409C79.3913 104.371 79.4403 104.342 79.4939 104.325C79.5475 104.309 79.6042 104.305 79.6595 104.314C79.7152 104.313 79.7692 104.332 79.8126 104.367C79.8559 104.402 79.8858 104.451 79.8972 104.505C79.962 104.839 79.4249 105.521 79.0885 105.712H79.0607ZM79.604 104.409C79.536 104.41 79.4708 104.436 79.4218 104.484C79.178 104.7 79.1286 105.311 79.1132 105.555C79.4218 105.332 79.8355 104.771 79.783 104.521C79.783 104.48 79.7521 104.428 79.641 104.413L79.604 104.409Z" fill="#C28619"/>
<path d="M92.4728 105.826C92.1336 105.819 91.7957 105.781 91.4634 105.712C91.4525 105.709 91.4427 105.703 91.435 105.695C91.4274 105.687 91.4222 105.677 91.4202 105.666C91.4186 105.654 91.4207 105.643 91.4263 105.633C91.4319 105.623 91.4406 105.615 91.4511 105.61C91.5931 105.536 92.8617 104.888 93.2476 105.098C93.2811 105.116 93.3094 105.143 93.3299 105.175C93.3504 105.208 93.3624 105.245 93.3649 105.283C93.3736 105.347 93.3663 105.413 93.3437 105.474C93.3211 105.534 93.2838 105.589 93.2352 105.632C93.0107 105.782 92.7417 105.85 92.4728 105.826ZM91.6425 105.635C92.0561 105.706 92.8772 105.808 93.1611 105.555C93.1966 105.521 93.2237 105.48 93.2404 105.435C93.257 105.389 93.2626 105.34 93.2568 105.292C93.2566 105.271 93.2507 105.251 93.2399 105.233C93.229 105.215 93.2135 105.2 93.1951 105.19C92.942 105.055 92.09 105.416 91.6425 105.635Z" fill="#C28619"/>
<path d="M91.4757 105.712C91.4657 105.715 91.4549 105.715 91.4449 105.712C91.4374 105.706 91.4313 105.699 91.427 105.69C91.4227 105.682 91.4204 105.672 91.4202 105.663C91.4202 105.626 91.4973 104.771 91.8924 104.428C91.9478 104.381 92.0122 104.346 92.0818 104.324C92.1514 104.303 92.2245 104.296 92.2968 104.305C92.4944 104.323 92.5499 104.422 92.5653 104.499C92.6209 104.854 91.8739 105.533 91.4973 105.703L91.4757 105.712ZM92.2382 104.409C92.1367 104.409 92.0387 104.446 91.9634 104.514C91.6733 104.755 91.5714 105.332 91.5405 105.564C91.9449 105.339 92.4974 104.758 92.4666 104.521C92.4666 104.496 92.4666 104.428 92.2968 104.413L92.2382 104.409Z" fill="#C28619"/>
<path d="M66.4977 58.7564L69.5413 57.9847L68.0905 60.9079C68.0905 60.9079 66.0316 60.9974 65.3525 59.8491L66.4977 58.7564Z" fill="#E58A7B"/>
<path d="M72.0015 59.0929L70.6557 61.4759L68.0906 60.9079L69.5413 57.9847L72.0015 59.0929Z" fill="#E58A7B"/>
<path d="M68.47 36.0473L69.1151 35.9794C69.1151 35.9794 68.7169 36.4023 68.47 36.0473Z" fill="#263238"/>
<path d="M59.7871 65.8496L59.6822 67.0164C59.6389 67.109 59.7439 67.2016 59.8951 67.2016H73.0879C73.2052 67.2016 73.3009 67.1429 73.3102 67.0689L73.4275 65.9021C73.4275 65.8218 73.3318 65.7539 73.2052 65.7539H60.0001C59.9594 65.7505 59.9185 65.7575 59.8812 65.7742C59.844 65.7909 59.8116 65.8169 59.7871 65.8496Z" fill="#C28619"/>
<path d="M61.5622 67.3284H61.2072C61.1362 67.3284 61.0837 67.2913 61.0868 67.2481L61.2535 65.7294C61.2535 65.6862 61.3214 65.6492 61.3924 65.6492H61.735C61.806 65.6492 61.8585 65.6862 61.8554 65.7294L61.6887 67.2481C61.6918 67.2913 61.6301 67.3284 61.5622 67.3284Z" fill="#263238"/>
<path d="M72.0939 67.3284H71.7389C71.6679 67.3284 71.6155 67.2913 71.6185 67.2481L71.7852 65.7294C71.7852 65.6862 71.8531 65.6492 71.9241 65.6492H72.276C72.347 65.6492 72.3995 65.6862 72.3964 65.7294L72.2297 67.2481C72.2297 67.2913 72.1618 67.3284 72.0939 67.3284Z" fill="#263238"/>
<path d="M66.8278 67.3284H66.4728C66.4018 67.3284 66.3493 67.2913 66.3524 67.2481L66.5191 65.7294C66.5191 65.6862 66.587 65.6492 66.658 65.6492H67.0099C67.0809 65.6492 67.1334 65.6862 67.1303 65.7294L66.9636 67.2481C66.9574 67.2913 66.8988 67.3284 66.8278 67.3284Z" fill="#263238"/>
<path d="M57.6727 47.144C56.364 47.5422 54.7959 52.0396 54.7959 52.0396L59.0093 56.1543C59.0093 56.1543 61.7133 51.91 61.17 50.2215C60.5928 48.4621 59.1636 46.6934 57.6727 47.144Z" fill="#C28619"/>
<path opacity="0.5" d="M57.6727 47.144C56.364 47.5422 54.7959 52.0396 54.7959 52.0396L59.0093 56.1543C59.0093 56.1543 61.7133 51.91 61.17 50.2215C60.5928 48.4621 59.1636 46.6934 57.6727 47.144Z" fill="white"/>
<path d="M127.686 63.408H103.128V111.175H127.686V63.408Z" fill="#C28619"/>
<path opacity="0.6" d="M127.686 63.408H103.128V111.175H127.686V63.408Z" fill="white"/>
<path d="M80.1104 63.408H55.5522V111.175H80.1104V63.408Z" fill="#C28619"/>
<path opacity="0.6" d="M80.1104 63.408H55.5522V111.175H80.1104V63.408Z" fill="white"/>
<path d="M128.606 63.408H126.581V111.175H128.606V63.408Z" fill="#C28619"/>
<path opacity="0.3" d="M128.606 63.408H126.581V111.175H128.606V63.408Z" fill="black"/>
<path d="M80.4036 66.9918H129.233V63.4081L80.4036 63.4081V66.9918Z" fill="#C28619"/>
<path opacity="0.3" d="M80.4036 66.9918H129.233V63.4081L80.4036 63.4081V66.9918Z" fill="black"/>
<path d="M81.0332 63.408H79.0083V111.175H81.0332V63.408Z" fill="#C28619"/>
<path opacity="0.3" d="M81.0332 63.408H79.0083V111.175H81.0332V63.408Z" fill="black"/>
<path d="M80.2862 74.8352H127.594V64.5162H80.2862V74.8352Z" fill="#C28619"/>
<path opacity="0.3" d="M80.2862 74.8352H127.594V64.5162H80.2862V74.8352Z" fill="black"/>
<path d="M127.699 112.565H114.065C113.139 112.564 112.252 112.196 111.597 111.541C110.943 110.887 110.575 109.999 110.574 109.073V66.0564C110.574 65.2378 110.248 64.4527 109.67 63.8738C109.091 63.2949 108.306 62.9697 107.487 62.9697H103.406V62.661H107.484C108.384 62.661 109.248 63.0187 109.885 63.6555C110.522 64.2923 110.879 65.1559 110.879 66.0564V109.073C110.88 109.917 111.216 110.726 111.812 111.323C112.409 111.919 113.218 112.255 114.062 112.256H127.699C127.931 112.256 128.157 112.183 128.346 112.048C128.534 111.912 128.674 111.72 128.747 111.5C128.82 111.28 128.822 111.042 128.751 110.821C128.681 110.599 128.543 110.406 128.356 110.268L128.539 110.021C128.777 110.198 128.953 110.445 129.043 110.728C129.132 111.011 129.131 111.314 129.038 111.596C128.945 111.878 128.765 112.123 128.525 112.297C128.285 112.471 127.996 112.564 127.699 112.565Z" fill="#C28619"/>
<path opacity="0.3" d="M127.699 112.565H114.065C113.139 112.564 112.252 112.196 111.597 111.541C110.943 110.887 110.575 109.999 110.574 109.073V66.0564C110.574 65.2378 110.248 64.4527 109.67 63.8738C109.091 63.2949 108.306 62.9697 107.487 62.9697H103.406V62.661H107.484C108.384 62.661 109.248 63.0187 109.885 63.6555C110.522 64.2923 110.879 65.1559 110.879 66.0564V109.073C110.88 109.917 111.216 110.726 111.812 111.323C112.409 111.919 113.218 112.255 114.062 112.256H127.699C127.931 112.256 128.157 112.183 128.346 112.048C128.534 111.912 128.674 111.72 128.747 111.5C128.82 111.28 128.822 111.042 128.751 110.821C128.681 110.599 128.543 110.406 128.356 110.268L128.539 110.021C128.777 110.198 128.953 110.445 129.043 110.728C129.132 111.011 129.131 111.314 129.038 111.596C128.945 111.878 128.765 112.123 128.525 112.297C128.285 112.471 127.996 112.564 127.699 112.565Z" fill="black"/>
<path d="M129.687 77.5021H129.378V83.4688H129.687V77.5021Z" fill="#C28619"/>
<path opacity="0.3" d="M129.687 77.5021H129.378V83.4688H129.687V77.5021Z" fill="black"/>
<path d="M129.687 73.9801H129.378V75.5482H129.687V73.9801Z" fill="#C28619"/>
<path opacity="0.3" d="M129.687 73.9801H129.378V75.5482H129.687V73.9801Z" fill="black"/>
<path d="M107.079 49.1473H84.1941L80.8789 62.6611H103.761L107.079 49.1473Z" fill="#C28619"/>
<path opacity="0.4" d="M107.079 49.1473H84.1941L80.8789 62.6611H103.761L107.079 49.1473Z" fill="white"/>
<path d="M81.5795 62.6613L81.4869 63.4083H72.5076L72.6002 62.6613H81.5795Z" fill="#C28619"/>
<path opacity="0.4" d="M81.5795 62.6613L81.4869 63.4083H72.5076L72.6002 62.6613H81.5795Z" fill="white"/>
<path d="M104.465 62.6613L104.372 63.4083H81.4871L81.5797 62.6613H104.465Z" fill="#C28619"/>
<path opacity="0.5" d="M104.465 62.6613L104.372 63.4083H81.4871L81.5797 62.6613H104.465Z" fill="black"/>
<path d="M107.783 49.1473H84.8979L81.5828 62.6611H104.465L107.783 49.1473Z" fill="#C28619"/>
<path opacity="0.5" d="M107.783 49.1473H84.8979L81.5828 62.6611H104.465L107.783 49.1473Z" fill="black"/>
<path d="M116.62 60.0033C116.62 60.0033 113.253 54.1972 117.914 49.5763C117.914 49.5763 119.133 50.3727 119.114 51.4283C119.096 52.484 117.809 52.768 118.083 53.657C118.358 54.546 119.577 55.4257 118.778 56.1634C117.979 56.9012 118.908 57.5555 118.852 58.4569C118.797 59.3582 116.62 60.0033 116.62 60.0033Z" fill="#C28619"/>
<path d="M116.877 60.5343C116.877 60.5343 118.241 53.9626 112.351 51.0518C112.351 51.0518 111.444 52.1908 111.799 53.2125C112.154 54.2342 113.46 54.0706 113.478 55.0059C113.497 55.9412 112.62 57.1512 113.611 57.5988C114.602 58.0463 113.92 58.9631 114.262 59.8027C114.605 60.6423 116.877 60.5343 116.877 60.5343Z" fill="#C28619"/>
<path opacity="0.5" d="M116.877 60.5343C116.877 60.5343 118.241 53.9626 112.351 51.0518C112.351 51.0518 111.444 52.1908 111.799 53.2125C112.154 54.2342 113.46 54.0706 113.478 55.0059C113.497 55.9412 112.62 57.1512 113.611 57.5988C114.602 58.0463 113.92 58.9631 114.262 59.8027C114.605 60.6423 116.877 60.5343 116.877 60.5343Z" fill="black"/>
<path d="M111.716 59.0773C111.716 59.0773 111.83 63.3987 116.123 63.3987C120.417 63.3987 120.528 59.0773 120.528 59.0773H111.716Z" fill="#C28619"/>
<path opacity="0.5" d="M111.716 59.0773C111.716 59.0773 111.83 63.3987 116.123 63.3987C120.417 63.3987 120.528 59.0773 120.528 59.0773H111.716Z" fill="black"/>
<path d="M88.6361 30.7626L84.9691 26.0244L81.302 30.7626H83.0275V36.896H86.9106V30.7626H88.6361Z" fill="#C28619"/>
<path d="M99.3933 36.3341C99.3933 34.0418 100.304 31.8435 101.925 30.2226C103.546 28.6017 105.744 27.6912 108.036 27.6912V29.9414C107.197 29.941 106.366 30.1059 105.591 30.4267C104.816 30.7474 104.112 31.2178 103.518 31.8109C102.925 32.404 102.454 33.1081 102.133 33.8832C101.812 34.6582 101.647 35.4889 101.647 36.3279L99.3933 36.3341Z" fill="#C28619"/>
<path d="M99.3933 36.3341H101.647C101.647 38.0287 102.32 39.6539 103.518 40.8522C104.716 42.0505 106.342 42.7237 108.036 42.7237C109.157 42.7257 110.259 42.4296 111.228 41.8656L112.358 43.8318C111.044 44.5904 109.553 44.9898 108.036 44.9897C106.519 44.9897 105.028 44.5903 103.715 43.8317C102.401 43.0731 101.31 41.982 100.551 40.668C99.7925 39.3541 99.3932 37.8636 99.3933 36.3465V36.3341Z" fill="#C28619"/>
<path opacity="0.5" d="M99.3933 36.3341H101.647C101.647 38.0287 102.32 39.6539 103.518 40.8522C104.716 42.0505 106.342 42.7237 108.036 42.7237C109.157 42.7257 110.259 42.4296 111.228 41.8656L112.358 43.8318C111.044 44.5904 109.553 44.9898 108.036 44.9897C106.519 44.9897 105.028 44.5903 103.715 43.8317C102.401 43.0731 101.31 41.982 100.551 40.668C99.7925 39.3541 99.3932 37.8636 99.3933 36.3465V36.3341Z" fill="white"/>
<path d="M108.036 29.9414V27.685C109.945 27.6777 111.802 28.3024 113.319 29.4617C114.835 30.6209 115.925 32.2495 116.418 34.0933C116.912 35.9371 116.781 37.8924 116.047 39.6541C115.312 41.4158 114.015 42.8847 112.358 43.8318L111.231 41.8779C112.458 41.1792 113.419 40.0934 113.964 38.7905C114.509 37.4875 114.606 36.0408 114.241 34.6766C113.876 33.3124 113.069 32.1077 111.946 31.251C110.823 30.3942 109.449 29.9337 108.036 29.9414Z" fill="#C28619"/>
<path opacity="0.7" d="M108.036 29.9414V27.685C109.945 27.6777 111.802 28.3024 113.319 29.4617C114.835 30.6209 115.925 32.2495 116.418 34.0933C116.912 35.9371 116.781 37.8924 116.047 39.6541C115.312 41.4158 114.015 42.8847 112.358 43.8318L111.231 41.8779C112.458 41.1792 113.419 40.0934 113.964 38.7905C114.509 37.4875 114.606 36.0408 114.241 34.6766C113.876 33.3124 113.069 32.1077 111.946 31.251C110.823 30.3942 109.449 29.9337 108.036 29.9414Z" fill="black"/>
<path d="M99.9213 15.125H92.047C91.7662 15.125 91.4969 15.2365 91.2984 15.4351C91.0998 15.6337 90.9883 15.903 90.9883 16.1838V30.744C90.9907 31.0232 91.1033 31.2901 91.3016 31.4866C91.4999 31.6832 91.7678 31.7935 92.047 31.7935H102.125C102.406 31.7926 102.674 31.6807 102.872 31.4823C103.07 31.2838 103.181 31.015 103.181 30.7347V18.3877L99.9213 15.125Z" fill="#263238"/>
<path d="M99.4583 30.3459H92.9113C92.7885 30.3459 92.6707 30.2971 92.5839 30.2103C92.497 30.1235 92.4482 30.0057 92.4482 29.8829C92.4491 29.7606 92.4982 29.6437 92.5849 29.5575C92.6717 29.4713 92.789 29.423 92.9113 29.423H99.4613C99.5836 29.423 99.7009 29.4713 99.7876 29.5575C99.8744 29.6437 99.9235 29.7606 99.9244 29.8829C99.9235 30.006 99.8741 30.1237 99.7867 30.2105C99.6994 30.2972 99.5813 30.3459 99.4583 30.3459Z" fill="#C28619"/>
<path d="M96.3715 17.5111H92.9113C92.789 17.5111 92.6717 17.4627 92.5849 17.3766C92.4982 17.2904 92.4491 17.1734 92.4482 17.0511C92.4482 16.9283 92.497 16.8106 92.5839 16.7237C92.6707 16.6369 92.7885 16.5881 92.9113 16.5881H96.3746C96.4974 16.5881 96.6152 16.6369 96.702 16.7237C96.7888 16.8106 96.8376 16.9283 96.8376 17.0511C96.8372 17.112 96.8248 17.1721 96.8012 17.2281C96.7775 17.2841 96.7431 17.3349 96.6998 17.3776C96.6565 17.4204 96.6053 17.4541 96.5489 17.477C96.4926 17.4999 96.4323 17.5115 96.3715 17.5111Z" fill="#C28619"/>
<path d="M98.6341 19.3447H92.9113C92.789 19.3447 92.6717 19.2963 92.5849 19.2102C92.4982 19.124 92.4491 19.007 92.4482 18.8848C92.4482 18.762 92.497 18.6442 92.5839 18.5574C92.6707 18.4705 92.7885 18.4218 92.9113 18.4218H98.6372C98.7594 18.4226 98.8764 18.4717 98.9626 18.5585C99.0487 18.6452 99.0971 18.7625 99.0971 18.8848C99.0971 18.9454 99.0851 19.0055 99.0618 19.0615C99.0385 19.1175 99.0043 19.1683 98.9613 19.2111C98.9183 19.2538 98.8672 19.2876 98.811 19.3106C98.7549 19.3335 98.6948 19.3451 98.6341 19.3447Z" fill="#C28619"/>
<path d="M101.264 21.1783H92.9113C92.789 21.1783 92.6717 21.13 92.5849 21.0438C92.4982 20.9576 92.4491 20.8406 92.4482 20.7184C92.4482 20.5956 92.497 20.4778 92.5839 20.391C92.6707 20.3042 92.7885 20.2554 92.9113 20.2554H101.267C101.39 20.2554 101.508 20.3042 101.594 20.391C101.681 20.4778 101.73 20.5956 101.73 20.7184C101.73 20.7792 101.717 20.8393 101.694 20.8953C101.67 20.9514 101.636 21.0022 101.592 21.0449C101.549 21.0876 101.498 21.1214 101.441 21.1442C101.385 21.1671 101.325 21.1787 101.264 21.1783Z" fill="#C28619"/>
<path d="M101.264 23.0117H96.4056C96.2834 23.0117 96.1661 22.9633 96.0793 22.8772C95.9926 22.791 95.9434 22.674 95.9426 22.5518C95.9426 22.429 95.9914 22.3112 96.0782 22.2244C96.1651 22.1375 96.2828 22.0887 96.4056 22.0887H101.264C101.387 22.0887 101.505 22.1375 101.592 22.2244C101.678 22.3112 101.727 22.429 101.727 22.5518C101.726 22.674 101.677 22.791 101.59 22.8772C101.504 22.9633 101.386 23.0117 101.264 23.0117Z" fill="#C28619"/>
<path d="M94.1768 23.0117H92.9113C92.789 23.0117 92.6717 22.9633 92.5849 22.8772C92.4982 22.791 92.4491 22.674 92.4482 22.5518C92.4482 22.429 92.497 22.3112 92.5839 22.2244C92.6707 22.1375 92.7885 22.0887 92.9113 22.0887H94.1799C94.3027 22.0887 94.4205 22.1375 94.5073 22.2244C94.5941 22.3112 94.6429 22.429 94.6429 22.5518C94.6425 22.6126 94.6301 22.6727 94.6065 22.7287C94.5829 22.7847 94.5484 22.8355 94.5051 22.8783C94.4618 22.921 94.4106 22.9547 94.3543 22.9776C94.2979 23.0005 94.2376 23.0121 94.1768 23.0117Z" fill="#C28619"/>
<path d="M101.264 24.8452H92.9113C92.7885 24.8452 92.6707 24.7964 92.5839 24.7096C92.497 24.6227 92.4482 24.505 92.4482 24.3822C92.4491 24.2599 92.4982 24.1429 92.5849 24.0568C92.6717 23.9706 92.789 23.9222 92.9113 23.9222H101.267C101.389 23.9222 101.507 23.9706 101.593 24.0568C101.68 24.1429 101.729 24.2599 101.73 24.3822C101.73 24.4432 101.718 24.5037 101.695 24.5601C101.671 24.6164 101.637 24.6676 101.593 24.7107C101.55 24.7537 101.499 24.7877 101.442 24.8108C101.386 24.8339 101.325 24.8456 101.264 24.8452Z" fill="#C28619"/>
<path d="M98.0383 26.6788H92.9113C92.7885 26.6788 92.6707 26.63 92.5839 26.5432C92.497 26.4564 92.4482 26.3386 92.4482 26.2158C92.4491 26.0935 92.4982 25.9765 92.5849 25.8904C92.6717 25.8042 92.789 25.7559 92.9113 25.7559H98.0414C98.1637 25.7559 98.281 25.8042 98.3678 25.8904C98.4545 25.9765 98.5036 26.0935 98.5044 26.2158C98.5044 26.2768 98.4924 26.3373 98.4689 26.3937C98.4455 26.4501 98.4111 26.5012 98.3677 26.5443C98.3244 26.5873 98.273 26.6214 98.2165 26.6444C98.16 26.6675 98.0994 26.6792 98.0383 26.6788Z" fill="#C28619"/>
<path d="M101.264 26.6788H99.8933C99.771 26.678 99.654 26.6288 99.5679 26.5421C99.4817 26.4554 99.4333 26.338 99.4333 26.2158C99.4333 26.0938 99.4818 25.9768 99.5681 25.8906C99.6543 25.8043 99.7713 25.7559 99.8933 25.7559H101.264C101.386 25.7559 101.503 25.8042 101.59 25.8904C101.677 25.9765 101.726 26.0935 101.727 26.2158C101.727 26.3386 101.678 26.4564 101.591 26.5432C101.504 26.63 101.387 26.6788 101.264 26.6788Z" fill="#C28619"/>
<path d="M101.264 28.5123H92.9113C92.7885 28.5123 92.6707 28.4635 92.5839 28.3767C92.497 28.2898 92.4482 28.1721 92.4482 28.0493C92.4491 27.927 92.4982 27.81 92.5849 27.7239C92.6717 27.6377 92.789 27.5894 92.9113 27.5894H101.267C101.389 27.5894 101.507 27.6377 101.593 27.7239C101.68 27.81 101.729 27.927 101.73 28.0493C101.73 28.1103 101.718 28.1708 101.695 28.2272C101.671 28.2836 101.637 28.3347 101.593 28.3778C101.55 28.4208 101.499 28.4548 101.442 28.4779C101.386 28.501 101.325 28.5127 101.264 28.5123Z" fill="#C28619"/>
<g opacity="0.5">
<path opacity="0.5" d="M99.4583 30.3459H92.9113C92.7885 30.3459 92.6707 30.2971 92.5839 30.2103C92.497 30.1235 92.4482 30.0057 92.4482 29.8829C92.4491 29.7606 92.4982 29.6437 92.5849 29.5575C92.6717 29.4713 92.789 29.423 92.9113 29.423H99.4613C99.5836 29.423 99.7009 29.4713 99.7876 29.5575C99.8744 29.6437 99.9235 29.7606 99.9244 29.8829C99.9235 30.006 99.8741 30.1237 99.7867 30.2105C99.6994 30.2972 99.5813 30.3459 99.4583 30.3459Z" fill="white"/>
</g>
<g opacity="0.5">
<path opacity="0.5" d="M96.3715 17.5111H92.9113C92.789 17.5111 92.6717 17.4627 92.5849 17.3766C92.4982 17.2904 92.4491 17.1734 92.4482 17.0511C92.4482 16.9283 92.497 16.8106 92.5839 16.7237C92.6707 16.6369 92.7885 16.5881 92.9113 16.5881H96.3746C96.4974 16.5881 96.6152 16.6369 96.702 16.7237C96.7888 16.8106 96.8376 16.9283 96.8376 17.0511C96.8372 17.112 96.8248 17.1721 96.8012 17.2281C96.7775 17.2841 96.7431 17.3349 96.6998 17.3776C96.6565 17.4204 96.6053 17.4541 96.5489 17.477C96.4926 17.4999 96.4323 17.5115 96.3715 17.5111Z" fill="white"/>
</g>
<g opacity="0.5">
<path opacity="0.5" d="M98.6341 19.3447H92.9113C92.789 19.3447 92.6717 19.2963 92.5849 19.2102C92.4982 19.124 92.4491 19.007 92.4482 18.8848C92.4482 18.762 92.497 18.6442 92.5839 18.5574C92.6707 18.4705 92.7885 18.4218 92.9113 18.4218H98.6372C98.7594 18.4226 98.8764 18.4717 98.9626 18.5585C99.0487 18.6452 99.0971 18.7625 99.0971 18.8848C99.0971 18.9454 99.0851 19.0055 99.0618 19.0615C99.0385 19.1175 99.0043 19.1683 98.9613 19.2111C98.9183 19.2538 98.8672 19.2876 98.811 19.3106C98.7549 19.3335 98.6948 19.3451 98.6341 19.3447Z" fill="white"/>
</g>
<g opacity="0.5">
<path opacity="0.5" d="M101.264 21.1783H92.9113C92.789 21.1783 92.6717 21.13 92.5849 21.0438C92.4982 20.9576 92.4491 20.8406 92.4482 20.7184C92.4482 20.5956 92.497 20.4778 92.5839 20.391C92.6707 20.3042 92.7885 20.2554 92.9113 20.2554H101.267C101.39 20.2554 101.508 20.3042 101.594 20.391C101.681 20.4778 101.73 20.5956 101.73 20.7184C101.73 20.7792 101.717 20.8393 101.694 20.8953C101.67 20.9514 101.636 21.0022 101.592 21.0449C101.549 21.0876 101.498 21.1214 101.441 21.1442C101.385 21.1671 101.325 21.1787 101.264 21.1783Z" fill="white"/>
</g>
<g opacity="0.5">
<path opacity="0.5" d="M101.264 23.0117H96.4056C96.2834 23.0117 96.1661 22.9633 96.0793 22.8772C95.9926 22.791 95.9434 22.674 95.9426 22.5518C95.9426 22.429 95.9914 22.3112 96.0782 22.2244C96.1651 22.1375 96.2828 22.0887 96.4056 22.0887H101.264C101.387 22.0887 101.505 22.1375 101.592 22.2244C101.678 22.3112 101.727 22.429 101.727 22.5518C101.726 22.674 101.677 22.791 101.59 22.8772C101.504 22.9633 101.386 23.0117 101.264 23.0117Z" fill="white"/>
</g>
<g opacity="0.5">
<path opacity="0.5" d="M94.1768 23.0117H92.9113C92.789 23.0117 92.6717 22.9633 92.5849 22.8772C92.4982 22.791 92.4491 22.674 92.4482 22.5518C92.4482 22.429 92.497 22.3112 92.5839 22.2244C92.6707 22.1375 92.7885 22.0887 92.9113 22.0887H94.1799C94.3027 22.0887 94.4205 22.1375 94.5073 22.2244C94.5941 22.3112 94.6429 22.429 94.6429 22.5518C94.6425 22.6126 94.6301 22.6727 94.6065 22.7287C94.5829 22.7847 94.5484 22.8355 94.5051 22.8783C94.4618 22.921 94.4106 22.9547 94.3543 22.9776C94.2979 23.0005 94.2376 23.0121 94.1768 23.0117Z" fill="white"/>
</g>
<g opacity="0.5">
<path opacity="0.5" d="M101.264 24.8452H92.9113C92.7885 24.8452 92.6707 24.7964 92.5839 24.7096C92.497 24.6227 92.4482 24.505 92.4482 24.3822C92.4491 24.2599 92.4982 24.1429 92.5849 24.0568C92.6717 23.9706 92.789 23.9222 92.9113 23.9222H101.267C101.389 23.9222 101.507 23.9706 101.593 24.0568C101.68 24.1429 101.729 24.2599 101.73 24.3822C101.73 24.4432 101.718 24.5037 101.695 24.5601C101.671 24.6164 101.637 24.6676 101.593 24.7107C101.55 24.7537 101.499 24.7877 101.442 24.8108C101.386 24.8339 101.325 24.8456 101.264 24.8452Z" fill="white"/>
</g>
<g opacity="0.5">
<path opacity="0.5" d="M98.0383 26.6788H92.9113C92.7885 26.6788 92.6707 26.63 92.5839 26.5432C92.497 26.4564 92.4482 26.3386 92.4482 26.2158C92.4491 26.0935 92.4982 25.9765 92.5849 25.8904C92.6717 25.8042 92.789 25.7559 92.9113 25.7559H98.0414C98.1637 25.7559 98.281 25.8042 98.3678 25.8904C98.4545 25.9765 98.5036 26.0935 98.5044 26.2158C98.5044 26.2768 98.4924 26.3373 98.4689 26.3937C98.4455 26.4501 98.4111 26.5012 98.3677 26.5443C98.3244 26.5873 98.273 26.6214 98.2165 26.6444C98.16 26.6675 98.0994 26.6792 98.0383 26.6788Z" fill="white"/>
</g>
<g opacity="0.5">
<path opacity="0.5" d="M101.264 26.6788H99.8933C99.771 26.678 99.654 26.6288 99.5679 26.5421C99.4817 26.4554 99.4333 26.338 99.4333 26.2158C99.4333 26.0938 99.4818 25.9768 99.5681 25.8906C99.6543 25.8043 99.7713 25.7559 99.8933 25.7559H101.264C101.386 25.7559 101.503 25.8042 101.59 25.8904C101.677 25.9765 101.726 26.0935 101.727 26.2158C101.727 26.3386 101.678 26.4564 101.591 26.5432C101.504 26.63 101.387 26.6788 101.264 26.6788Z" fill="white"/>
</g>
<g opacity="0.5">
<path opacity="0.5" d="M101.264 28.5123H92.9113C92.7885 28.5123 92.6707 28.4635 92.5839 28.3767C92.497 28.2898 92.4482 28.1721 92.4482 28.0493C92.4491 27.927 92.4982 27.81 92.5849 27.7239C92.6717 27.6377 92.789 27.5894 92.9113 27.5894H101.267C101.389 27.5894 101.507 27.6377 101.593 27.7239C101.68 27.81 101.729 27.927 101.73 28.0493C101.73 28.1103 101.718 28.1708 101.695 28.2272C101.671 28.2836 101.637 28.3347 101.593 28.3778C101.55 28.4208 101.499 28.4548 101.442 28.4779C101.386 28.501 101.325 28.5127 101.264 28.5123Z" fill="white"/>
</g>
<path d="M99.9214 15.125V17.3289C99.921 17.4681 99.9481 17.606 100.001 17.7346C100.054 17.8632 100.132 17.9801 100.231 18.0785C100.329 18.1769 100.446 18.2549 100.574 18.3079C100.703 18.361 100.841 18.3881 100.98 18.3877H103.181L99.9214 15.125Z" fill="#C28619"/>
<path opacity="0.5" d="M99.9214 15.125V17.3289C99.921 17.4681 99.9481 17.606 100.001 17.7346C100.054 17.8632 100.132 17.9801 100.231 18.0785C100.329 18.1769 100.446 18.2549 100.574 18.3079C100.703 18.361 100.841 18.3881 100.98 18.3877H103.181L99.9214 15.125Z" fill="white"/>
</svg>
