<svg width="16" height="16" viewBox="0 0 16 16" fill="none" xmlns="http://www.w3.org/2000/svg">
<path d="M11.1814 6.05248C11.2379 5.97971 11.2657 5.8883 11.2593 5.79599C11.253 5.70368 11.213 5.61705 11.147 5.55291C11.0811 5.48877 10.994 5.45171 10.9026 5.4489C10.8112 5.44609 10.722 5.47775 10.6523 5.53773L4.95097 10.4455C4.38962 10.9287 3.60716 11.0621 2.9174 10.7922L0.54595 9.86422C0.394018 9.80539 0.261973 9.70366 0.165505 9.57113C0.0690366 9.4386 0.0122021 9.28083 0.00175436 9.11657C-0.00869338 8.95232 0.0276849 8.78848 0.106567 8.64453C0.185449 8.50058 0.303518 8.38257 0.446744 8.30452L14.9462 0.0865031C15.0602 0.0243953 15.1886 -0.00524024 15.3179 0.000759512C15.4472 0.00675927 15.5725 0.0481692 15.6804 0.120569C15.7882 0.19297 15.8746 0.293643 15.9304 0.411845C15.9861 0.530047 16.009 0.66134 15.9968 0.791713L14.7249 14.2062C14.7122 14.3437 14.6679 14.4764 14.5955 14.5936C14.5232 14.7108 14.4248 14.8094 14.3082 14.8813C14.1917 14.9533 14.0601 14.9968 13.924 15.0082C13.7879 15.0197 13.651 14.9989 13.5242 14.9474L10.457 13.7458C9.73479 13.4628 8.91418 13.623 8.35135 14.1566L6.6052 15.8122C6.50672 15.9053 6.38342 15.9671 6.25057 15.9901C6.11771 16.013 5.98112 15.996 5.8577 15.9413C5.73427 15.8865 5.62942 15.7963 5.55611 15.6819C5.48281 15.5674 5.44426 15.4338 5.44524 15.2974V15.0478C5.44524 13.9226 5.82477 12.8303 6.52246 11.9475L11.1814 6.05248Z" fill="white"/>
</svg>
